<?xml version="1.0" encoding="UTF-8"?>
<svg width="91px" height="35px" viewBox="0 0 91 35" version="1.1" xmlns="http://www.w3.org/2000/svg" xmlns:xlink="http://www.w3.org/1999/xlink">
    <!-- Generator: Sketch 46.2 (44496) - http://www.bohemiancoding.com/sketch -->
    <title>AmazonWebservices_Logo</title>
    <desc>Created with Sketch.</desc>
    <defs></defs>
    <g id="Page-4" stroke="none" stroke-width="1" fill="none" fill-rule="evenodd">
        <g id="logos" transform="translate(-367.000000, -21.000000)">
            <g id="AmazonWebservices_Logo" transform="translate(286.000000, 0.000000)">
                <g id="g10" transform="translate(126.500000, 38.500000) scale(-1, 1) rotate(-180.000000) translate(-126.500000, -38.500000) translate(81.000000, 21.000000)">
                    <g id="g12">
                        <polyline id="path14" fill="#F68D11" fill-rule="nonzero" points="25.2931201 22.3577791 20.0043287 24.1228669 20.0043287 31.7715808 25.2995921 30.2026139 25.2931201 22.3577791"></polyline>
                        <polyline id="path16" fill="#F68D11" fill-rule="nonzero" points="26.6724382 30.2026139 31.9677017 31.7715808 31.9492663 24.1281622 26.6724382 22.3577791 26.6724382 30.2026139"></polyline>
                        <polyline id="path18" fill="#F68D11" fill-rule="nonzero" points="30.8890369 32.5997992 25.9538514 34.1250312 21.0829934 32.5997992 25.9609117 31.2922614 30.8890369 32.5997992"></polyline>
                        <polyline id="path20" fill="#F68D11" fill-rule="nonzero" points="38.6293393 22.3577791 33.3405478 24.1228669 33.3405478 31.7715808 38.6358112 30.2026139 38.6293393 22.3577791"></polyline>
                        <polyline id="path22" fill="#F68D11" fill-rule="nonzero" points="40.0086573 30.2026139 45.3039208 31.7715808 45.2854854 24.1281622 40.0086573 22.3577791 40.0086573 30.2026139"></polyline>
                        <polyline id="path24" fill="#F68D11" fill-rule="nonzero" points="44.225256 32.5997992 39.2900705 34.1250312 34.4192126 32.5997992 39.2971308 31.2922614 44.225256 32.5997992"></polyline>
                        <polyline id="path26" fill="#F68D11" fill-rule="nonzero" points="5.29526347 19.0237243 0 20.5926913 0 12.9439774 5.28883071 11.1788895 5.29526347 19.0237243"></polyline>
                        <polyline id="path28" fill="#F68D11" fill-rule="nonzero" points="6.66810955 19.0237243 11.963373 20.5926913 11.9449965 12.9491157 6.66810955 11.1788895 6.66810955 19.0237243"></polyline>
                        <polyline id="path30" fill="#F68D11" fill-rule="nonzero" points="10.8847082 21.4209097 5.94950308 22.9461417 1.07866478 21.4209097 5.95664188 20.1133719 10.8847082 21.4209097"></polyline>
                        <polyline id="path32" fill="#F68D11" fill-rule="nonzero" points="18.6250498 11.1788895 13.3362191 12.9439774 13.3362191 20.5926913 18.6314826 19.0237243 18.6250498 11.1788895"></polyline>
                        <polyline id="path34" fill="#F68D11" fill-rule="nonzero" points="20.0043287 19.0237243 25.2995921 20.5926913 25.2811568 12.9491157 20.0043287 11.1788895 20.0043287 19.0237243"></polyline>
                        <polyline id="path36" fill="#F68D11" fill-rule="nonzero" points="24.2209274 21.4209097 19.2857222 22.9461417 14.4148839 21.4209097 19.292861 20.1133719 24.2209274 21.4209097"></polyline>
                        <polyline id="path38" fill="#F68D11" fill-rule="nonzero" points="11.9569403 0 6.66810955 1.76508782 6.66810955 9.41380172 11.963373 7.84483477 11.9569403 0"></polyline>
                        <polyline id="path40" fill="#F68D11" fill-rule="nonzero" points="13.3362191 7.84483477 18.6314826 9.41380172 18.6131061 1.77022031 13.3362191 0 13.3362191 7.84483477"></polyline>
                        <polyline id="path42" fill="#F68D11" fill-rule="nonzero" points="17.5528178 10.2420202 12.6176126 11.7672522 7.74677434 10.2420202 12.6247514 8.93446271 17.5528178 10.2420202"></polyline>
                        <path d="M35.3782436,6.76126697 L34.9891398,6.75989412 C34.8463638,6.75989412 34.6643636,6.66344188 34.6196481,6.50707471 L33.4391966,2.34831206 L32.271689,6.49803354 C32.2365834,6.62812051 32.1140079,6.75989412 31.9473051,6.75989412 L31.4866172,6.75989412 C31.3206989,6.75989412 31.1996924,6.62635542 31.1661557,6.49534668 L30.0800383,2.3887718 L28.9578347,6.50807492 C28.9135114,6.65869575 28.7270004,6.75989412 28.5806943,6.75989412 L28.0207692,6.76087473 C27.9011355,6.76087473 27.7899349,6.70947145 27.7303142,6.62674766 C27.6899133,6.57065709 27.6787344,6.50707471 27.6973659,6.45176862 L29.4310744,0.314022852 C29.4693179,0.1849359 29.5811068,0.0549291408 29.7446716,0.0549291408 L30.3014588,0.0549291408 C30.4518835,0.0549291408 30.5836767,0.164557765 30.6217242,0.320075142 L31.6888178,4.40858141 L32.8500495,0.315401582 C32.884959,0.190068775 32.9973362,0.0549291408 33.1616855,0.0549291408 L33.7094511,0.0549291408 C33.861837,0.0549291408 33.9901001,0.160803815 34.0277553,0.315938953 L35.6965478,6.44923866 C35.7161599,6.50831027 35.7047848,6.57395192 35.6649723,6.62927762 C35.6063322,6.71070701 35.4965045,6.76126697 35.3782436,6.76126697" id="path44" fill="#100F0D" fill-rule="nonzero"></path>
                        <path d="M40.1926187,4.15538937 L37.2511979,4.15538937 C37.3188596,4.9808621 37.8548579,5.83673358 38.7628976,5.86968188 C39.7291851,5.83812604 40.1712415,5.00184704 40.1926187,4.15538937 Z M38.7607402,6.80515882 C36.7738397,6.80515882 35.868938,5.04858264 35.868938,3.41664128 C35.868938,1.37989467 36.9938873,0.0639691362 38.7348523,0.0639691362 C39.9808082,0.0639691362 40.9306215,0.693471626 41.3409064,1.79335669 C41.3628719,1.85625265 41.3560077,1.92451252 41.3216865,1.9857238 C41.2799128,2.060034 41.20068,2.11610495 41.1069342,2.13671726 L40.5554423,2.24221067 C40.4073711,2.26543138 40.2377265,2.17770652 40.1816359,2.0504633 C39.9137348,1.43934283 39.4253939,1.09260701 38.8125161,1.07452859 C38.2227807,1.09276195 37.681291,1.44309658 37.4331981,1.96650396 C37.2315858,2.39404745 37.2017754,2.81549159 37.1984414,3.2440353 L41.1916584,3.24540814 C41.275402,3.24540814 41.3620874,3.28225926 41.4232772,3.34425306 C41.4744647,3.39565634 41.5023139,3.45953291 41.5017255,3.52350754 C41.4919195,5.11010576 40.7668606,6.80515882 38.7607402,6.80515882 L38.7607402,6.80515882 Z" id="path46" fill="#100F0D" fill-rule="nonzero"></path>
                        <path d="M46.4143572,3.40683523 C46.4143572,3.03106765 46.3463032,1.1547381 45.0132697,1.10670418 C44.5665063,1.12378827 44.1150361,1.38640588 43.8628246,1.77466441 C43.6770982,2.0683103 43.5686433,2.47426089 43.5407942,2.97652643 L43.5407942,4.08047119 C43.5625636,4.92616399 44.1577904,5.85420795 45.008955,5.89013729 C46.3464993,5.83736116 46.4143572,3.81241319 46.4143572,3.40683523 Z M45.2223345,6.86209271 L45.1166254,6.86209271 C44.4570709,6.86209271 43.9387234,6.58813146 43.5407942,6.02657858 L43.5402058,8.61400121 C43.5402058,8.75932677 43.3901734,8.89170836 43.2244512,8.89170836 L42.6502093,8.89170836 C42.5001768,8.89170836 42.3322974,8.77287872 42.3319051,8.61400121 L42.3319051,0.536957367 C42.3324935,0.39024915 42.482526,0.256949718 42.648052,0.256949718 L42.8167159,0.257867564 C42.9759661,0.257867564 43.0893239,0.386189448 43.1275675,0.505393674 L43.3072142,1.07552292 C43.7245594,0.482871153 44.3531268,0.134756414 45.0258214,0.134756414 L45.1287849,0.134756414 C46.9007369,0.134756414 47.6938497,1.85824524 47.6938497,3.56626189 C47.6938497,4.41646547 47.4841965,5.22938647 47.1188233,5.7965288 C46.6965751,6.45374944 45.9697511,6.86209271 45.2223345,6.86209271 L45.2223345,6.86209271 Z" id="path48" fill="#100F0D" fill-rule="nonzero"></path>
                        <path d="M53.9816809,3.58861967 C53.6082668,3.85691301 53.1593461,3.94654025 52.7096409,4.036344 L51.8472975,4.19622173 C51.2285361,4.29794963 50.8704194,4.46388749 50.8704194,5.00988799 C50.8704194,5.58707171 51.4685881,5.80770769 51.9757566,5.82141654 C52.5951064,5.8057857 53.0608934,5.5294514 53.2870208,5.04344427 C53.3407579,4.92890969 53.4598033,4.8518538 53.5835555,4.8518538 C53.6047366,4.8518538 53.6263099,4.85422686 53.6467065,4.85865919 L54.1848621,4.97756727 C54.2727243,4.99694402 54.3547028,5.05715312 54.3986339,5.13546419 C54.4337395,5.19759528 54.4413882,5.2654531 54.4204033,5.32605445 C54.0911163,6.28528162 53.2550531,6.79221484 51.9902696,6.79221484 C50.8474733,6.78968488 49.6262286,6.28153571 49.6262286,4.86226781 C49.6262286,3.89223438 50.2357723,3.27621873 51.4391699,3.03106765 L52.4044769,2.84712588 C52.9343955,2.74569217 53.4762774,2.56528058 53.4762774,1.99629472 C53.4762774,1.15397127 52.4960653,1.0680919 52.1997267,1.06196313 C51.5348769,1.07628976 50.782165,1.37284608 50.5993804,2.00082511 C50.5627058,2.13887459 50.3889427,2.23654278 50.2365568,2.20483004 L49.6736899,2.08868726 C49.5889657,2.07084026 49.5114979,2.01574991 49.4663901,1.94136714 C49.4285388,1.87938903 49.4177521,1.80998185 49.4352069,1.746625 C49.7256619,0.7046564 50.7315659,0.0763033737 52.1259852,0.0657310861 L52.1569723,0.0655012324 C53.4023398,0.0655012324 54.7330199,0.59878251 54.7330199,2.09474739 C54.7330199,2.70370269 54.4590391,3.24817345 53.9816809,3.58861967" id="path50" fill="#100F0D" fill-rule="nonzero"></path>
                        <path d="M59.6746775,4.14932923 L56.7324722,4.14932923 C56.7997417,4.97556684 57.33574,5.83183056 58.2437796,5.86324912 C59.2096749,5.83259543 59.6523197,4.99641449 59.6746775,4.14932923 Z M58.2422107,6.79949092 C56.2549179,6.79949092 55.3498201,5.0428363 55.3498201,3.41097338 C55.3498201,1.37437779 56.4749655,0.0586064071 58.2161266,0.0586064071 C59.4622786,0.0586064071 60.412092,0.688184208 60.8227691,1.78784177 C60.8445385,1.85081422 60.8376742,1.91922706 60.803157,1.98058543 C60.7613832,2.05497408 60.6819543,2.11106465 60.5884046,2.13128471 L60.0361283,2.23677813 C59.9068846,2.25776306 59.7266495,2.19088584 59.6631064,2.04479541 C59.3950091,1.43405737 58.906472,1.08732156 58.2941827,1.0684763 C57.7038589,1.08732156 57.1625653,1.43758166 56.915453,1.96082626 C56.7134485,2.38737934 56.683442,2.80919611 56.6805002,3.23875965 L60.673325,3.23974025 C60.7564802,3.23974025 60.8425773,3.27637563 60.903767,3.33795758 C60.9551506,3.38959621 60.9829998,3.45349239 60.9824114,3.51783964 C60.9731938,5.10428097 60.2487233,6.79949092 58.2422107,6.79949092 L58.2422107,6.79949092 Z" id="path52" fill="#100F0D" fill-rule="nonzero"></path>
                        <path d="M64.7530313,6.7248081 C64.6751713,6.73337858 64.6002531,6.73751673 64.5274923,6.73751673 C63.8573473,6.73751673 63.3131119,6.37316338 62.9353831,5.67709119 L62.9367559,6.28667408 C62.9361675,6.43429425 62.7888808,6.56398898 62.6215897,6.56398898 L62.1228543,6.56398898 C61.9592895,6.56398898 61.8149445,6.43376473 61.8137678,6.28430101 L61.8129833,0.362823608 C61.8129833,0.214201252 61.9573283,0.0837343935 62.1220698,0.0837343935 L62.7039604,0.0839642471 C62.8553657,0.0839642471 63.0257948,0.202785056 63.0271676,0.362823608 L63.0275599,3.34815587 C63.0275599,3.84043886 63.0734522,4.21130343 63.3086011,4.65006503 C63.6445561,5.27504341 64.1136772,5.58163916 64.742833,5.58654218 C64.9005142,5.58767969 65.0389755,5.72535654 65.0389755,5.88125301 L65.0389755,6.43513757 C65.0389755,6.58009051 64.913262,6.70733373 64.7530313,6.7248081" id="path54" fill="#100F0D" fill-rule="nonzero"></path>
                        <path d="M70.8623925,6.84108816 L70.4028813,6.84087243 C70.2589286,6.84087243 70.0743788,6.73751673 70.0296633,6.5859153 L68.5401253,1.90436502 L67.0190118,6.58122801 C66.9741001,6.73651651 66.7891581,6.84087243 66.6444209,6.84087243 L65.9882005,6.8414804 C65.8677823,6.8414804 65.7512865,6.78778251 65.6916658,6.70480377 C65.6516571,6.64926234 65.6406743,6.58628793 65.6604825,6.52753012 L67.7423056,0.351868296 C67.7823142,0.229675189 67.8884156,0.0868754653 68.0562951,0.0868754653 L68.8503885,0.0868754653 C68.9961063,0.0868754653 69.1155439,0.186084972 69.1702616,0.352405668 L71.1895221,6.52552968 C71.2097225,6.58415021 71.1989359,6.64734035 71.1591233,6.70303868 C71.0991104,6.78678229 70.9828107,6.84108816 70.8623925,6.84108816" id="path56" fill="#100F0D" fill-rule="nonzero"></path>
                        <path d="M72.3721309,9.21491555 C71.9489021,9.21491555 71.60471,8.86980166 71.60471,8.44514114 C71.60471,8.02057868 71.9489021,7.67560207 72.3721309,7.67560207 C72.7955559,7.67560207 73.1401402,8.02057868 73.1401402,8.44514114 C73.1401402,8.86980166 72.7955559,9.21491555 72.3721309,9.21491555" id="path58" fill="#100F0D" fill-rule="nonzero"></path>
                        <path d="M72.6880816,6.87870414 L72.0579453,6.87933173 C71.8865357,6.87933173 71.7304234,6.74065466 71.7304234,6.58866099 L71.7272855,0.301229888 C71.7272855,0.225156564 71.7665097,0.149618846 71.8343675,0.0935404369 C71.8965378,0.0425950993 71.9759668,0.0131768709 72.055788,0.0131768709 L72.6904351,0.0121809495 L72.6908273,0.0121809495 C72.8647865,0.0137131438 73.0175647,0.148622944 73.0175647,0.300845491 L73.0175647,6.58866099 C73.0175647,6.74318462 72.8634137,6.87870414 72.6880816,6.87870414" id="path60" fill="#100F0D" fill-rule="nonzero"></path>
                        <path d="M78.577003,2.61507567 L78.0508107,2.61307524 C77.9039162,2.61307524 77.7807523,2.52482085 77.7260345,2.37153278 C77.5338361,1.54230628 77.0984478,1.1126035 76.4383049,1.09360331 C75.1525365,1.13183119 75.052711,2.92396604 75.052711,3.4723396 C75.052711,4.56587034 75.4314204,5.74594923 76.488708,5.77713245 C77.1268853,5.75752036 77.5911034,5.29993115 77.7303492,4.55429921 C77.7566294,4.40214864 77.8735174,4.28700608 78.0331598,4.26700175 L78.5962228,4.26149076 C78.7644945,4.27973 78.8964839,4.40705166 78.8953072,4.56494858 C78.6960484,5.91243623 77.7623169,6.78340901 76.5143998,6.78340901 L76.4712532,6.7822519 L76.4224191,6.78340901 C74.6075166,6.78340901 73.7949878,5.0895719 73.7949878,3.41097338 C73.7949878,1.87195801 74.480038,0.0749242518 76.4122208,0.0749242518 L76.5047899,0.0749242518 C77.7215238,0.0749242518 78.6399578,0.927820375 78.9029559,2.31069608 C78.9088395,2.37659269 78.8860895,2.44246969 78.8394127,2.4960303 C78.7790075,2.56543748 78.6827121,2.6099373 78.577003,2.61507567" id="path62" fill="#100F0D" fill-rule="nonzero"></path>
                        <path d="M83.7738138,4.14932923 L80.8312163,4.14932923 C80.8984857,4.97580219 81.4346802,5.83183056 82.3433082,5.86324912 C83.3093996,5.83259543 83.7518482,4.99641449 83.7738138,4.14932923 Z M82.341347,6.79949092 C80.3542503,6.79949092 79.4493486,5.0428363 79.4493486,3.41097338 C79.4493486,1.37437779 80.574494,0.0586064071 82.3156551,0.0586064071 C83.5612188,0.0586064071 84.5106399,0.687801772 84.9217092,1.78761034 C84.9430864,1.85096719 84.9360261,1.91960949 84.9017049,1.98058543 C84.8593428,2.05552322 84.7822673,2.11029978 84.6871487,2.13128471 L84.1356568,2.23677813 C84.0058248,2.25776306 83.8261781,2.19088584 83.7626349,2.04479541 C83.4937532,1.43405737 83.00502,1.08732156 82.3929267,1.06824684 C81.802799,1.08732156 81.2617016,1.43758166 81.0145893,1.96082626 C80.8123887,2.38800693 80.7823822,2.80982369 80.7792442,3.23875965 L84.7724612,3.23936762 C84.856401,3.23936762 84.9430864,3.27637563 85.0044722,3.33856556 C85.0554637,3.39051798 85.0829206,3.4544926 85.08194,3.51783964 C85.0727223,5.10428097 84.3480557,6.79949092 82.341347,6.79949092 L82.341347,6.79949092 Z" id="path64" fill="#100F0D" fill-rule="nonzero"></path>
                        <path d="M90.084395,3.58861967 C89.7103925,3.85714836 89.2608835,3.94669715 88.8119628,4.036344 L87.9496193,4.19622173 C87.3314463,4.29794963 86.9735258,4.46388749 86.9735258,5.00988799 C86.9735258,5.75438242 87.8974512,5.81659196 88.0776863,5.82141654 C88.6976243,5.8057857 89.1634114,5.5294514 89.3891465,5.04320893 C89.4432759,4.92869395 89.5627135,4.8518538 89.6866619,4.8518538 C89.708039,4.8518538 89.7294162,4.85422686 89.750205,4.85865919 L90.2879685,4.97756727 C90.3758306,4.99694402 90.457613,5.05738847 90.5015441,5.13560147 C90.5364536,5.19781101 90.5441023,5.2654531 90.5231174,5.32605445 C90.1942227,6.28528162 89.3579633,6.79221484 88.0925914,6.79221484 C86.9501874,6.78968488 85.729335,6.28153571 85.729335,4.86226781 C85.729335,3.89199904 86.3386825,3.27598339 87.541884,3.03106765 L88.5075832,2.84712588 C89.0375018,2.74569217 89.5793838,2.56528058 89.5793838,1.99629472 C89.5793838,1.15397127 88.5991716,1.0680919 88.302833,1.06196313 C87.6864251,1.07514049 86.8974309,1.32971518 86.7026828,2.00004062 C86.6669888,2.13887459 86.4934219,2.23638588 86.3382903,2.20483004 L85.776404,2.08868726 C85.6912875,2.07060491 85.6136237,2.01514193 85.5685159,1.94060031 C85.5310568,1.87847118 85.5202701,1.80959745 85.537921,1.746625 C85.8275915,0.7046564 86.8332993,0.0763033737 88.2279148,0.0657310861 L88.2589019,0.0655012324 C89.5044656,0.0655012324 90.8353418,0.59878251 90.8353418,2.09474739 C90.8353418,2.70409493 90.5615571,3.24870297 90.084395,3.58861967" id="path66" fill="#100F0D" fill-rule="nonzero"></path>
                        <path d="M64.4678715,18.9841079 L64.4678715,20.4118678 C64.468656,20.6283853 64.6330053,20.7737108 64.8303029,20.7735147 L71.226785,20.7737108 C71.4309469,20.7737108 71.5956884,20.6248551 71.5956884,20.4134368 L71.5956884,19.1890542 C71.5937272,18.9841079 71.4205525,18.7161283 71.1138194,18.2905657 L67.8007496,13.559993 C69.0300352,13.5891758 70.3314933,13.4050968 71.4485978,12.7770393 C71.7010053,12.6354792 71.7680786,12.4254142 71.7886713,12.2203306 L71.7886713,10.6968637 C71.7886713,10.4867986 71.5588177,10.2440206 71.317589,10.3704989 C69.3487316,11.4020555 66.7358133,11.5146681 64.5582833,10.3585552 C64.3360783,10.2398824 64.1030867,10.4789146 64.1030867,10.6889796 L64.1030867,12.136587 C64.1030867,12.3675585 64.1077936,12.7643307 64.3409813,13.1177208 L68.1800473,18.6244418 L64.8379516,18.6252067 C64.6333975,18.6252067 64.4698327,18.7707676 64.4678715,18.9841079" id="path68" fill="#100F0D"></path>
                        <path d="M41.1353717,10.0700418 L39.1888721,10.0700418 C39.0039301,10.0821424 38.8558589,10.2216432 38.8411498,10.3995444 L38.8425226,20.3875488 C38.8425226,20.587396 39.0107943,20.7470384 39.217898,20.7470384 L41.0302509,20.748019 C41.2200959,20.7374285 41.3718935,20.5942602 41.3848375,20.4126523 L41.3848375,19.1076052 L41.4209237,19.1076052 C41.8927905,20.3693096 42.7829831,20.9568877 43.9816739,20.9568877 C45.1986039,20.9568877 45.9617102,20.3693096 46.5067301,19.1076052 C46.9793814,20.3693096 48.0507897,20.9568877 49.1961356,20.9568877 C50.0135673,20.9568877 50.9025832,20.6211288 51.4476031,19.8648867 C52.0651878,19.0237243 51.9379053,17.8054803 51.9379053,16.7330914 L51.9367286,10.4298843 C51.9367286,10.2306059 51.768653,10.0700418 51.5617455,10.0700418 L49.6181877,10.0700418 C49.422459,10.0821424 49.2685042,10.2382742 49.2685042,10.4289626 L49.2685042,15.7243829 C49.2685042,16.1444934 49.3043943,17.195819 49.2137864,17.5948073 C49.0680686,18.2679725 48.6318958,18.4560525 48.0696173,18.4560525 C47.5967699,18.4560525 47.1060755,18.1407882 46.9062283,17.6374636 C46.7065773,17.1322366 46.7250126,16.2915841 46.7250126,15.7243829 L46.7250126,10.4298843 C46.7250126,10.2306059 46.556937,10.0700418 46.3496373,10.0700418 L44.4056872,10.0700418 C44.2109392,10.0821424 44.0565921,10.2382742 44.0565921,10.4289626 L44.0540425,15.7243829 C44.0540425,16.8384279 44.2362388,18.4771158 42.8559401,18.4771158 C41.4572061,18.4771158 41.5117277,16.8801821 41.5117277,15.7243829 L41.5105509,10.4298843 C41.5113354,10.2306059 41.3430637,10.0700418 41.1353717,10.0700418" id="path70" fill="#100F0D"></path>
                        <path d="M77.1204133,18.9189173 C75.6846124,18.9189173 75.5942007,16.9644552 75.5942007,15.7449756 C75.5942007,14.5262021 75.5761576,11.920246 77.1027624,11.920246 C78.6107358,11.920246 78.6831044,14.0220342 78.6831044,15.303939 C78.6831044,16.1444934 78.6472143,17.1530646 78.3928455,17.9518061 C78.1741707,18.6456621 77.7385863,18.9189173 77.1204133,18.9189173 L77.1204133,18.9189173 Z M77.1027624,20.9568877 C79.9908383,20.9568877 81.5533333,18.4771158 81.5533333,15.32563 C81.5533333,12.2774018 79.8268813,9.86021205 77.1027624,9.86021205 C74.2686197,9.86021205 72.7241679,12.3406704 72.7241679,15.4302016 C72.7241679,18.5406982 74.2860745,20.9568877 77.1027624,20.9568877 L77.1027624,20.9568877 Z" id="path72" fill="#100F0D"></path>
                        <path d="M85.2992419,10.0700418 L83.3601949,10.0700418 C83.1648585,10.0821424 83.0109036,10.2382742 83.0109036,10.4289626 L83.0081579,20.4214778 C83.0242398,20.6034779 83.1858434,20.7470384 83.3811798,20.7470384 L85.1868646,20.748019 C85.3570976,20.7386052 85.4967356,20.6228939 85.5324296,20.4681545 L85.5324296,18.9398434 L85.5693003,18.9398434 C86.1135358,20.3061587 86.8770343,20.9568877 88.2206584,20.9568877 C89.0928079,20.9568877 89.9471104,20.642506 90.491738,19.7805548 C91.0000833,18.9822055 91.0000833,17.6374636 91.0000833,16.6705092 L91.0000833,10.3849923 C90.9783139,10.2078559 90.8204366,10.0700418 90.6282382,10.0700418 L88.6764433,10.0700418 C88.4964043,10.0817698 88.3516671,10.2147594 88.3298977,10.3849923 L88.3298977,15.8084207 C88.3298977,16.9012454 88.4573763,18.4989441 87.1125755,18.4989441 C86.6405125,18.4989441 86.2051242,18.1829345 85.9868417,17.7001438 C85.7140375,17.0908551 85.6779513,16.4814291 85.6779513,15.8084207 L85.6779513,10.4298843 C85.6746172,10.2306059 85.5063455,10.0700418 85.2992419,10.0700418" id="path74" fill="#100F0D"></path>
                        <path d="M61.3307221,10.0953217 C61.2016746,9.98017918 61.0169287,9.97251086 60.871407,10.0500374 C60.2251888,10.5872321 60.1090852,10.836286 59.7558715,11.3472005 C58.6876012,10.2591219 57.931163,9.93275716 56.5479225,9.93275716 C54.9089404,9.93275716 53.6349392,10.9439367 53.6349392,12.9659625 C53.6349392,14.545265 54.4902223,15.6195759 55.709898,16.1464939 C56.7658128,16.6099863 58.2406417,16.6943968 59.3691212,16.8211889 L59.3691212,17.0736161 C59.3691212,17.5367359 59.4054035,18.0846388 59.132011,18.4846273 C58.8960776,18.8427048 58.4408811,18.9897954 58.0398139,18.9897954 C57.2974964,18.9897954 56.6379419,18.6092621 56.4755539,17.8209542 C56.4426056,17.6458968 56.3139503,17.4719964 56.1376376,17.4635632 L54.2519355,17.6678819 C54.0922931,17.7037328 53.9155882,17.8310741 53.9616766,18.0741463 C54.3951037,20.3628376 56.4614332,21.0543598 58.3134025,21.0543598 C59.2594896,21.0543598 60.4979929,20.8017561 61.2444289,20.0857188 C62.1907121,19.2006842 62.0995159,18.0212917 62.0995159,16.7363078 L62.0995159,13.7045537 C62.0995159,12.7925917 62.4786176,12.392309 62.8349692,11.9007909 C62.9583292,11.7235172 62.9861784,11.5134521 62.8277127,11.3834436 C62.4303718,11.0504108 61.7241406,10.437533 61.3360174,10.0910267 L61.3307221,10.0953217 L61.3307221,10.0953217 Z M59.3691212,14.8406819 C59.3691212,14.0822433 59.3871643,13.4497535 59.0047286,12.7762744 C58.6952499,12.2281362 58.2033787,11.8914359 57.6571821,11.8914359 C56.9115306,11.8914359 56.4747694,12.4599511 56.4747694,13.3028982 C56.4747694,14.9599626 57.9617578,15.2616554 59.3691212,15.2616554 L59.3691212,14.8406819 L59.3691212,14.8406819 Z" id="path76" fill="#100F0D"></path>
                        <path d="M35.8204962,10.0953217 C35.6918409,9.98017918 35.5057222,9.97251086 35.3602005,10.0500374 C34.7139822,10.5872321 34.5982709,10.836286 34.244665,11.3472005 C33.176983,10.2591219 32.4201525,9.93275716 31.0361276,9.93275716 C29.3977338,9.93275716 28.1233404,10.9439367 28.1233404,12.9659625 C28.1233404,14.545265 28.979408,15.6195759 30.1990837,16.1464939 C31.2551946,16.6099863 32.7298274,16.6943968 33.8583069,16.8211889 L33.8583069,17.0736161 C33.8583069,17.5367359 33.8949815,18.0846388 33.621589,18.4846273 C33.3850672,18.8427048 32.9294784,18.9897954 32.529588,18.9897954 C31.7872705,18.9897954 31.1269315,18.6092621 30.9651318,17.8209542 C30.931399,17.6458968 30.8033321,17.4719964 30.6272155,17.4635632 L28.7407289,17.6678819 C28.5814788,17.7037328 28.4045777,17.8310741 28.4502739,18.0741463 C28.883701,20.3628376 30.9502266,21.0543598 32.8019999,21.0543598 C33.7492637,21.0543598 34.9867863,20.8017561 35.7334185,20.0857188 C36.6800939,19.2006842 36.5887016,18.0212917 36.5887016,16.7363078 L36.5887016,13.7045537 C36.5887016,12.7925917 36.9679994,12.392309 37.3233704,11.9007909 C37.4473188,11.7235172 37.4753641,11.5134521 37.3172906,11.3834436 C36.9195575,11.0504108 36.212934,10.437533 35.8250069,10.0910267 L35.8204962,10.0953217 Z M33.8583069,14.8406819 C33.8583069,14.0822433 33.8761539,13.4497535 33.4945027,12.7762744 C33.18522,12.2281362 32.6929567,11.8914359 32.1475445,11.8914359 C31.400324,11.8914359 30.963759,12.4599511 30.963759,13.3028982 C30.963759,14.9599626 32.4503551,15.2616554 33.8583069,15.2616554 L33.8583069,14.8406819 L33.8583069,14.8406819 Z" id="path78" fill="#100F0D"></path>
                    </g>
                </g>
            </g>
        </g>
    </g>
</svg>