<?xml version="1.0" encoding="UTF-8"?>
<svg width="98px" height="27px" viewBox="0 0 98 27" version="1.1" xmlns="http://www.w3.org/2000/svg" xmlns:xlink="http://www.w3.org/1999/xlink">
    <!-- Generator: Sketch 46.2 (44496) - http://www.bohemiancoding.com/sketch -->
    <title>Debian</title>
    <desc>Created with Sketch.</desc>
    <defs>
        <polygon id="path-1" points="20.9969974 27 0.0268394737 27 0.0268394737 0.100033099 20.9969974 0.100033099 20.9969974 27"></polygon>
        <polygon id="path-3" points="1.80481498e-17 0.9865 1.80481498e-17 0.124 0.5 0.124 0.5 0.9865 0 0.9865"></polygon>
    </defs>
    <g id="Page-4" stroke="none" stroke-width="1" fill="none" fill-rule="evenodd">
        <g id="logos" transform="translate(-78.000000, -246.000000)">
            <g id="Debian" transform="translate(0.000000, 220.000000)">
                <g id="Page-1" transform="translate(78.000000, 26.000000)">
                    <path d="M85,8.97068215 C85,8.97068215 86.0832697,8.91862603 87.3019959,8.69433962 C88.2862489,8.51320755 89.1751101,8 89.1751101,8 L89.1751101,11.3286889 C89.1751101,11.3286889 89.916877,8.18732463 93.45,8.18732463 C94.214661,8.18732463 97.5182712,8 97.5182712,12.6550556 L97.5182712,22.9321722 C97.5182712,25.2046444 98,26 98,26 C98,26 96.6618433,25.8484761 95.6600382,25.8484761 C94.658233,25.8484761 93.8094365,26 93.8094365,26 C93.8094365,26 94.2129439,24.659313 94.2129439,21.2367683 L94.2129439,14.8948234 C94.2129439,13.6021287 94.4123129,10.7696178 92.0942912,10.7696178 C89.0327854,10.7696178 89.2334899,14.6912433 89.2334899,16.5132075 L89.2334899,22.8797291 C89.2334899,25.0678278 89.5654535,26 89.5654535,26 C89.5654535,26 88.5693719,25.8759555 87.3050484,25.8759555 C86.0403434,25.8759555 85.5030966,26 85.5030966,26 C85.5030966,26 85.9626945,25.301016 85.9626945,21.4517658 L85.9626945,13.4281567 C85.9626945,9.22670537 85,8.97068215 85,8.97068215" id="Fill-1" fill="#231F20"></path>
                    <polygon id="Fill-3" fill="#EB008B" points="67.5 1 70 3.5 67.5 6 65 3.5"></polygon>
                    <path d="M69.3892225,22.715433 L69.3892225,10.6871795 C69.3892225,9.53052733 69.6738701,8 69.6738701,8 C69.6738701,8 68.9362753,8.40058055 67.888946,8.64441219 C66.8416166,8.88824383 65,9.07885825 65,9.07885825 C65,9.07885825 66.0236252,9.40706338 66.0236252,12.5004354 L66.0236252,21.2863087 C66.0236252,25.4227383 65.4055389,26 65.4055389,26 C65.4055389,26 66.7260588,25.8444122 67.8304757,25.8444122 C68.9350901,25.8444122 70,26 70,26 C70,26 69.3892225,25.1198839 69.3892225,22.715433" id="Fill-5" fill="#231F20"></path>
                    <path d="M72.4513285,12.0320819 C72.4513285,12.0320819 72.3888821,11.4986183 72.0626913,10.6109804 C71.7359496,9.72315896 71.4997551,9.42036745 71.4997551,9.42036745 C71.4997551,9.42036745 73.7527856,8 77.172095,8 C81.4948574,8 82.3538631,9.93639759 82.3538631,12.9366027 L82.3538631,21.4188022 C82.3538631,24.5023209 83,24.8915456 83,24.8915456 C83,24.8915456 82.3619444,24.7924502 81.3203747,24.7924502 C80.2788049,24.7924502 79.4251255,24.8915456 79.4251255,24.8915456 C79.4251255,24.8915456 79.3509245,23.5959649 79.3509245,22.7839332 L79.3509245,21.6964529 C79.3509245,21.6964529 78.3830048,25 75.0929962,25 C71.8031713,25 71,22.3444267 71,19.9780652 C71,18.2060925 71.2920289,14.3661456 77.4014938,14.3661456 C78.8438227,14.3661456 79.2769071,14.4588182 79.2769071,14.4588182 L79.2769071,13.2766467 C79.2769071,12.511043 79.3046406,10.4245342 76.7832742,10.4245342 C74.0119383,10.4245342 72.4513285,12.0320819 72.4513285,12.0320819 M77.2828456,16.2562987 L79.3397208,16.2562987 C79.3397208,16.2562987 79.7807028,22.3279108 76.2770907,22.3279108 C75.2942941,22.3279108 74.0633648,21.7858222 74.0633648,19.4581813 C74.0633648,16.5807444 76.3826987,16.2562987 77.2828456,16.2562987" id="Fill-7" fill="#231F20"></path>
                    <path d="M51.1930001,7.68804168 L51.1930001,22.423969 C51.1930001,24.2183597 50.8357894,25.2073775 50.8357894,25.2073775 C50.8357894,25.2073775 52.5525412,26 55.230079,26 C60.5936811,26 63,22.2762919 63,15.7859221 C63,14.3651011 62.9589997,8.29778056 58.3408412,8.29778056 C55.117056,8.29778056 54.2041642,12.0791512 54.2041642,12.0791512 L54.2041642,9.84344199 C54.2041642,8.07950013 54.4559714,2 54.4559714,2 C54.4559714,2 53.7128862,2.47176738 52.3440928,2.85371056 C50.9754808,3.23546343 50,3.25430368 50,3.25430368 C50,3.25430368 51.1930001,3.48095755 51.1930001,7.68804168 M54.2754612,18.8182503 C54.2754612,20.8149358 54.3590946,23.8031131 54.3590946,23.8031131 C54.3590946,23.8031131 55.3782969,23.9740074 55.7866672,23.9740074 C59.4498451,23.9740074 59.7896397,19.5324669 59.7896397,17.3460468 C59.7896397,15.159817 59.6076781,11.2815808 57.1257082,11.2815808 C54.1256105,11.2815808 54.2754612,16.8213745 54.2754612,18.8182503" id="Fill-9" fill="#231F20"></path>
                    <path d="M49.9456132,22.5986324 C49.9456132,22.5986324 49.746195,23.4574894 49.6669292,24.2577087 C49.5878562,25.0577345 49.6235355,25.5241259 49.6235355,25.5241259 C49.6235355,25.5241259 48.5545075,26 45.847126,26 C37.4057967,26 38.0094513,17.8594375 38.0094513,16.7147465 C38.0094513,15.569862 37.9307641,8 44.4170623,8 C49.5814918,8 50,12.4260741 50,15.2619662 C50,17.1414656 49.9469632,17.4071733 49.9469632,17.4071733 L41.4664832,17.4071733 C41.4664832,17.4071733 40.8597428,23.5530899 46.426673,23.5530899 C48.7834334,23.5530899 49.9456132,22.5986324 49.9456132,22.5986324 M41.3850959,15.165011 L46.8069947,15.165011 C46.8069947,15.165011 47.3815274,10.1314669 44.2251657,10.1314669 C41.0421892,10.1314669 41.3850959,15.165011 41.3850959,15.165011" id="Fill-11" fill="#231F20"></path>
                    <path d="M37.5282723,2 C37.5282723,2 37.1678171,4.71863604 37.1678171,8.88144023 L37.1678171,19.0085406 C37.1678171,24.7579468 38,25.861189 38,25.861189 C38,25.861189 37.018761,25.7723347 36.2987953,25.7723347 C35.5786407,25.7723347 34.1466438,25.861189 34.1466438,25.861189 L34.0754218,23.1492266 C34.0754218,23.1492266 33.5058347,26 30.3289931,26 C27.1521515,26 25,22.9696113 25,16.9084524 C25,14.1055383 25.5183904,8.30998896 31.6304477,8.30998896 C33.1181753,8.30998896 34.1228402,8.77523457 34.1228402,8.77523457 L34.1228402,5.85410228 C34.1228402,3.65810486 33.2723323,3.25673518 33.2723323,3.25673518 C33.2723323,3.25673518 34.610437,3.08817898 35.8043974,2.7382914 C36.998169,2.38821314 37.5282723,2 37.5282723,2 L37.5282723,2 Z M34.0219581,11.2097657 C34.0219581,11.2097657 33.1329109,10.628018 31.995248,10.628018 C28.4326363,10.628018 28.3175853,14.638092 28.3175853,16.4649437 C28.3175853,18.2917954 28.5029137,23.1410276 31.5616817,23.1410276 C33.9431793,23.1410276 34.033671,20.8291001 34.033671,17.5256656 L34.0219581,11.2097657 Z" id="Fill-13" fill="#231F20"></path>
                    <path d="M16.3002152,12 C16.3002152,12 16.5,11.8586153 16.5,11.4570916 C16.5,11.0557921 16.4895983,11 16.4002869,11 C16.3106169,11 16.1736011,11.0885055 16.1420373,11.2236164 C16.1223099,11.3080887 16,11.4077974 16,11.4669505 C16,11.5261035 16.1682209,11.5429084 16.1682209,11.624916 C16.1682209,11.8288147 16.3002152,12 16.3002152,12" id="Fill-15" fill="#EB008B"></path>
                    <path d="M13,14.136211 C13,14.2260625 13.204862,14.3190206 13.3911882,14.3974017 C13.577376,14.4757828 13.5423794,14.4117397 13.59937,14.4497354 C13.6563606,14.4872532 13.6765564,14.5367193 13.7219275,14.4583382 C13.7672987,14.3799571 14.0443673,14 13.993878,14 C13.9433887,14 13.8695222,14.1104026 13.6899741,14.1104026 C13.3726524,14.1104026 13.2718122,14.0843553 13.182868,14.0843553 C13.0939239,14.0843553 13,14.1058623 13,14.136211" id="Fill-17" fill="#EB008B"></path>
                    <g id="Group-21">
                        <mask id="mask-2" fill="white">
                            <use xlink:href="#path-1"></use>
                        </mask>
                        <g id="Clip-20"></g>
                        <path d="M11.9833921,27.000019 C11.9833921,27.000019 11.3473132,26.9895613 10.9208658,26.9895613 C10.4946026,26.9895613 10.3669447,26.9631317 10.2602868,26.9631317 C10.1541816,26.9631317 10.0445763,26.9538148 9.76660263,26.8904979 C9.48862895,26.8269908 9.23791842,26.7330613 9.05591842,26.6750683 C8.87410263,26.6170754 8.38023421,26.4449979 8.04497105,26.3341458 C7.70952368,26.2232937 6.81591842,25.9101317 6.28741842,25.6791106 C5.75855,25.4477092 4.96626053,25.0698993 4.30605,24.5188711 C3.64547105,23.9682232 3.16173421,23.5386951 2.37957632,22.5054697 C1.59741842,21.4724345 1.15476053,20.71035 0.839944737,19.9823007 C0.524944737,19.2542514 0.199813158,18.1786246 0.149707895,17.055843 C0.134786842,16.7187232 0.0935236842,15.4664556 0.0935236842,14.5180331 C0.0935236842,13.5690401 0.113786842,13.2598711 0.0986815789,13.0235261 C0.0832078947,12.787181 0.0730763158,12.3787585 0.0730763158,12.1528711 C0.0730763158,11.9271739 0.154865789,10.6441035 0.154865789,10.4011035 C0.154865789,10.3085049 0.0268394737,10.1023923 0.0268394737,10.060181 C0.0268394737,10.0179697 0.523839474,8.36640634 0.666971053,7.9621669 C0.810286842,7.55811761 1.11883947,6.91315986 1.19049737,6.76656127 C1.26215526,6.61996268 1.28260263,6.50378662 1.28260263,6.50378662 C1.28260263,6.50378662 1.33768158,6.67681479 1.40933947,6.67681479 C1.48099737,6.67681479 1.61694474,6.46899085 1.70886579,6.30014577 C1.80115526,6.1313007 1.90855,5.88012465 1.96344474,5.69131479 C2.01870789,5.50231479 2.10160263,5.36199085 2.14157632,5.25113873 C2.18136579,5.14028662 2.27439211,5.0452162 2.31933947,4.94082887 C2.36428684,4.83644155 2.37957632,4.80468803 2.43576053,4.80468803 C2.49212895,4.80468803 2.49618158,4.7678007 2.57797105,4.48487113 C2.65976053,4.20213169 2.77249737,4.10306831 2.83273421,3.99202606 C2.89278684,3.88117394 3.18328684,3.63418099 3.33581316,3.51401197 C3.48797105,3.39365282 3.75157632,3.1519838 3.89894474,3.04759648 C4.04612895,2.94320915 4.38452368,2.60761056 4.55823421,2.42393451 C4.73231316,2.24025845 4.77836579,2.1664838 4.77836579,2.1664838 C4.77836579,2.1664838 4.80378684,2.23094155 4.80378684,2.29844155 C4.80378684,2.36575141 4.80783947,2.43857535 4.89478684,2.34483592 C4.98173421,2.2507162 5.24533947,2.00904718 5.42862895,1.87309648 C5.61155,1.73695563 5.91218158,1.47950493 6.18610263,1.34336408 C6.46020789,1.20722324 6.82512895,1.03932887 7.21160263,0.892730282 C7.59807632,0.745941549 8.05897105,0.582420423 8.30857632,0.446279577 C8.55799737,0.310138732 8.87815526,0.179321831 8.87815526,0.179321831 C8.87815526,0.179321831 8.63610263,0.431448592 8.84352368,0.384103521 C9.05094474,0.33656831 9.65515526,0.115814789 9.91489211,0.115814789 C10.0569184,0.115814789 10.1593395,0.100033099 10.1593395,0.100033099 C10.1593395,0.100033099 9.93036579,0.241497887 9.81376053,0.304814789 C9.69697105,0.368321831 9.58478684,0.456737324 9.58478684,0.456737324 C9.58478684,0.456737324 10.0734974,0.33656831 10.1797868,0.33656831 C10.2860763,0.33656831 10.3383921,0.488490845 10.5507868,0.488490845 C10.76355,0.488490845 11.0437342,0.430497887 11.0437342,0.430497887 C11.0437342,0.430497887 10.8698395,0.514920423 10.7891553,0.514920423 C10.7082868,0.514920423 10.6766026,0.562455634 10.5905763,0.567589437 C10.5049184,0.57291338 10.5049184,0.64041338 10.6316553,0.645737324 C10.7583921,0.651061268 11.1050763,0.661519014 11.2318132,0.661519014 C11.5059184,0.661519014 11.5313395,0.440955634 11.7695237,0.440955634 C11.9016026,0.440955634 12.45055,0.645737324 12.45055,0.645737324 L12.3698658,0.362997887 C12.3698658,0.362997887 13.2234974,0.71019507 13.5178658,0.756589437 C13.8124184,0.802983803 13.95555,0.850519014 14.2296553,0.991983803 C14.5037605,1.13325845 15.0821816,1.44356831 15.0821816,1.44356831 C15.0821816,1.44356831 15.3225763,1.45935 15.3929447,1.43311056 C15.4636816,1.40649085 15.5043921,1.25475845 15.6467868,1.25475845 C15.7888132,1.25475845 16.2712605,1.41732887 16.2712605,1.54282183 C16.2712605,1.66831479 16.2957605,1.72744859 16.3622605,1.76870915 C16.4287605,1.80977958 17.0289184,2.20869507 17.0289184,2.20869507 C17.0289184,2.20869507 17.1096026,2.15697676 17.0086553,2.07787817 C16.9073395,1.99858944 16.6628921,1.71052606 16.6628921,1.71052606 C16.6628921,1.71052606 17.0646553,1.9774838 17.2324711,2.05677254 C17.4001026,2.13587113 17.8621026,2.45987113 18.1566553,2.66978662 C18.4510237,2.87989225 18.8570237,3.26701901 19.1217342,3.55622324 C19.3866289,3.84542746 19.9296816,4.52613169 20.1586553,5.14561056 C20.3876289,5.76508944 20.6718658,6.67149085 20.6718658,6.67149085 C20.6718658,6.67149085 20.3620237,6.09004014 20.3211289,6.10068803 C20.2802342,6.11114577 20.4837868,6.87208944 20.5195237,6.97647676 C20.5552605,7.08105423 20.5195237,7.08105423 20.4837868,7.09683592 C20.4478658,7.11280775 20.4121289,7.13790634 20.4734711,7.22765282 C20.5348132,7.3173993 20.7087079,7.88306831 20.7741026,8.12473732 C20.8394974,8.36640634 20.9969974,9.17374437 20.9969974,9.17374437 C20.9969974,9.17374437 20.8457605,8.65675141 20.7689447,8.31468803 C20.6923132,7.97281479 20.5499184,7.56838521 20.4478658,7.2964838 C20.29055,6.87627254 19.9153132,6.32011056 19.9153132,6.32011056 C19.9153132,6.32011056 19.8733132,6.63042042 19.7872868,6.63042042 C19.7014447,6.63042042 19.4479711,6.28949789 19.3663658,6.28949789 C19.2843921,6.28949789 19.3549447,6.44046972 19.4468658,6.83919507 C19.5391553,7.2383007 19.7474974,7.53815282 19.7220763,7.2964838 C19.6964711,7.05462465 19.6515237,6.87627254 19.7474974,7.0493007 C19.8436553,7.22251901 19.9549184,7.44175141 19.9549184,7.5157162 C19.9549184,7.58968099 19.9602605,7.86310352 20.0011553,7.9621669 C20.04205,8.06142042 20.19955,8.65561056 20.1687868,8.69135704 C20.1380237,8.72729366 20.0676553,8.65979366 20.0164447,8.51832887 C19.9654184,8.37705423 19.9101553,8.26620211 19.8795763,8.26620211 C19.8488132,8.26620211 19.7618658,8.25669507 19.8436553,8.52897676 C19.9256289,8.80125845 19.9948921,9.04749085 20.0982342,9.15796268 C20.2015763,9.26824437 20.2408132,9.2572162 20.2015763,9.30132887 C20.1623395,9.34582183 20.1728395,9.34582183 20.1444711,9.30893451 C20.1157342,9.27204718 20.0589974,9.26501197 20.0589974,9.52246268 C20.0589974,9.78010352 20.1157342,10.3509063 20.1802079,10.3509063 C20.2444974,10.3509063 20.2909184,10.1778782 20.3833921,10.1778782 C20.4762342,10.1778782 20.4191289,10.196512 20.3692079,10.4210683 C20.3191026,10.6454345 20.2444974,10.6859345 20.1907079,10.8369063 C20.1372868,10.9878782 20.0158921,11.0723007 20.0158921,11.3597937 C20.0158921,11.6472866 20.0982342,11.8680401 20.0982342,11.8680401 C20.0982342,11.8680401 20.0052079,11.6948218 19.9766553,11.573512 C19.9481026,11.452012 19.8911816,11.4483993 19.8911816,11.396681 C19.8911816,11.2938148 19.8517605,11.3307021 19.8517605,11.4445965 C19.8517605,11.6324556 19.8305763,11.6328359 19.8305763,11.6657303 C19.8305763,11.6986246 19.8876816,11.6611669 19.8876816,11.7425472 C19.8876816,11.8241176 19.91605,11.7906528 19.91605,11.871843 L19.91605,12.0741528 C19.91605,12.1038148 19.8305763,11.9672937 19.8305763,11.8642373 C19.8305763,11.7613711 19.8445763,11.6470965 19.7876553,11.7134556 C19.73055,11.7798148 19.7054974,11.842181 19.7054974,11.842181 L19.7054974,12.3321739 C19.7054974,12.5417092 19.6590763,12.862857 19.5271816,13.0503359 C19.3952868,13.2378148 19.3028132,13.3372585 19.2562079,13.4218711 C19.2097868,13.5068641 18.9909447,13.7464415 18.9776816,13.937343 C18.9599974,14.1953641 18.9776816,14.4235331 18.9776816,14.4235331 L18.7175763,14.0223359 C18.7175763,14.0223359 18.5178921,14.2875824 18.4143658,14.4678359 C18.3106553,14.6480894 18.2393658,14.7697796 18.2393658,14.8102796 C18.2393658,14.8507796 18.2426816,14.8507796 18.2964711,14.8507796 C18.3498921,14.8507796 18.4961553,14.7732021 18.4961553,14.8507796 C18.4961553,14.928357 18.2179974,15.4877514 18.2179974,15.4067514 C18.2179974,15.3772796 18.3602079,15.2044415 18.2892868,15.2044415 C18.2179974,15.2044415 18.1572079,15.2409486 18.1929447,15.1749697 C18.2286816,15.1086106 18.3642605,14.9357725 18.3642605,14.9357725 C18.3642605,14.9357725 18.2067605,14.9762725 18.0641816,15.1234415 C17.9219711,15.2706106 17.8363132,15.394012 17.7606026,15.4721599 C17.6845237,15.550688 17.6740237,15.5617162 17.5874447,15.6398641 C17.50105,15.7183923 17.3254974,15.8589063 17.2181026,15.9589204 C17.1107079,16.0591246 16.5814711,16.4511951 16.2880237,16.6786035 C15.9943921,16.9054415 15.3736026,17.3705261 14.7133921,17.5218782 C14.0529974,17.6736106 13.7492342,17.6815965 13.5372079,17.6815965 C13.3248132,17.6815965 12.7169184,17.6682866 11.4935763,17.2275401 C10.8880763,17.0092585 10.74605,16.9584908 10.74605,16.9406176 C10.74605,16.9221739 10.7771816,16.9335824 10.7771816,16.9166599 C10.7771816,16.8997373 10.6583658,16.8162655 10.4664184,16.6601599 C10.2742868,16.5040542 9.76973421,16.0927796 9.62531316,15.9792655 C9.48070789,15.8655613 9.11873421,15.5607655 9.01281316,15.4746317 C8.90707632,15.3884979 8.45281316,14.933681 8.45281316,14.933681 L8.54455,15.2363852 C8.54455,15.2363852 8.51194474,15.2154697 8.44120789,15.0738148 C8.37065526,14.9321599 8.18460263,14.5931387 8.09176053,14.4130754 C7.99873421,14.2328218 7.77989211,13.8595754 7.77989211,13.419019 C7.77989211,12.3454838 7.92449737,11.531681 7.92449737,11.1740261 C7.92449737,11.0665965 7.95415526,11.014688 8.05362895,10.9213289 C8.15328684,10.8277796 8.20541842,10.7135049 8.24870789,10.4583359 C8.29144474,10.203357 8.36236579,9.73789225 8.50660263,9.56695563 C8.69247105,9.34734296 8.94852368,9.21652606 8.98499737,9.13210352 C9.02110263,9.04787113 9.30699737,8.47706831 9.40647105,8.37420211 C9.50594474,8.27152606 9.62641842,8.12663873 9.72589211,8.04715986 C9.82555,7.96749085 9.90918158,7.92508944 10.0338921,7.83173028 C10.1586026,7.73837113 10.4351026,7.60755423 10.6209711,7.5301669 C10.8066553,7.45296972 11.5341026,7.38756127 11.7336026,7.38756127 L12.6918658,7.38756127 C12.8707342,7.38756127 13.3060237,7.45981479 13.6164184,7.6516669 C13.9269974,7.84332887 14.1351553,8.04202606 14.2598658,8.15668099 C14.3845763,8.27152606 14.57505,8.51262465 14.6474447,8.60123028 C14.7198395,8.69002606 14.8672079,8.87959648 14.8672079,8.87959648 C14.8672079,8.87959648 14.6586816,8.70904014 14.4798132,8.55464577 C14.3007605,8.40025141 13.9946026,8.13557535 13.7273132,8.00704014 C13.4602079,7.87869507 12.9709447,7.74293451 12.5968132,7.74293451 C12.2226816,7.74293451 11.8669711,7.80377958 11.5519711,7.94391338 C11.2373395,8.08442746 10.81605,8.25992746 10.4012079,8.49132887 C9.98636579,8.72273028 9.68297105,8.8936669 9.43594474,9.13457535 C9.18873421,9.37529366 8.83320789,9.90882887 8.71328684,10.3039415 C8.59299737,10.6992444 8.55449737,10.8909063 8.55449737,11.0453007 L8.55449737,11.5622937 C8.55449737,11.6955824 8.57476053,11.7307585 8.57476053,11.8708923 L8.57476053,12.2123852 C8.57476053,12.301181 8.59962895,12.2686669 8.60883947,12.2217021 C8.61768158,12.1749275 8.67662895,12.2146669 8.67662895,12.1701739 C8.67662895,12.125681 8.72433947,11.9737585 8.72433947,12.1467866 C8.72433947,12.3198148 8.75473421,13.4680754 8.88423421,14.1269134 C9.01391842,14.7857514 9.41439211,15.5113289 10.12305,16.0695824 C10.8315237,16.6278359 11.7026553,17.0185754 12.2866026,17.0185754 C13.0274974,17.0185754 14.4554974,16.3656317 14.4554974,16.3656317 C14.4554974,16.3656317 14.4671026,16.4323711 14.5168395,16.4323711 C14.5667605,16.4323711 14.7316289,16.375519 14.9781026,16.291857 C15.2242079,16.2078148 15.3292079,16.1943148 15.3841026,16.0861246 C15.4389974,15.9779345 15.4025237,15.9724204 15.4758395,15.8969345 C15.5491553,15.8210683 15.9210763,15.4913641 15.9553395,15.49935 C15.9892342,15.5075261 15.9474184,15.591188 15.8346816,15.6805542 C15.7221289,15.7697303 15.5675763,15.8699345 15.7482868,15.8699345 C16.0153921,15.8699345 16.5368921,15.3451458 16.8879974,15.0125894 C17.2389184,14.6800331 17.3779974,14.5475049 17.4671553,14.4906528 C17.5561289,14.4338007 17.5795237,14.3474768 17.6112079,14.2579204 C17.6425237,14.1689345 17.6896816,14.0419204 17.6451026,14.0419204 C17.6005237,14.0419204 17.4982868,14.0470542 17.5377079,13.9525542 C17.5769447,13.8578641 17.7237605,13.4927937 17.7709184,13.4927937 C17.8180763,13.4927937 17.8862342,13.4684556 17.91755,13.4197796 C17.9492342,13.3711035 18.1507605,13.3737655 18.1507605,13.2520754 C18.1507605,13.1303852 18.3053132,12.830343 18.3998132,12.6031246 C18.4939447,12.3759063 18.5307868,12.2893923 18.5307868,12.2110542 L18.5307868,11.6052655 L18.2791553,12.2352021 C18.2791553,12.2352021 18.5462605,11.3645472 18.5462605,10.8831106 C18.5462605,10.6209063 18.4677868,10.0312796 18.4677868,9.76375141 C18.4677868,9.49584296 18.4887868,9.39582887 18.4887868,9.25531479 C18.4887868,9.11461056 18.4967079,9.03893451 18.4626289,9.03893451 C18.42855,9.03893451 18.4023921,9.01992042 18.4023921,8.94690634 C18.4023921,8.87389225 18.3264974,8.04906127 18.3053132,7.86785704 C18.2844974,7.68665282 18.1586816,6.90517394 17.97005,6.53744155 C17.8538132,6.31079366 17.7578395,6.09935704 17.4303132,5.61259648 C17.1029711,5.12583592 16.8957342,4.87713169 16.5238132,4.53088521 C16.1517079,4.18482887 15.9761553,4.03613873 15.3997605,3.70624437 C14.82355,3.37615986 14.3361289,3.13296972 14.0716026,3.02211761 C13.8068921,2.91107535 13.1861026,2.66218099 12.8427342,2.59734296 C12.49955,2.53250493 11.8524184,2.45949085 11.4044184,2.45949085 C10.9564184,2.45949085 10.5870763,2.51900493 10.4349184,2.57300493 C10.2831289,2.62700493 10.25955,2.65419507 10.2228921,2.65419507 C10.1547342,2.65419507 10.2149711,2.72720915 10.1598921,2.72720915 C10.0932079,2.72720915 9.97918158,2.75706127 9.84028684,2.80573732 C9.70157632,2.85441338 9.57318158,2.92723732 9.57318158,2.92723732 C9.57318158,2.92723732 9.53118158,2.8758993 9.81928684,2.78406127 C10.0377605,2.71427958 10.1624711,2.68937113 10.1624711,2.65685704 C10.1624711,2.6245331 10.0996553,2.62985704 10.0681553,2.62985704 C10.0368395,2.62985704 9.65165526,2.68119507 9.30055,2.72454718 C8.94962895,2.76770915 8.61933947,2.85973732 8.61933947,3.00044155 C8.61933947,3.14114577 8.55928684,3.23830775 8.18441842,3.37615986 C7.80973421,3.51401197 7.51370789,3.54937817 7.46655,3.59520211 C7.41939211,3.6412162 7.33557632,3.77906831 7.33557632,3.77906831 C7.33557632,3.77906831 7.41883947,3.78401197 7.73383947,3.66289225 C8.13468158,3.50868803 8.18441842,3.43035 8.18441842,3.48435 C8.18441842,3.53854014 7.72849737,3.86843451 7.26483947,3.86843451 C7.03678684,3.86843451 6.89807632,3.82242042 6.79326053,3.82242042 C6.68844474,3.82242042 6.57847105,3.88744859 6.19605,4.24434296 C5.81326053,4.60123732 5.70070789,4.74175141 5.70070789,4.74175141 C5.70070789,4.74175141 5.73736579,4.80145563 5.80533947,4.80145563 C5.87368158,4.80145563 6.05973421,4.6308993 6.11481316,4.55522324 C6.16970789,4.47954718 6.27765526,4.42992042 6.12789211,4.59572324 C5.87368158,4.87713169 5.91033947,4.90146972 5.86594474,4.90146972 L5.60123421,4.90146972 C5.46233947,4.90146972 4.90160263,4.92580775 4.26773421,5.59909648 C3.63368158,6.27238521 3.09376053,6.86201197 2.79257632,7.32709648 C2.49120789,7.79218099 2.47555,7.8625331 2.40481316,7.94106127 C2.33426053,8.0193993 2.31326053,8.02757535 2.31326053,8.02757535 L2.58552368,8.04906127 C2.58552368,8.04906127 2.40223421,8.51167394 2.25541842,8.8657162 C2.10878684,9.22013873 1.99347105,9.2633007 1.86765526,9.49869507 C1.74202368,9.7338993 1.62928684,10.0124556 1.59778684,10.5047303 C1.56647105,10.9968148 1.48523421,11.6674415 1.44323421,12.0134979 C1.40123421,12.3597444 1.30176053,12.908681 1.26252368,13.2602514 C1.22328684,13.6118218 1.21536579,13.8063359 1.21536579,14.0198641 C1.21536579,14.2337725 1.25994474,14.5769768 1.46147105,14.8882373 C1.66355,15.1993077 1.70518158,15.2533077 1.70518158,15.3181458 C1.70518158,15.3829838 1.67644474,15.4424979 1.67644474,15.6128641 C1.67644474,15.7834204 1.65562895,16.0022725 1.65562895,16.0022725 C1.65562895,16.0022725 1.75086579,16.0823218 1.78641842,16.2294908 C1.82326053,16.380843 1.93581316,16.5215472 1.93581316,16.5215472 L1.77591842,16.5215472 C1.77591842,16.5215472 2.27126053,18.108843 2.39173421,18.108843 C2.51220789,18.108843 2.56728684,17.3787021 2.70876053,17.3787021 C2.78465526,17.3787021 2.85005,17.5218782 2.92355,17.6682866 C2.99705,17.8141246 3.16523421,18.195357 3.25383947,18.4170613 C3.45555,18.9230261 3.55244474,19.0365401 3.49460263,19.0310261 C3.43694474,19.0257021 3.22491842,18.9471739 3.13576053,18.8039979 C3.04660263,18.6608218 3.03370789,18.6119556 3.03370789,18.7769979 C3.03370789,18.94185 3.08602368,18.9365261 3.08602368,19.012012 C3.08602368,19.0878782 3.17278684,19.134843 3.25107632,19.3150965 C3.34262895,19.5259627 3.48428684,19.7151528 3.56294474,19.8261951 C3.64141842,19.9370472 3.72523421,19.9965613 3.68065526,20.0478993 C3.63626053,20.0992373 3.60991842,20.0992373 3.60991842,20.1344134 C3.60991842,20.1695894 3.54194474,20.1669275 3.54452368,20.2074275 C3.54710263,20.2479275 3.69649737,20.5183077 3.83262895,20.6183218 C3.96894474,20.7185261 4.09218158,20.8103641 4.09218158,20.8103641 C4.09218158,20.8103641 3.79855,20.6749838 3.76447105,20.6749838 C3.73057632,20.6749838 3.62833947,20.659012 3.69391842,20.7753782 C3.75931316,20.8917444 4.36978684,21.7030754 4.54018158,21.9190754 C4.71039211,22.1356458 4.96183947,22.5250542 4.96183947,22.5250542 L5.09539211,22.2949838 L5.09539211,22.5898923 C5.09539211,22.6465542 5.30502368,22.9928007 5.33394474,23.0441387 C5.36286579,23.0956669 5.38110263,23.1253289 5.41518158,23.1684908 C5.44926053,23.211843 5.50433947,23.260519 5.53823421,23.3091951 C5.57231316,23.3578711 5.63789211,23.4445754 5.68505,23.5065613 C5.73202368,23.5687373 5.72962895,23.6227373 5.82118158,23.6227373 C5.91273421,23.6227373 5.93133947,23.5959275 6.04149737,23.5959275 C6.15128684,23.5959275 6.14889211,23.5930754 6.17505,23.6662796 C6.20120789,23.7392937 6.29128684,23.9064275 6.41599737,24.0094838 C6.44215526,24.03135 6.49723421,24.1176739 6.53647105,24.1475261 C6.57589211,24.177188 6.61770789,24.2015261 6.64386579,24.2393641 C6.67020789,24.2772021 6.75383947,24.3395683 6.75383947,24.3395683 C6.75383947,24.3395683 6.80633947,24.3692303 6.85607632,24.3988923 C6.90599737,24.4289345 6.98962895,24.4964345 7.04986579,24.4964345 C7.11028684,24.4964345 7.22541842,24.4854063 7.17844474,24.5451106 C7.13110263,24.6046246 6.94799737,24.8128289 6.98962895,24.8236669 C7.03162895,24.8341246 7.63418158,25.0210331 7.63418158,25.0913852 C7.63418158,25.1315049 7.59236579,25.1102092 7.59236579,25.1858852 C7.59236579,25.2615613 7.82557632,25.3130894 7.92505,25.3642373 C8.02452368,25.4157655 8.48578684,25.6157937 8.42297105,25.5429697 C8.35997105,25.4699556 8.23157632,25.2130754 8.23949737,25.1940613 C8.24741842,25.1750472 8.52244474,25.5022796 8.59576053,25.5403077 C8.66907632,25.5779556 8.71623421,25.6808218 8.78181316,25.7699979 C8.84739211,25.8593641 8.96786579,26.0432303 9.14341842,26.1542725 C9.31897105,26.2651246 9.52049737,26.4271246 10.4717605,26.730019 C10.7069974,26.8051246 10.9249184,26.743519 11.15555,26.7895331 C11.3861816,26.8355472 11.9833921,27.000019 11.9833921,27.000019" id="Fill-19" fill="#EB008B" mask="url(#mask-2)"></path>
                    </g>
                    <path d="M15,12.9055914 C15,12.8698704 15.0218051,12.8702012 15.0218051,12.8293537 C15.0218051,12.7885061 15.1890406,12.6094054 15.3477436,12.4420463 C15.5066363,12.275018 15.6245734,12.1314728 15.6245734,12.1314728 C15.6245734,12.1314728 15.5508153,12.3780464 15.4302237,12.5068732 C15.3096322,12.6355346 15.0824801,12.9007955 15.0959424,12.908072 C15.1097838,12.9153485 15.2244975,12.8702012 15.3860447,12.7957826 C15.5477816,12.7216948 15.5824801,12.7096224 15.7150171,12.5450747 C15.8959044,12.3201652 16,12 16,12 C16,12 15.8902162,12.4972814 15.7313235,12.6907697 C15.5726204,12.884258 15.5834281,12.8315035 15.5339401,12.9153485 C15.4850209,12.9988626 15.4520288,13.0325991 15.4628366,12.9608265 C15.4740235,12.8888885 15.4408419,12.8364648 15.3778915,12.8364648 C15.2356845,12.8364648 15.0767918,12.9896017 15.0767918,12.9487541 C15.0767918,12.8794622 15,12.9413123 15,12.9055914" id="Fill-22" fill="#EB008B"></path>
                    <path d="M20.4338754,12 C20.3748357,12 20.4027812,12.0492861 20.4027812,12.1126539 C20.4027812,12.1760217 20.0288626,12.9014581 20.0072147,12.950517 C19.9847795,12.9991217 20.0123314,13.0590826 20.1229326,12.873976 C20.2331402,12.6890964 20.5,12.2225822 20.5,12.0942568 C20.5,12.030889 20.494096,12 20.4338754,12" id="Fill-24" fill="#EB008B"></path>
                    <path d="M20.9759802,12 C20.9343913,12 20.900744,12.1773149 20.8574832,12.4905713 C20.8142224,12.8038278 20.7812021,12.9946524 20.7224761,13.2036307 C20.6637501,13.4126091 20.5552846,13.7782156 20.4785856,13.9736842 C20.4018865,14.1693639 20,15 20,15 C20,15 20.2267534,14.6561357 20.4037674,14.273642 C20.5805723,13.8909372 20.6741996,13.5895018 20.7258199,13.4126091 C20.7774403,13.2357163 20.8677237,12.8276808 20.8844428,12.6826625 C20.901162,12.5376442 20.9444228,12.2362088 20.9709644,12.123065 C20.997715,12.0101323 21.017778,12 20.9759802,12" id="Fill-26" fill="#EB008B"></path>
                    <g id="Group-30" transform="translate(0.000000, 8.000000)">
                        <mask id="mask-4" fill="white">
                            <use xlink:href="#path-3"></use>
                        </mask>
                        <g id="Clip-29"></g>
                        <path d="M0.0630730861,0.9865 C0.0630730861,0.9865 0.30469988,0.746166667 0.369592225,0.475333333 C0.434484569,0.204333333 0.499975,0.124 0.499975,0.124 C0.499975,0.124 -2.5e-05,0.4435 -2.5e-05,0.542833333 C-2.5e-05,0.700333333 0.11809701,0.642166667 0.11809701,0.744333333 C0.11809701,0.930333333 0.0630730861,0.9865 0.0630730861,0.9865" id="Fill-28" fill="#EB008B" mask="url(#mask-4)"></path>
                    </g>
                    <path d="M1,6.46666614 C1,6.54768043 1.17959589,6.4733379 1.3163381,6.32655907 C1.45346988,6.17978024 1.52632114,6.0677899 1.49125904,6.03252485 C1.45658651,5.99821292 1.44489915,5.97104931 1.38373525,6.05968847 C1.32335052,6.14880419 1.12076947,6.33418395 1.07674705,6.36134756 C1.03233505,6.38803462 1,6.38565185 1,6.46666614" id="Fill-31" fill="#EB008B"></path>
                    <path d="M1,6.99861733 C1.01230901,7.01103874 1.10651058,6.93711621 1.17785257,6.88318912 C1.24919456,6.82926202 1.28587038,6.7162575 1.33033352,6.55599103 C1.37529907,6.3954216 1.50416682,6.1221506 1.49989635,6.03610962 C1.49612829,5.95037161 1.39765625,6.03883628 1.36927017,6.08034196 C1.34063289,6.1221506 1.263262,6.16244444 1.23286629,6.21879522 C1.20247058,6.275146 1.09369917,6.35876329 1.09369917,6.28514372 C1.09369917,6.21152415 1.04220231,6.16789774 1.09369917,6.41784073 C1.11605634,6.52630083 1.06531309,6.65748303 1.06531309,6.76806386 C1.06531309,6.93469252 1,6.99861733 1,6.99861733" id="Fill-33" fill="#EB008B"></path>
                    <path d="M8.1097842,15 L8,15.2246815 C8,15.2246815 8.15943851,15.3417836 8.30379216,15.4781881 C8.4477268,15.6142067 8.55834905,15.7343971 8.60297507,15.7695277 C8.6478106,15.804787 8.81374398,15.9009137 8.86654096,15.931283 C8.91933794,15.9619097 9,16 9,16 C9,16 8.8495705,15.8067173 8.77833648,15.7314374 C8.70668343,15.6561575 8.61093652,15.5740574 8.46637335,15.439197 C8.21852085,15.2075666 8.1097842,15 8.1097842,15" id="Fill-35" fill="#EB008B"></path>
                    <path d="M9,15 C9,15 9.21955216,15.3278562 9.29973978,15.4521554 C9.37973464,15.5764547 9.64882578,15.9934274 9.81151412,16.1991108 C9.97458798,16.4049874 10.2084043,16.6667311 10.412343,16.8198338 C10.6164744,16.9729364 11.2296399,17.3437077 11.4137244,17.4335975 C11.5976162,17.5236806 11.8846339,17.6354147 12.1783982,17.7427025 C12.4721624,17.849797 12.6520063,17.914363 12.7817329,17.9416199 C12.9114595,17.9682969 13.2836766,18 13.3665628,18 C14.1456934,18 15,17.6220762 15,17.6220762 C15,17.6220762 14.4066887,17.6421806 14.1283452,17.6421806 C13.8500016,17.6421806 13.1684068,17.6095109 12.6589456,17.4107868 C12.1498699,17.211676 12.0667909,17.1529093 11.9771581,17.0945293 C11.8873325,17.0357626 11.5394031,16.7956698 11.5394031,16.7239513 C11.5394031,16.6526194 11.5719793,16.6526194 11.5719793,16.6526194 C11.5719793,16.6526194 11.5052848,16.6311618 11.5052848,16.726851 C11.5052848,16.7912237 11.5251389,16.811328 11.5251389,16.811328 C11.5251389,16.811328 11.4632634,16.8269863 11.0654095,16.6019718 C10.2569795,16.1445969 9.8144055,15.5078291 9.8144055,15.5078291 C9.8144055,15.5078291 9.8676069,15.7195051 10.1555884,16.0413686 C10.4437626,16.3636188 10.6916503,16.5453315 10.6916503,16.5453315 C10.6916503,16.5453315 10.3151926,16.3846897 10.2053201,16.2947999 C10.0956404,16.2047168 9.83464516,15.9083704 9.71339994,15.7440557 C9.59215472,15.5793543 9.47958364,15.4363039 9.44527259,15.3806302 C9.41096154,15.3249565 9.37375912,15.2799149 9.34233945,15.2391262 C9.18967456,15.0402088 9,15 9,15" id="Fill-37" fill="#EB008B"></path>
                    <path d="M11,0.0315 C11,0.0315 11.215571,0 11.4967394,0 C11.7779078,0 12.139851,0.047 11.9446023,0.15 C11.7496109,0.2525 11.6088981,0.3715 11.6088981,0.3715 C11.6088981,0.3715 11.4481202,0.458 11.4481202,0.3635 C11.4481202,0.2685 11.613014,0.474 11.613014,0.2685 C11.613014,0.126 11,0.0315 11,0.0315" id="Fill-39" fill="#EB008B"></path>
                    <path d="M11,0.174246193 C11,0.229746193 11.2426398,0.158746193 11.2426398,0.221746193 C11.2426398,0.284746193 11.2945121,0.253246193 11.4238517,0.205746193 C11.5535326,0.158746193 12.1725882,-0.0072538072 11.9534958,0.000246192797 C11.7344033,0.0082461928 11.5351043,0.0872461928 11.375392,0.0952461928 C11.2156798,0.103246193 11,0.119246193 11,0.174246193" id="Fill-41" fill="#EB008B"></path>
                    <path d="M12.0127811,0.0764137065 C12.0629496,0.107913706 12.344892,0.147913706 12.3521562,0.107913706 C12.3594204,0.0684137065 12.5968695,0.0604137065 12.4547632,0.0134137065 C12.312657,-0.0340862935 12.3580584,0.0604137065 12.212093,0.0529137065 C12.0665817,0.0449137065 11.9626126,0.0449137065 12.0127811,0.0764137065" id="Fill-43" fill="#EB008B"></path>
                </g>
            </g>
        </g>
    </g>
</svg>