<?xml version="1.0" encoding="UTF-8"?>
<svg width="117px" height="28px" viewBox="0 0 117 28" version="1.1" xmlns="http://www.w3.org/2000/svg" xmlns:xlink="http://www.w3.org/1999/xlink">
    <!-- Generator: Sketch 46.2 (44496) - http://www.bohemiancoding.com/sketch -->
    <title>docker (1)</title>
    <desc>Created with Sketch.</desc>
    <defs>
        <polygon id="path-1" points="0 0.0389881612 116.10382 0.0389881612 116.10382 27.2917128 0 27.2917128"></polygon>
        <polygon id="path-3" points="0 0.0389881612 116.10382 0.0389881612 116.10382 27.2917128 0 27.2917128"></polygon>
        <polygon id="path-5" points="0 0.0389881612 116.10382 0.0389881612 116.10382 27.2917128 0 27.2917128"></polygon>
        <polygon id="path-7" points="0 0.0389881612 116.10382 0.0389881612 116.10382 27.2917128 0 27.2917128"></polygon>
        <polygon id="path-9" points="0 0.0389881612 116.10382 0.0389881612 116.10382 27.2917128 0 27.2917128"></polygon>
        <polygon id="path-11" points="0 0.0389881612 116.10382 0.0389881612 116.10382 27.2917128 0 27.2917128"></polygon>
        <polygon id="path-13" points="0 0.0389881612 116.10382 0.0389881612 116.10382 27.2917128 0 27.2917128"></polygon>
        <polygon id="path-15" points="0 0.0389881612 116.10382 0.0389881612 116.10382 27.2917128 0 27.2917128"></polygon>
        <polygon id="path-17" points="0 0.0389881612 116.10382 0.0389881612 116.10382 27.2917128 0 27.2917128"></polygon>
        <polygon id="path-19" points="0 0.0389881612 116.10382 0.0389881612 116.10382 27.2917128 0 27.2917128"></polygon>
        <polygon id="path-21" points="0 0.0389881612 116.10382 0.0389881612 116.10382 27.2917128 0 27.2917128"></polygon>
        <polygon id="path-23" points="0 0.0389881612 116.10382 0.0389881612 116.10382 27.2917128 0 27.2917128"></polygon>
        <polygon id="path-25" points="0 0.0389881612 116.10382 0.0389881612 116.10382 27.2917128 0 27.2917128"></polygon>
    </defs>
    <g id="Page-4" stroke="none" stroke-width="1" fill="none" fill-rule="evenodd">
        <g id="logos" transform="translate(-69.000000, -25.000000)">
            <g id="docker-(1)" transform="translate(1.000000, 0.000000)">
                <g id="logo" transform="translate(68.000000, 25.000000)">
                    <g id="Clipped">
                        <mask id="mask-2" fill="white">
                            <use xlink:href="#path-1"></use>
                        </mask>
                        <g id="a"></g>
                        <path d="M27.9866768,8.64562475 L32.3260592,8.64562475 L32.3260592,13.0434893 L34.5201179,13.0434893 C35.5338101,13.0434893 36.574794,12.8651185 37.5348775,12.5415168 C38.0449231,12.3742041 38.5362108,12.1543659 39.0008323,11.8855409 C38.3877435,11.0931066 38.0748635,10.0920855 37.9832413,9.10471034 C37.8584792,7.76156819 38.1304217,6.01392386 39.0476181,4.96221822 L39.5037796,4.43977686 L40.0466898,4.87352015 C41.4161489,5.96421396 42.5662997,7.48670165 42.7690381,9.22362424 C44.4162879,8.74309515 46.3510754,8.85713552 47.8043591,9.68758335 L48.3989286,10.0287298 L48.0860486,10.6359704 C46.8579215,13.0132735 44.2895764,13.7501498 41.7797135,13.6185647 C38.0212548,22.8987218 29.843488,27.2917128 19.9258745,27.2917128 C14.8028301,27.2917128 10.1018326,25.3920147 7.42627,20.8849832 L7.38240832,20.8109057 L6.99252671,20.0243196 C6.08800137,18.0398222 5.78681783,15.8662322 5.99053097,13.6945916 L6.05193732,13.0434893 L9.76263556,13.0434893 L9.76263556,8.64562475 L14.1010432,8.64562475 L14.1010432,4.34230645 L22.7788332,4.34230645 L22.7788332,0.0389881612 L27.9857021,0.0389881612 L27.9857021,8.64562475 L27.9866768,8.64562475 Z" id="Shape" fill="#394D54" fill-rule="nonzero" mask="url(#mask-2)"></path>
                    </g>
                    <path d="M42.044833,10.2733805 C42.3362695,8.0296118 40.6441833,6.26832162 39.5944271,5.43202556 C38.3848194,6.81902939 38.1967015,10.4517513 40.0934756,11.9820366 C39.034947,12.9148284 36.8048242,13.7608715 34.5201179,13.7608715 L6.71181195,13.7608715 C6.48957943,16.1255035 6.90870216,18.3029923 7.86488682,20.1676011 L8.18069092,20.7417018 C8.38147995,21.0789494 8.59981366,21.4045005 8.83666674,21.7164058 C9.97999456,21.7895086 11.0336496,21.8138762 11.9976319,21.7943821 C13.8934312,21.7524698 15.4393118,21.531212 16.6118808,21.1276846 C16.7857298,21.0673209 16.9756745,21.158808 17.0368517,21.3323724 C17.0656774,21.4154736 17.06018,21.5066383 17.0215772,21.5856734 C16.9829743,21.6647086 16.9144525,21.7250905 16.8311892,21.7534445 C16.6752365,21.8070533 16.512461,21.8567632 16.3438372,21.9054984 C15.4217672,22.166719 14.4314679,22.3421658 13.1546056,22.4201421 C13.2306325,22.4211168 13.0766293,22.4318385 13.0766293,22.4318385 C13.0327676,22.4347627 12.9781842,22.4406109 12.9343225,22.4425603 C12.4313752,22.4718014 11.8894398,22.4766749 11.3348332,22.4766749 C10.7285673,22.4766749 10.1310737,22.4649785 9.46340143,22.4318385 L9.44585675,22.4425603 C11.7637029,25.025526 15.3857031,26.5743307 19.9278239,26.5743307 C29.5384056,26.5743307 37.6898554,22.3489887 41.3001592,12.8631691 C43.8607066,13.1243898 46.322809,12.4771863 47.442744,10.3094445 C45.6590356,9.28892941 43.365557,9.61448055 42.044833,10.2724058" id="Shape" fill="#00AADA" fill-rule="nonzero"></path>
                    <path d="M42.044833,10.2733805 C42.3362695,8.0296118 40.6441833,6.26832162 39.5944271,5.43202556 C38.3848194,6.81902939 38.1967015,10.4517513 40.0934756,11.9820366 C39.034947,12.9148284 36.8048242,13.7608715 34.5201179,13.7608715 L8.35906176,13.7608715 C8.24502139,17.381897 9.59985999,20.131537 11.9976319,21.7943821 C13.8934312,21.7524698 15.4393118,21.531212 16.6118808,21.1276846 C16.7857298,21.0673209 16.9756745,21.158808 17.0368517,21.3323724 C17.0656774,21.4154736 17.06018,21.5066383 17.0215772,21.5856734 C16.9829743,21.6647086 16.9144525,21.7250905 16.8311892,21.7534445 C16.6752365,21.8070533 16.512461,21.8567632 16.3438372,21.9054984 C15.4217672,22.166719 14.3466686,22.364584 13.0698063,22.4425603 L13.0395905,22.4133192 C16.3097225,24.0771389 21.0516576,24.070316 26.4905061,22.0000447 C32.5872798,19.677325 38.2600573,15.251194 42.2183304,10.1895559 C42.1598481,10.2178223 42.1013659,10.2441394 42.044833,10.2724058" id="Shape" fill="#24B8EC" fill-rule="nonzero"></path>
                    <path d="M6.76444597,16.634299 C6.93696858,17.9014142 7.31028022,19.087629 7.86488682,20.1676011 L8.18069092,20.7407271 C8.38147995,21.0789494 8.59981366,21.4035258 8.83666674,21.7173805 C9.97999456,21.7895086 11.0336496,21.8148509 11.9986066,21.7943821 C13.8934312,21.7524698 15.4393118,21.531212 16.6118808,21.1276846 C16.7857298,21.0673209 16.9756745,21.158808 17.0368517,21.3323724 C17.0656774,21.4154736 17.06018,21.5066383 17.0215772,21.5856734 C16.9829743,21.6647086 16.9144525,21.7250905 16.8311892,21.7534445 C16.6752365,21.8070533 16.512461,21.8567632 16.3438372,21.9054984 C15.4207925,22.166719 14.3525168,22.3538622 13.0756546,22.4318385 C13.0317929,22.4347627 12.955766,22.4347627 12.9109296,22.4367121 C12.408957,22.4659532 11.8718951,22.4825232 11.3182632,22.4825232 C10.7119973,22.4825232 10.0911108,22.4708267 9.42343856,22.4367121 C11.7412847,25.0196777 15.3857031,26.5743307 19.9278239,26.5743307 C28.1553006,26.5743307 35.313527,23.4767213 39.4686903,16.634299 L6.76444597,16.634299 Z" id="Shape" fill="#008BB8" fill-rule="nonzero"></path>
                    <path d="M8.60858599,16.634299 C9.10081153,18.8585736 10.2831275,20.6042685 11.9986066,21.7943821 C13.8934312,21.7524698 15.4393118,21.531212 16.6118808,21.1276846 C16.7857298,21.0673209 16.9756745,21.158808 17.0368517,21.3323724 C17.0656774,21.4154736 17.06018,21.5066383 17.0215772,21.5856734 C16.9829743,21.6647086 16.9144525,21.7250905 16.8311892,21.7534445 C16.6752365,21.8070533 16.512461,21.8567632 16.3438372,21.9054984 C15.4207925,22.166719 14.3300986,22.3538622 13.0532364,22.4318385 C16.3233684,24.0956583 21.0526323,24.0712907 26.4905061,22.0000447 C29.7791575,20.7465753 32.9449962,18.8809918 35.7852838,16.634299 L8.60858599,16.634299 Z" id="Shape" fill="#039BC6" fill-rule="nonzero"></path>
                    <g id="Clipped">
                        <mask id="mask-4" fill="white">
                            <use xlink:href="#path-3"></use>
                        </mask>
                        <g id="c"></g>
                        <path d="M10.485866,9.36203221 L14.2462741,9.36203221 L14.2462741,13.0912498 L10.485866,13.0912498 L10.485866,9.36203221 Z M10.7997207,9.67296279 L11.0960307,9.67296279 L11.0960307,12.7812939 L10.7997207,12.7812939 L10.7997207,9.67198809 L10.7997207,9.67296279 Z M11.3572514,9.67296279 L11.6662325,9.67296279 L11.6662325,12.7812939 L11.3572514,12.7812939 L11.3572514,9.67198809 L11.3572514,9.67296279 Z M11.9274532,9.67296279 L12.2354597,9.67296279 L12.2354597,12.7812939 L11.9274532,12.7812939 L11.9274532,9.67198809 L11.9274532,9.67296279 Z M12.4966804,9.67296279 L12.8056615,9.67296279 L12.8056615,12.7812939 L12.4966804,12.7812939 L12.4966804,9.67198809 L12.4966804,9.67296279 Z M13.0668822,9.67296279 L13.3748887,9.67296279 L13.3748887,12.7812939 L13.0668822,12.7812939 L13.0668822,9.67198809 L13.0668822,9.67296279 Z M13.6361094,9.67296279 L13.9333941,9.67296279 L13.9333941,12.7812939 L13.6361094,12.7812939 L13.6361094,9.67198809 L13.6361094,9.67296279 Z M14.8252483,5.05871392 L18.5856564,5.05871392 L18.5856564,8.78890624 L14.8252483,8.78890624 L14.8252483,5.05871392 L14.8252483,5.05871392 Z M15.1381283,5.3696445 L15.435413,5.3696445 L15.435413,8.47797565 L15.1381283,8.47797565 L15.1381283,5.3696445 L15.1381283,5.3696445 Z M15.6966337,5.3696445 L16.0056149,5.3696445 L16.0056149,8.47797565 L15.6966337,8.47797565 L15.6966337,5.3696445 L15.6966337,5.3696445 Z M16.2658609,5.3696445 L16.574842,5.3696445 L16.574842,8.47797565 L16.2658609,8.47797565 L16.2658609,5.3696445 L16.2658609,5.3696445 Z M16.8360627,5.3696445 L17.1440692,5.3696445 L17.1440692,8.47797565 L16.8360627,8.47797565 L16.8360627,5.3696445 L16.8360627,5.3696445 Z M17.4062646,5.3696445 L17.714271,5.3696445 L17.714271,8.47797565 L17.4062646,8.47797565 L17.4062646,5.3696445 L17.4062646,5.3696445 Z M17.9754917,5.3696445 L18.2727764,5.3696445 L18.2727764,8.47797565 L17.9754917,8.47797565 L17.9754917,5.3696445 L17.9754917,5.3696445 Z" id="Shape" fill="#00ACD3" fill-rule="nonzero" mask="url(#mask-4)"></path>
                    </g>
                    <g id="Clipped">
                        <mask id="mask-6" fill="white">
                            <use xlink:href="#path-5"></use>
                        </mask>
                        <g id="c"></g>
                        <path d="M14.8252483,9.36203221 L18.5856564,9.36203221 L18.5856564,13.0912498 L14.8252483,13.0912498 L14.8252483,9.36203221 Z M15.1381283,9.67296279 L15.435413,9.67296279 L15.435413,12.7812939 L15.1381283,12.7812939 L15.1381283,9.67198809 L15.1381283,9.67296279 Z M15.6966337,9.67296279 L16.0056149,9.67296279 L16.0056149,12.7812939 L15.6966337,12.7812939 L15.6966337,9.67198809 L15.6966337,9.67296279 Z M16.2658609,9.67296279 L16.574842,9.67296279 L16.574842,12.7812939 L16.2658609,12.7812939 L16.2658609,9.67198809 L16.2658609,9.67296279 Z M16.8360627,9.67296279 L17.1440692,9.67296279 L17.1440692,12.7812939 L16.8360627,12.7812939 L16.8360627,9.67198809 L16.8360627,9.67296279 Z M17.4062646,9.67296279 L17.714271,9.67296279 L17.714271,12.7812939 L17.4062646,12.7812939 L17.4062646,9.67198809 L17.4062646,9.67296279 Z M17.9754917,9.67296279 L18.2727764,9.67296279 L18.2727764,12.7812939 L17.9754917,12.7812939 L17.9754917,9.67198809 L17.9754917,9.67296279 Z" id="Shape" fill="#1FC2EF" fill-rule="nonzero" mask="url(#mask-6)"></path>
                    </g>
                    <g id="Clipped">
                        <mask id="mask-8" fill="white">
                            <use xlink:href="#path-7"></use>
                        </mask>
                        <g id="c"></g>
                        <path d="M19.1646306,9.36203221 L22.9250388,9.36203221 L22.9250388,13.0912498 L19.1646306,13.0912498 L19.1646306,9.36203221 Z M19.4765359,9.67296279 L19.7738207,9.67296279 L19.7738207,12.7812939 L19.4775106,12.7812939 L19.4775106,9.67198809 L19.4765359,9.67296279 Z M20.0350413,9.67296279 L20.3440225,9.67296279 L20.3440225,12.7812939 L20.0350413,12.7812939 L20.0350413,9.67198809 L20.0350413,9.67296279 Z M20.6062179,9.67296279 L20.9142244,9.67296279 L20.9142244,12.7812939 L20.6062179,12.7812939 L20.6062179,9.67198809 L20.6062179,9.67296279 Z M21.175445,9.67296279 L21.4844262,9.67296279 L21.4844262,12.7812939 L21.175445,12.7812939 L21.175445,9.67198809 L21.175445,9.67296279 Z M21.7446722,9.67296279 L22.0536534,9.67296279 L22.0536534,12.7812939 L21.7446722,12.7812939 L21.7446722,9.67198809 L21.7446722,9.67296279 Z M22.3148741,9.67296279 L22.6111841,9.67296279 L22.6111841,12.7812939 L22.3148741,12.7812939 L22.3148741,9.67198809 L22.3148741,9.67296279 Z" id="Shape" fill="#00ACD3" fill-rule="nonzero" mask="url(#mask-8)"></path>
                    </g>
                    <g id="Clipped">
                        <mask id="mask-10" fill="white">
                            <use xlink:href="#path-9"></use>
                        </mask>
                        <g id="c"></g>
                        <path d="M19.1646306,5.05871392 L22.9250388,5.05871392 L22.9250388,8.78890624 L19.1646306,8.78890624 L19.1646306,5.05871392 Z M19.4765359,5.3696445 L19.7738207,5.3696445 L19.7738207,8.47797565 L19.4775106,8.47797565 L19.4775106,5.3696445 L19.4765359,5.3696445 Z M20.0350413,5.3696445 L20.3440225,5.3696445 L20.3440225,8.47797565 L20.0350413,8.47797565 L20.0350413,5.3696445 Z M20.6062179,5.3696445 L20.9142244,5.3696445 L20.9142244,8.47797565 L20.6062179,8.47797565 L20.6062179,5.3696445 Z M21.175445,5.3696445 L21.4844262,5.3696445 L21.4844262,8.47797565 L21.175445,8.47797565 L21.175445,5.3696445 Z M21.7446722,5.3696445 L22.0536534,5.3696445 L22.0536534,8.47797565 L21.7446722,8.47797565 L21.7446722,5.3696445 Z M22.3148741,5.3696445 L22.6111841,5.3696445 L22.6111841,8.47797565 L22.3148741,8.47797565 L22.3148741,5.3696445 Z M23.5030383,9.36203221 L27.2644211,9.36203221 L27.2644211,13.0912498 L23.5030383,13.0912498 L23.5030383,9.36203221 Z M23.816893,9.67296279 L24.113203,9.67296279 L24.113203,12.7812939 L23.816893,12.7812939 L23.816893,9.67198809 L23.816893,9.67296279 Z M24.3744237,9.67296279 L24.6834049,9.67296279 L24.6834049,12.7812939 L24.3744237,12.7812939 L24.3744237,9.67198809 L24.3744237,9.67296279 Z M24.9446255,9.67296279 L25.2536067,9.67296279 L25.2536067,12.7812939 L24.9446255,12.7812939 L24.9446255,9.67198809 L24.9446255,9.67296279 Z M25.5148274,9.67296279 L25.8228339,9.67296279 L25.8228339,12.7812939 L25.5148274,12.7812939 L25.5148274,9.67198809 L25.5148274,9.67296279 Z M26.0840545,9.67296279 L26.3930357,9.67296279 L26.3930357,12.7812939 L26.0840545,12.7812939 L26.0840545,9.67198809 L26.0840545,9.67296279 Z M26.6542564,9.67296279 L26.9515411,9.67296279 L26.9515411,12.7812939 L26.6542564,12.7812939 L26.6542564,9.67198809 L26.6542564,9.67296279 Z" id="Shape" fill="#1FC2EF" fill-rule="nonzero" mask="url(#mask-10)"></path>
                    </g>
                    <g id="Clipped">
                        <mask id="mask-12" fill="white">
                            <use xlink:href="#path-11"></use>
                        </mask>
                        <g id="c"></g>
                        <path d="M23.5030383,5.05871392 L27.2644211,5.05871392 L27.2644211,8.78890624 L23.5030383,8.78890624 L23.5030383,5.05871392 Z M23.816893,5.3696445 L24.113203,5.3696445 L24.113203,8.47797565 L23.816893,8.47797565 L23.816893,5.3696445 Z M24.3744237,5.3696445 L24.6834049,5.3696445 L24.6834049,8.47797565 L24.3744237,8.47797565 L24.3744237,5.3696445 Z M24.9446255,5.3696445 L25.2536067,5.3696445 L25.2536067,8.47797565 L24.9446255,8.47797565 L24.9446255,5.3696445 Z M25.5148274,5.3696445 L25.8228339,5.3696445 L25.8228339,8.47797565 L25.5148274,8.47797565 L25.5148274,5.3696445 Z M26.0840545,5.3696445 L26.3930357,5.3696445 L26.3930357,8.47797565 L26.0840545,8.47797565 L26.0840545,5.3696445 Z M26.6542564,5.3696445 L26.9515411,5.3696445 L26.9515411,8.47797565 L26.6542564,8.47797565 L26.6542564,5.3696445 Z" id="Shape" fill="#00ACD3" fill-rule="nonzero" mask="url(#mask-12)"></path>
                    </g>
                    <g id="Clipped">
                        <mask id="mask-14" fill="white">
                            <use xlink:href="#path-13"></use>
                        </mask>
                        <g id="c"></g>
                        <path d="M23.5030383,0.755395623 L27.2644211,0.755395623 L27.2644211,4.48558795 L23.5030383,4.48558795 L23.5030383,0.755395623 Z M23.816893,1.06632621 L24.113203,1.06632621 L24.113203,4.17465736 L23.816893,4.17465736 L23.816893,1.0653515 L23.816893,1.06632621 Z M24.3744237,1.06632621 L24.6834049,1.06632621 L24.6834049,4.17465736 L24.3744237,4.17465736 L24.3744237,1.0653515 L24.3744237,1.06632621 Z M24.9446255,1.06632621 L25.2536067,1.06632621 L25.2536067,4.17465736 L24.9446255,4.17465736 L24.9446255,1.0653515 L24.9446255,1.06632621 Z M25.5148274,1.06632621 L25.8228339,1.06632621 L25.8228339,4.17465736 L25.5148274,4.17465736 L25.5148274,1.0653515 L25.5148274,1.06632621 Z M26.0840545,1.06632621 L26.3930357,1.06632621 L26.3930357,4.17465736 L26.0840545,4.17465736 L26.0840545,1.0653515 L26.0840545,1.06632621 Z M26.6542564,1.06632621 L26.9515411,1.06632621 L26.9515411,4.17465736 L26.6542564,4.17465736 L26.6542564,1.0653515 L26.6542564,1.06632621 Z" id="Shape" fill="#1FC2EF" fill-rule="nonzero" mask="url(#mask-14)"></path>
                    </g>
                    <g id="Clipped">
                        <mask id="mask-16" fill="white">
                            <use xlink:href="#path-15"></use>
                        </mask>
                        <g id="c"></g>
                        <path d="M27.8424206,9.36203221 L31.6028288,9.36203221 L31.6028288,13.0912498 L27.8424206,13.0912498 L27.8424206,9.36203221 Z M28.1562753,9.67296279 L28.4525853,9.67296279 L28.4525853,12.7812939 L28.1562753,12.7812939 L28.1562753,9.67198809 L28.1562753,9.67296279 Z M28.713806,9.67296279 L29.0218125,9.67296279 L29.0218125,12.7812939 L28.713806,12.7812939 L28.713806,9.67198809 L28.713806,9.67296279 Z M29.2830332,9.67296279 L29.5920143,9.67296279 L29.5920143,12.7812939 L29.2830332,12.7812939 L29.2830332,9.67198809 L29.2830332,9.67296279 Z M29.853235,9.67296279 L30.1612415,9.67296279 L30.1612415,12.7812939 L29.853235,12.7812939 L29.853235,9.67198809 L29.853235,9.67296279 Z M30.4234369,9.67296279 L30.7314434,9.67296279 L30.7314434,12.7812939 L30.4234369,12.7812939 L30.4234369,9.67198809 L30.4234369,9.67296279 Z M30.992664,9.67296279 L31.2899488,9.67296279 L31.2899488,12.7812939 L30.992664,12.7812939 L30.992664,9.67198809 L30.992664,9.67296279 Z" id="Shape" fill="#00ACD3" fill-rule="nonzero" mask="url(#mask-16)"></path>
                    </g>
                    <g id="Clipped">
                        <mask id="mask-18" fill="white">
                            <use xlink:href="#path-17"></use>
                        </mask>
                        <g id="c"></g>
                        <path d="M18.3507528,19.1383136 C18.6247717,19.137018 18.8880819,19.2446307 19.0827566,19.4374774 C19.2774312,19.6303241 19.3875231,19.8926074 19.3888126,20.1666264 C19.3877809,20.4408146 19.2778027,20.7033482 19.0831,20.8964055 C18.8883974,21.0894628 18.6249399,21.1972091 18.3507528,21.1959138 C18.0767341,21.1969498 17.8135273,21.0890889 17.6190357,20.8960596 C17.4245441,20.7030304 17.3146998,20.440645 17.3136677,20.1666264 C17.3163534,19.5963929 17.7805171,19.1361555 18.3507528,19.1383136" id="Shape" fill="#D4EDF1" fill-rule="nonzero" mask="url(#mask-18)"></path>
                    </g>
                    <g id="Clipped">
                        <mask id="mask-20" fill="white">
                            <use xlink:href="#path-19"></use>
                        </mask>
                        <g id="c"></g>
                        <path d="M18.3507528,19.4297501 C18.4423861,19.4298181 18.5332323,19.4466659 18.6187964,19.47946 C18.5011227,19.5480092 18.4440882,19.686992 18.4796888,19.8184404 C18.5152894,19.9498888 18.6346663,20.0410935 18.7708502,20.0408896 C18.8813987,20.0414973 18.983454,19.9816847 19.0369444,19.8849369 C19.1296988,20.1132986 19.1027945,20.3728377 18.965171,20.577318 C18.8275475,20.7817984 18.5972329,20.904434 18.3507528,20.9044773 C18.1542865,20.9052544 17.9655585,20.8279529 17.8260876,20.6895787 C17.6866166,20.5512045 17.6078276,20.3630926 17.6070536,20.1666264 C17.6092017,19.7578876 17.9420115,19.428131 18.3507528,19.4297501 M-6.74020042e-17,17.0056612 L48.2614953,17.0056612 C47.2097897,16.7415164 44.9358052,16.3847747 45.3110662,15.0182397 C43.4006463,17.2113238 38.7922457,16.5572974 37.6294238,15.4763506 C36.3350168,17.3380353 28.7947065,16.6304002 28.269341,15.1790659 C26.6464588,17.069017 21.6150366,17.069017 19.9911797,15.1790659 C19.4648395,16.6313749 11.9264785,17.33901 10.6320716,15.4763506 C9.46827495,16.5572974 4.860849,17.2113238 2.9504291,15.0182397 C3.32471545,16.3847747 1.05073094,16.7415164 -2.66453526e-15,17.0066359" id="Shape" fill="#394D54" fill-rule="nonzero" mask="url(#mask-20)"></path>
                    </g>
                    <g id="Clipped">
                        <mask id="mask-22" fill="white">
                            <use xlink:href="#path-21"></use>
                        </mask>
                        <g id="c"></g>
                        <path d="M21.1081905,26.5519125 C18.5388706,25.3432795 17.1284739,23.6999285 16.3438372,21.9054984 C15.3896019,22.1754914 14.2423753,22.348014 12.9099549,22.4220915 C12.4070076,22.4513326 11.8796927,22.4640038 11.3250861,22.4640038 C10.6856803,22.4640038 10.0121598,22.4445097 9.30549937,22.4084456 C11.6623337,24.7438365 14.5601288,26.5411907 19.9278239,26.5743307 C20.3235537,26.5743307 20.7173342,26.566533 21.1081905,26.5519125" id="Shape" fill="#BFDBE0" fill-rule="nonzero" mask="url(#mask-22)"></path>
                    </g>
                    <g id="Clipped">
                        <mask id="mask-24" fill="white">
                            <use xlink:href="#path-23"></use>
                        </mask>
                        <g id="c"></g>
                        <path d="M17.2980724,23.5605458 C16.9218846,23.0446459 16.6022921,22.4897705 16.3448119,21.9054984 C15.3896019,22.1754914 14.2423753,22.348014 12.9099549,22.4220915 C13.825202,22.9152917 15.1352042,23.3714532 17.2980724,23.5605458" id="Shape" fill="#D4EDF1" fill-rule="nonzero" mask="url(#mask-24)"></path>
                    </g>
                    <g id="Clipped">
                        <mask id="mask-26" fill="white">
                            <use xlink:href="#path-25"></use>
                        </mask>
                        <g id="c"></g>
                        <path d="M60.06906,12.0687853 L60.06906,7.87950738 C60.06906,7.3297743 60.4150799,6.88628397 60.9901553,6.88628397 L61.149032,6.88628397 C61.7241074,6.88628397 62.0691526,7.3297743 62.0691526,7.88048208 L62.0691526,16.6986294 C62.0691526,18.8488265 60.9969782,20.5604068 59.1313947,21.6501259 C58.274315,22.1526694 57.2982974,22.4165307 56.304753,22.4142939 L55.9080485,22.4142939 C53.739332,22.4142939 52.0160553,21.3518665 50.9156144,19.5009035 C50.4086039,18.6543365 50.1423582,17.6854044 50.1455982,16.6986294 L50.1455982,16.304849 C50.1455982,14.1546519 51.216798,12.4450211 53.0823815,11.3523778 C53.9388048,10.8481609 54.9152001,10.5838608 55.9090232,10.5872352 L56.304753,10.5872352 C57.7726573,10.5872352 59.018329,11.1525635 60.06906,12.0687853 L60.06906,12.0687853 Z M52.1447162,16.5017392 C52.1447162,18.0554175 52.9049853,19.2231129 54.2773686,19.9687615 C54.8259283,20.2707237 55.4417229,20.4296168 56.0678999,20.4307712 C57.6050082,20.4307712 58.7454119,19.7114396 59.531998,18.4189821 C59.897512,17.8185644 60.0680853,17.1606392 60.0680853,16.4617764 C60.0680853,15.1147354 59.4247806,14.0640044 58.3311627,13.2842412 C57.6844737,12.8161589 56.9051822,12.5668676 56.1068881,12.5727073 C54.4303971,12.5727073 53.2246883,13.4119275 52.5004832,14.9041993 C52.2612153,15.4028211 52.1395057,15.9496808 52.1447162,16.5027139 L52.1447162,16.5017392 Z M69.0090453,10.5872352 L69.286836,10.5872352 C71.6046821,10.5872352 73.366947,11.7022966 74.4839579,13.7092122 C74.9303723,14.5113936 75.1691748,15.3876525 75.1691748,16.304849 L75.1691748,16.6986294 C75.1691748,18.8488265 74.1008992,20.5633309 72.2314168,21.6501259 C71.3741523,22.1522285 70.3982571,22.4160567 69.4047752,22.4142939 L69.0090453,22.4142939 C66.8403289,22.4142939 65.1170521,21.3518665 64.0166113,19.5009035 C63.5094882,18.654337 63.2429216,17.6854634 63.2456204,16.6986294 L63.2456204,16.304849 C63.2456204,14.1546519 64.3216936,12.4498946 66.1814289,11.3533525 C67.0376052,10.8475932 68.0146554,10.5828702 69.0090453,10.5872352 L69.0090453,10.5872352 Z M65.2457131,16.5017392 C65.2457131,18.0096064 65.9923363,19.1188195 67.2769963,19.8985828 C67.8718188,20.2563029 68.5547907,20.4406344 69.2488225,20.4307712 C70.7498667,20.4307712 71.8610293,19.6753755 72.6339696,18.4180073 C72.9928066,17.8292495 73.17828,17.1512074 73.1690821,16.4617764 C73.1690821,15.0582026 72.4887387,13.9889522 71.3239674,13.2121131 C70.699122,12.7906804 69.9615516,12.5678125 69.2078849,12.5727073 C67.531394,12.5727073 66.3256851,13.4119275 65.60148,14.9041993 C65.3617157,15.4026491 65.23998,15.949626 65.2457131,16.5027139 L65.2457131,16.5017392 Z M83.4853496,12.731584 C83.1831913,12.5912267 82.617863,12.5444409 82.2923118,12.5327444 C80.6206944,12.4693887 79.4110867,13.4031551 78.7015022,14.8652112 C78.4621956,15.3631266 78.3404761,15.9093637 78.3457352,16.4617764 C78.3457352,18.1606855 79.2444123,19.3507991 80.7746977,20.0759789 C81.3332031,20.339149 82.0544841,20.3908083 82.6646488,20.3908083 C83.2017107,20.3908083 83.9610051,20.0642825 84.4376354,19.8401005 L84.5195105,19.8011124 L84.8898981,19.8011124 L84.9298609,19.80891 C85.3860224,19.9034563 85.7291182,20.1890446 85.7291182,20.6744472 L85.7291182,20.8713374 C85.7291182,22.078021 83.5028942,22.3558116 82.653927,22.4133192 C79.6567121,22.6199564 77.4148929,20.9873272 76.5600774,18.1528879 C76.414675,17.6679188 76.342402,17.1639787 76.3456426,16.6576919 L76.3456426,16.2648861 C76.3456426,14.1137144 77.4207411,12.4099317 79.2814511,11.3133897 C80.1374402,10.8081412 81.1141244,10.5437629 82.1080928,10.548247 L82.505772,10.548247 C83.5711235,10.548247 84.5536252,10.8484559 85.4337829,11.4449747 L85.5068857,11.4946846 L85.5517221,11.5687621 C85.6472431,11.7256895 85.7291182,11.9069844 85.7291182,12.0921782 L85.7291182,12.2890684 C85.7291182,12.7959145 85.3470343,13.0668822 84.8850246,13.1555803 L84.8479858,13.1614285 L84.7290719,13.1614285 C84.4308125,13.1614285 83.7524185,12.8563462 83.4853496,12.731584 L83.4853496,12.731584 Z M89.9739543,14.0747262 C90.7507934,13.3027606 91.5315313,12.5327444 92.3200669,11.7744247 C92.5393753,11.5629139 93.3707978,10.6661862 93.6982984,10.6661862 L94.0569895,10.6661862 L94.097927,10.6749585 C94.5540885,10.7685301 94.8971844,11.0550931 94.8971844,11.5414704 L94.8971844,11.7383606 C94.8971844,12.06976 94.5043786,12.4557428 94.2879943,12.6828488 C93.8289087,13.1653273 93.3444808,13.6322106 92.8746735,14.1059167 L90.4574075,16.538778 C91.498912,17.5724104 92.5366537,18.6098272 93.5706122,19.6510079 C93.8552257,19.9385456 94.140814,20.2280327 94.4225035,20.5194692 C94.5209486,20.6227879 94.6691036,20.7533982 94.7519535,20.895705 C94.8434143,21.0279242 94.8936156,21.1842945 94.8962096,21.3450436 L94.8962096,21.5497314 L94.8845132,21.5965172 C94.7724222,22.0497546 94.4819604,22.4152686 93.976089,22.4152686 L93.8172123,22.4152686 C93.4858129,22.4152686 93.1125013,22.0429316 92.8863699,21.8304462 C92.418512,21.3947535 91.9681987,20.9346932 91.5091131,20.4892534 L89.9739543,18.9940574 L89.9739543,21.3840317 C89.9739543,21.9327901 89.6269597,22.3753057 89.052859,22.3753057 L88.8930075,22.3753057 C88.3179322,22.3753057 87.9719122,21.9327901 87.9719122,21.3840317 L87.9719122,7.91849554 C87.9719122,7.36778776 88.3189069,6.92722154 88.8930075,6.92722154 L89.0509096,6.92722154 C89.6250103,6.92722154 89.9720049,7.36778776 89.9720049,7.91849554 L89.9720049,14.0747262 L89.9739543,14.0747262 Z M114.905909,10.6661862 L115.103774,10.6661862 C115.704191,10.6661862 116.104795,11.0677643 116.104795,11.6594096 C116.104795,12.4810851 115.313335,12.6906465 114.628118,12.6906465 C113.729441,12.6906465 112.872676,13.2296578 112.252764,13.8339743 C111.479824,14.5903446 111.141602,15.5562763 111.141602,16.6196784 L111.141602,21.4220452 C111.141602,21.9727529 110.795582,22.4142939 110.221481,22.4142939 L110.063579,22.4142939 C109.488504,22.4142939 109.141509,21.9727529 109.141509,21.4220452 L109.141509,16.3438372 C109.141509,14.3944291 110.098668,12.8027374 111.695234,11.6847519 C112.633574,11.0197647 113.755829,10.6637365 114.905909,10.6661862 L114.905909,10.6661862 Z M100.686926,20.1841711 C101.41503,20.4356447 102.244503,20.4005553 102.992101,20.2718944 C103.373211,20.1100935 104.350839,19.687072 104.70953,19.7494531 L104.767037,19.7592001 L104.817722,19.7835677 C105.03703,19.8898104 105.246592,20.0389402 105.358683,20.260198 C105.621853,20.7787405 105.495141,21.3002072 104.980498,21.5955425 L104.809924,21.6930129 C102.912176,22.7798079 100.893564,22.6287288 99.0026377,21.6150366 C98.0981124,21.129634 97.4060725,20.4103024 96.8963023,19.5320941 L96.7764137,19.3274062 C95.5580337,17.2356914 95.7237334,15.0348097 97.0970913,13.0454387 C97.5707975,12.3582724 98.1907093,11.8270587 98.9149144,11.4108601 L99.1897809,11.2549074 C100.976413,10.2314682 102.891707,10.3006722 104.727074,11.1983746 C105.713475,11.6818278 106.512732,12.4021341 107.06344,13.347597 L107.16286,13.5181702 C107.562489,14.2063112 107.044921,14.8047795 106.509808,15.2151299 C105.887947,15.6898108 105.262187,16.261962 104.665668,16.7707575 C103.339096,17.9072624 102.014473,19.0466914 100.686926,20.1841711 L100.686926,20.1841711 Z M98.9694978,18.9872345 C100.453972,17.7249928 101.938446,16.4617764 103.419022,15.1936864 C103.924893,14.7618925 104.4795,14.312554 104.982447,13.8573672 C104.578919,13.3544199 103.906374,12.9908553 103.335197,12.7754457 C102.181148,12.339753 101.043668,12.4859586 99.9851394,13.0912498 C98.6010597,13.8836842 98.0094143,15.1478753 98.0610736,16.7190982 C98.0825171,17.3380353 98.2501662,17.9345542 98.5815656,18.4608943 C98.6985301,18.6460881 98.8281657,18.8215348 98.9694978,18.9872345 Z" id="Shape" fill="#394D54" fill-rule="nonzero" mask="url(#mask-26)"></path>
                    </g>
                </g>
            </g>
        </g>
    </g>
</svg>