<?xml version="1.0" encoding="UTF-8"?>
<svg width="109px" height="33px" viewBox="0 0 109 33" version="1.1" xmlns="http://www.w3.org/2000/svg" xmlns:xlink="http://www.w3.org/1999/xlink">
    <!-- Generator: Sketch 46.2 (44496) - http://www.bohemiancoding.com/sketch -->
    <title>google_cloud_platform_original</title>
    <desc>Created with Sketch.</desc>
    <defs></defs>
    <g id="Page-4" stroke="none" stroke-width="1" fill="none" fill-rule="evenodd">
        <g id="logos" transform="translate(-643.000000, -136.000000)" fill-rule="nonzero">
            <g id="google_cloud_platform_original" transform="translate(571.000000, 112.000000)">
                <g id="logo" transform="translate(72.000000, 24.000000)">
                    <g id="Group" transform="translate(45.786272, 2.443971)" fill="#757D81">
                        <path d="M53.1410976,6.90421849 C53.4198631,6.78965735 53.4427753,6.76674512 53.3396703,6.47270484 C52.747771,4.78101856 50.5176474,3.86834808 48.619751,4.66263871 C47.1228187,5.28890631 46.0383065,6.86985015 46.0383065,8.64172923 C46.0383065,11.0284198 47.7605424,13.1516197 50.1014085,13.1516197 C51.1744646,13.1516197 51.9382056,13.0026902 52.6179351,12.5711766 C52.7630459,12.4375219 53.5840674,11.7807047 53.5917048,11.6394126 C53.5917048,11.6050442 53.4771437,11.7081493 53.2976645,11.8074356 C52.7706833,12.0862011 51.9763926,12.1931248 51.3539437,12.2045809 C50.0975898,12.2274931 49.0932704,11.3682845 48.4364532,10.352509 C48.0163956,9.69569179 47.7414489,8.94722562 47.6727122,8.14529759 C47.5696072,6.9080372 47.8712849,5.48747897 49.2651122,5.13997682 C50.1930574,4.90703582 51.0751783,5.43019839 51.415043,6.32377535 C51.5716099,6.72855807 51.4761423,6.94240554 51.1019092,7.09515374 L47.7414489,8.49661844 L48.8870604,8.56917384 C50.250338,8.0001868 51.77782,7.46938682 53.1410976,6.90421849 L53.1410976,6.90421849 Z" id="Shape"></path>
                        <path d="M42.8000447,0.0190935246 C43.6516159,0.0190935246 44.453544,0.0190935246 45.3089339,0.0190935246 C44.9614317,0.244397115 44.8430519,0.339864738 44.6941224,0.576624443 C44.5871986,0.748466164 44.5604677,1.06923738 44.5413742,1.35945895 C44.3962634,4.70846316 44.4840936,8.08037961 44.4611814,11.4293838 C44.4764562,12.3420543 44.8354144,12.2351306 46.019213,12.2007622 C45.8397338,12.3535104 45.5495123,12.6513694 45.3242087,12.7812054 C44.2549713,12.7812054 43.2315584,12.7582931 42.162321,12.7582931 C42.5671037,12.3420543 42.7733138,12.074745 42.7465829,11.0322385 C42.7694951,7.5343048 42.628203,4.17384448 42.8420505,0.805746738 C42.3418001,0.821021557 41.8835555,0.813384148 41.3833052,0.828658967 C41.8530059,0.584261853 42.3036131,0.24057841 42.8000447,0.0190935246 L42.8000447,0.0190935246 Z" id="Shape"></path>
                        <path d="M40.2567873,12.7391996 C39.703075,12.3267795 38.7483988,11.7577924 38.8094981,10.9749579 C38.8285916,10.7076486 39.0195269,10.4288831 39.3975786,10.2073982 C40.0582146,9.81789035 40.5088218,9.31000259 40.7341254,8.71810333 C40.9708851,8.09183572 40.9365167,7.40828754 40.7035757,6.79347605 C40.4859095,6.21685161 40.0925829,5.69750774 39.5770578,5.33473077 L40.7990434,5.33473077 L41.8720994,4.63972648 C40.3446175,4.62827036 38.8973283,4.62827036 37.3392967,4.62827036 C35.8385457,4.62827036 34.4867241,5.3538243 33.87955,6.65982138 C33.6007846,7.26317676 33.4900421,8.02691774 33.6657026,8.76392779 C34.0208421,10.211217 35.5330493,11.1697119 36.999432,10.948227 C37.1598176,10.9253148 37.2132794,10.8718529 37.1292679,11.0207824 C36.804678,11.5897694 37.0414377,12.4413406 37.6791614,12.8575795 C37.2552852,12.8270298 36.8084967,12.8193924 36.3044277,12.876673 C34.5096363,13.0867018 32.5239098,14.0070096 32.6270148,15.943093 C32.7072076,17.4400254 34.2232335,18.5398124 36.6213802,18.5512685 C38.5536449,18.5436311 40.3751671,17.9326383 41.1389081,16.5655419 C41.9370174,15.1297089 41.463498,13.6442327 40.2567873,12.7391996 Z M35.3764824,8.33623284 C34.9564248,6.69800843 35.3917572,5.65932069 36.3998953,5.34236818 C37.5951499,4.9681351 38.8744161,6.04882859 39.1646376,7.81688897 C39.3555729,8.97777526 39.0615326,10.0737436 38.0152075,10.3639651 C36.9459701,10.6656428 35.7583529,9.83316517 35.3764824,8.33623284 Z M40.1345887,15.9736427 C40.0314837,16.8824944 39.1608189,17.5965923 37.671524,17.6882412 C36.0791241,17.7837088 33.9368306,17.1536225 34.3339759,15.0609722 C34.5440047,13.9459104 36.0256622,13.3692859 37.2476478,13.3272802 C37.5875125,13.3158241 37.931196,13.342555 38.2710607,13.3540111 C38.4505398,13.4876658 38.6376564,13.613683 38.8324103,13.7358816 C39.8825542,14.404155 40.2186002,15.2213578 40.1345887,15.9736427 Z" id="Shape"></path>
                        <path d="M32.741576,8.55008031 C32.6079213,6.30850053 31.1071703,4.39532936 28.2278668,4.39532936 C25.7380712,4.39532936 23.7065201,6.33905016 23.7065201,8.71810333 C23.7065201,11.4408399 26.0702985,13.3081866 28.781579,13.0179651 C31.0346149,12.7812054 32.8752306,10.7840227 32.741576,8.55008031 Z M29.0870754,12.345873 C27.5786869,12.6933751 25.9824683,11.4446586 25.5815042,9.31764 C25.1423532,6.9844113 25.8679071,5.45311062 27.2884653,5.07505884 C28.9763329,4.62827036 30.6947501,6.33141276 30.942966,8.83648318 C31.1148077,10.4785263 30.5610955,12.0060083 29.0870754,12.345873 Z" id="Shape"></path>
                        <path d="M22.931323,8.55008031 C22.7938497,6.30850053 21.2778238,4.39532936 18.364152,4.39532936 C15.8438067,4.39532936 13.7893435,6.33905016 13.7893435,8.71810333 C13.7893435,11.4408399 16.1836714,13.3081866 18.9255016,13.0179651 C21.2052684,12.7812054 23.0687964,10.7840227 22.931323,8.55008031 Z M19.2386354,12.345873 C17.7111534,12.6933751 16.0958412,11.4446586 15.6910585,9.31764 C15.2480887,6.9844113 15.9812801,5.45311062 17.4209318,5.07505884 C19.1278929,4.62827036 20.8654037,6.33141276 21.1212569,8.83648318 C21.2854612,10.4785263 20.7279303,12.0060083 19.2386354,12.345873 Z" id="Shape"></path>
                        <path d="M11.1315248,3.20007472 L12.4413406,1.86734671 C10.2188544,0.0267309344 6.41160556,-0.213847475 3.8836229,1.06541867 C1.68786757,2.1766618 0.091648918,4.38005454 0.0114561148,6.84311921 C-0.0687366885,9.43601985 1.43583305,11.4866644 2.96331502,12.5177147 C5.48747897,14.2208571 9.8637148,13.8389866 12.4986212,12.5100773 L12.4986212,12.2618615 L12.4986212,12.2618615 L12.4986212,9.5467623 L13.1134327,8.82884577 L9.27563425,8.82884577 L7.85507602,9.6307738 L10.6159997,9.5467623 C10.6159997,10.3219594 10.6159997,11.1658932 10.6159997,11.9410903 C10.6159997,12.280955 10.6198184,12.3344169 10.0622875,12.5177147 C9.27563425,12.7239248 8.385876,12.7659305 7.57249185,12.6971939 C4.8153869,12.4680716 2.7150992,10.2875911 2.21484885,7.57249185 C1.74132944,4.99486603 2.95949631,2.55471359 5.01395956,1.5503942 C6.01827895,1.05778126 7.221171,0.828658967 8.52716808,1.2448978 C9.34437094,1.50838844 10.0890184,1.97808915 10.7381982,2.63108769 L10.2875911,3.45210925 L11.1315248,3.20007472 L11.1315248,3.20007472 Z" id="Shape"></path>
                    </g>
                    <g id="Group" transform="translate(45.671711, 21.690244)" fill="#757D81">
                        <path d="M3.32609198,0.832477672 C2.46306467,0.832477672 1.7833352,1.10742443 1.28690356,1.66113664 C0.790471918,2.21484885 0.542256098,2.97095243 0.542256098,3.93326607 C0.542256098,4.91467323 0.775197098,5.67841421 1.2448978,6.22448902 C1.71459851,6.76674512 2.38287187,7.03787316 3.25353659,7.03787316 C3.83016103,7.03787316 4.36096102,6.96531777 4.84593654,6.81638828 L4.84593654,7.24026453 C4.39151066,7.40065013 3.82252362,7.48084294 3.13897544,7.48084294 C2.1728431,7.48084294 1.40910211,7.16770913 0.855389902,6.54144153 C0.297858984,5.91517392 0.0229122295,5.0445092 0.0229122295,3.92180995 C0.0229122295,3.22298695 0.156566902,2.60435675 0.420057541,2.06973807 C0.687366885,1.53511938 1.06541867,1.12269925 1.56566902,0.832477672 C2.06210066,0.542256098 2.6425438,0.397145312 3.30317975,0.397145312 C3.97527182,0.397145312 4.57480849,0.523162574 5.10560848,0.775197098 L4.91085453,1.20671075 C4.40678548,0.958494935 3.8798042,0.832477672 3.32609198,0.832477672 Z" id="Shape"></path>
                        <polygon id="Shape" points="6.64454656 7.38537531 6.17866456 7.38537531 6.17866456 0.0534618689 6.64454656 0.0534618689"></polygon>
                        <path d="M12.5673579,4.8153869 C12.5673579,5.65168328 12.3649665,6.30468182 11.9601838,6.77438253 C11.5554011,7.24408323 10.9978702,7.47702423 10.2837723,7.47702423 C9.83316517,7.47702423 9.43983856,7.37010049 9.09615512,7.15243431 C8.75247167,6.93476813 8.49279974,6.62545303 8.3095019,6.22067031 C8.12620407,5.81588759 8.03455515,5.34618689 8.03455515,4.8153869 C8.03455515,3.97909053 8.23694651,3.32991069 8.64172923,2.86402869 C9.04651195,2.39814669 9.60404287,2.16520569 10.3105033,2.16520569 C11.013145,2.16520569 11.5668572,2.40196539 11.9678212,2.8754848 C12.3687852,3.34518551 12.5673579,3.99436534 12.5673579,4.8153869 Z M8.52716808,4.8153869 C8.52716808,5.51802861 8.67991628,6.06792212 8.99305008,6.46124872 C9.30236518,6.85457533 9.74151625,7.05314798 10.3066846,7.05314798 C10.8718529,7.05314798 11.311004,6.85457533 11.6203191,6.46124872 C11.9296342,6.06792212 12.0862011,5.51802861 12.0862011,4.8153869 C12.0862011,4.10892649 11.9296342,3.55903298 11.6165004,3.17334379 C11.3033666,2.78383589 10.8642155,2.58908193 10.2990472,2.58908193 C9.73387884,2.58908193 9.29854648,2.78383589 8.99305008,3.16952508 C8.67991628,3.55903298 8.52716808,4.10892649 8.52716808,4.8153869 Z" id="Shape"></path>
                        <path d="M14.2246758,2.26449202 L14.2246758,5.57912789 C14.2246758,6.09465305 14.3315996,6.46888613 14.5492657,6.70182713 C14.7669319,6.93476813 15.102978,7.05314798 15.5574038,7.05314798 C16.1683966,7.05314798 16.6151851,6.90039979 16.901588,6.59108469 C17.1879908,6.28176959 17.3331016,5.78151925 17.3331016,5.08651495 L17.3331016,2.26067331 L17.7951649,2.26067331 L17.7951649,7.38155661 L17.3980196,7.38155661 L17.3140081,6.6750962 L17.2872772,6.6750962 C16.9550498,7.20971489 16.3631506,7.47702423 15.5115794,7.47702423 C14.3468744,7.47702423 13.7626125,6.85457533 13.7626125,5.60585882 L13.7626125,2.26067331 L14.2246758,2.26067331 L14.2246758,2.26449202 Z" id="Shape"></path>
                        <path d="M21.2205432,2.16520569 C21.5909576,2.16520569 21.9117288,2.23394238 22.1828569,2.36759705 C22.4539849,2.50125172 22.6945633,2.73419272 22.9084108,3.05878264 L22.9351417,3.05878264 C22.9160482,2.66163733 22.9084108,2.27594813 22.9084108,1.89407764 L22.9084108,0.0534618689 L23.3704741,0.0534618689 L23.3704741,7.38155661 L23.0649777,7.38155661 L22.9465979,6.5987221 L22.9084108,6.5987221 C22.5189029,7.18298395 21.961372,7.47320553 21.2319993,7.47320553 C20.5255389,7.47320553 19.9832828,7.25172064 19.6128685,6.81256957 C19.2386354,6.37341851 19.0515188,5.73187608 19.0515188,4.891761 C19.0515188,4.00582146 19.2386354,3.32991069 19.6090498,2.86020998 C19.9756454,2.39814669 20.5140828,2.16520569 21.2205432,2.16520569 Z M21.2205432,2.58908193 C20.6630123,2.58908193 20.2429548,2.78383589 19.9603706,3.17716249 C19.6777864,3.5704891 19.5403131,4.13947613 19.5403131,4.8879423 C19.5403131,6.33905016 20.1054814,7.0646041 21.2319993,7.0646041 C21.8086238,7.0646041 22.2325,6.89658108 22.5036281,6.56053505 C22.7747561,6.22448902 22.9084108,5.6707768 22.9084108,4.89939841 L22.9084108,4.81920561 C22.9084108,4.02873369 22.7747561,3.45974666 22.5112655,3.11224451 C22.2439562,2.76092366 21.8124425,2.58908193 21.2205432,2.58908193 Z" id="Shape"></path>
                        <path d="M31.7678062,2.47452079 C31.7678062,3.13897544 31.5425026,3.6506819 31.0880767,4.00582146 C30.6374696,4.36096102 29.9959271,4.53662144 29.1672682,4.53662144 L28.1018495,4.53662144 L28.1018495,7.38155661 L27.6206927,7.38155661 L27.6206927,0.496431639 L29.3085603,0.496431639 C30.9467847,0.496431639 31.7678062,1.15706759 31.7678062,2.47452079 Z M28.1018495,4.12420131 L29.0488883,4.12420131 C29.8240854,4.12420131 30.385435,3.99436534 30.7291185,3.73851212 C31.0728019,3.48265889 31.2484623,3.06642005 31.2484623,2.49361431 C31.2484623,1.96281433 31.084258,1.56948772 30.7596681,1.31363449 C30.4312595,1.05778126 29.9271904,0.931764 29.2436423,0.931764 L28.1018495,0.931764 L28.1018495,4.12420131 L28.1018495,4.12420131 Z" id="Shape"></path>
                        <polygon id="Shape" points="33.3640249 7.38537531 32.8981429 7.38537531 32.8981429 0.0534618689 33.3640249 0.0534618689"></polygon>
                        <path d="M38.2557859,7.38537531 L38.137406,6.57580987 L38.099219,6.57580987 C37.8433657,6.90421849 37.5760564,7.13715949 37.3049283,7.27463287 C37.0338003,7.41210625 36.7130291,7.48084294 36.3426147,7.48084294 C35.8385457,7.48084294 35.4490378,7.35100697 35.1702723,7.09515374 C34.8915068,6.83930051 34.7502148,6.48034225 34.7502148,6.02591636 C34.7502148,5.52566602 34.9564248,5.13997682 35.3726637,4.86121136 C35.7889025,4.58626461 36.3922579,4.43733512 37.1789111,4.4220603 L38.1526808,4.39532936 L38.1526808,4.05546462 C38.1526808,3.56667039 38.0533945,3.20007472 37.8548219,2.9518589 C37.6562492,2.70364308 37.3392967,2.58144452 36.9001456,2.58144452 C36.4266262,2.58144452 35.9340133,2.7150992 35.4261255,2.97858984 L35.2504651,2.57380712 C35.8118147,2.31031648 36.3693456,2.1766618 36.9192392,2.1766618 C37.4805888,2.1766618 37.9006463,2.32177259 38.1794118,2.61581287 C38.4581772,2.90985315 38.5956506,3.36427903 38.5956506,3.98290923 L38.5956506,7.38919402 L38.2557859,7.38919402 L38.2557859,7.38537531 Z M36.3731643,7.05314798 C36.9192392,7.05314798 37.3507528,6.89658108 37.6677053,6.58344728 C37.9846578,6.27031348 38.1412247,5.83879982 38.1412247,5.2812689 L38.1412247,4.77719985 L37.2476478,4.8153869 C36.5297313,4.84975525 36.0142061,4.96431639 35.7087097,5.15143294 C35.4032133,5.34236818 35.2504651,5.63640846 35.2504651,6.03737248 C35.2504651,6.35814369 35.3497514,6.60635951 35.5445054,6.78583864 C35.7354406,6.96531777 36.0142061,7.05314798 36.3731643,7.05314798 Z" id="Shape"></path>
                        <path d="M41.5475095,7.0646041 C41.8415498,7.0646041 42.1012217,7.03787316 42.3188879,6.98823 L42.3188879,7.36628179 C42.0935843,7.44265589 41.8300937,7.48084294 41.5360534,7.48084294 C41.0854462,7.48084294 40.7494002,7.35864438 40.5355527,7.11806597 C40.3217052,6.87748756 40.2147815,6.49561707 40.2147815,5.9762732 L40.2147815,2.66927474 L39.4548592,2.66927474 L39.4548592,2.39432798 L40.2147815,2.18048051 L40.4515412,1.02341292 L40.6921196,1.02341292 L40.6921196,2.26067331 L42.1966894,2.26067331 L42.1966894,2.66545603 L40.6921196,2.66545603 L40.6921196,5.90753651 C40.6921196,6.30086312 40.7608563,6.59108469 40.8983297,6.77820123 C41.0358031,6.96913648 41.2496505,7.0646041 41.5475095,7.0646041 Z" id="Shape"></path>
                        <path d="M45.2669281,2.66927474 L44.0602174,2.66927474 L44.0602174,7.38537531 L43.5943354,7.38537531 L43.5943354,2.66927474 L42.6434778,2.66927474 L42.6434778,2.39432798 L43.5943354,2.21866756 L43.5943354,1.82152225 C43.5943354,1.19525464 43.7088965,0.733191344 43.9418375,0.439151066 C44.1709598,0.145110787 44.5490116,-1.13686838e-13 45.0759929,-1.13686838e-13 C45.358577,-1.13686838e-13 45.6411612,0.0420057541 45.9237454,0.126017262 L45.8168216,0.530799984 C45.5647871,0.45060718 45.3165713,0.412420131 45.0683554,0.412420131 C44.7017598,0.412420131 44.4459065,0.519343869 44.2931584,0.733191344 C44.1404102,0.94703882 44.0640361,1.29835967 44.0640361,1.77951649 L44.0640361,2.25685461 L45.2707468,2.25685461 L45.2707468,2.66927474 L45.2669281,2.66927474 Z" id="Shape"></path>
                        <path d="M50.445092,4.8153869 C50.445092,5.65168328 50.2427006,6.30468182 49.8379179,6.77438253 C49.4331352,7.24408323 48.8756043,7.47702423 48.1615064,7.47702423 C47.7108993,7.47702423 47.3175726,7.37010049 46.9738892,7.15243431 C46.6302058,6.93476813 46.3705338,6.62545303 46.187236,6.22067031 C46.0039382,5.81588759 45.9122892,5.34618689 45.9122892,4.8153869 C45.9122892,3.97909053 46.1146806,3.32991069 46.5194633,2.86402869 C46.924246,2.39814669 47.481777,2.16520569 48.1882374,2.16520569 C48.8908791,2.16520569 49.4445913,2.40196539 49.8455553,2.8754848 C50.2427006,3.34518551 50.445092,3.99436534 50.445092,4.8153869 Z M46.4049022,4.8153869 C46.4049022,5.51802861 46.5576504,6.06792212 46.8707842,6.46124872 C47.1800993,6.85457533 47.6192503,7.05314798 48.1844187,7.05314798 C48.749587,7.05314798 49.1887381,6.85457533 49.4980532,6.46124872 C49.8073683,6.06792212 49.9639352,5.51802861 49.9639352,4.8153869 C49.9639352,4.10892649 49.8073683,3.55903298 49.4942344,3.17334379 C49.1811006,2.78383589 48.7419496,2.58908193 48.1767813,2.58908193 C47.6116129,2.58908193 47.1762806,2.78383589 46.8707842,3.16952508 C46.5576504,3.55903298 46.4049022,4.10892649 46.4049022,4.8153869 Z" id="Shape"></path>
                        <path d="M53.7750027,2.16520569 C53.9926688,2.16520569 54.2256098,2.18811792 54.4738257,2.23012367 L54.3821767,2.67691215 C54.1683293,2.62345028 53.9468444,2.59671934 53.7177221,2.59671934 C53.2823897,2.59671934 52.9234315,2.78383589 52.644666,3.15425026 C52.3659005,3.52466464 52.2246085,3.99436534 52.2246085,4.55953367 L52.2246085,7.38537531 L51.7587265,7.38537531 L51.7587265,2.26449202 L52.1558718,2.26449202 L52.2016962,3.18861861 L52.2360646,3.18861861 C52.4460934,2.81056682 52.6713969,2.54707618 52.9081566,2.39432798 C53.1449164,2.24157979 53.4351379,2.16520569 53.7750027,2.16520569 Z" id="Shape"></path>
                        <path d="M61.9050254,7.38537531 L61.9050254,4.02491498 C61.9050254,3.52466464 61.8095578,3.16188767 61.6148039,2.93276538 C61.4200499,2.70364308 61.1221909,2.58908193 60.7212269,2.58908193 C60.1980643,2.58908193 59.8085564,2.73419272 59.5565219,3.02059559 C59.3044874,3.31081716 59.1784701,3.76524305 59.1784701,4.38387325 L59.1784701,7.38537531 L58.701132,7.38537531 L58.701132,3.8836229 C58.701132,3.02059559 58.3039867,2.58908193 57.5135148,2.58908193 C56.9750774,2.58908193 56.5855695,2.74564884 56.3411724,3.05878264 C56.0967753,3.37191644 55.9745767,3.87216679 55.9745767,4.55953367 L55.9745767,7.38537531 L55.5086947,7.38537531 L55.5086947,2.26449202 L55.8943839,2.26449202 L55.9936702,2.96713372 L56.0204012,2.96713372 C56.1616932,2.71128049 56.3640846,2.51652654 56.6237565,2.37523446 C56.8834285,2.23394238 57.1698313,2.16520569 57.4867838,2.16520569 C58.2925306,2.16520569 58.8118745,2.46688338 59.0409967,3.07405746 L59.0600903,3.07405746 C59.2242946,2.78383589 59.4495982,2.5585323 59.7321823,2.40196539 C60.0147665,2.24539849 60.331719,2.16520569 60.6906773,2.16520569 C61.2482082,2.16520569 61.6682657,2.31413518 61.9470312,2.61199416 C62.2257966,2.90985315 62.3670887,3.38337256 62.3670887,4.0363711 L62.3670887,7.38537531 L61.9050254,7.38537531 L61.9050254,7.38537531 Z" id="Shape"></path>
                    </g>
                    <g id="Group">
                        <polygon id="Shape" fill="#CFCECB" points="11.6355939 27.1624481 5.22780703 16.0614729 11.6355939 4.96049769 24.4549863 4.96049769 30.8665919 16.0614729 24.4549863 27.1624481"></polygon>
                        <path d="M12.7239248,25.7686208 L7.02641705,16.0232858 L3.90271643,10.6809177 C3.67359413,10.2875911 3.58194521,9.74533495 3.61631356,9.22980979 L0.332227328,14.9158614 C-0.0610992787,15.5955909 -0.0610992787,16.7106527 0.332227328,17.3903822 L8.2293091,31.0689832 C8.62263571,31.7487127 9.58494935,32.3062436 10.3716026,32.3062436 L19.7732541,32.3062436 C20.1513059,32.0847587 20.4758958,31.783081 20.666831,31.4508537 L23.8859993,25.7648021 L12.7239248,25.7648021 L12.7239248,25.7686208 Z" id="Shape" fill="#F4B51A"></path>
                        <polygon id="Shape" fill="#DD462F" points="36.20896 14.9158614 28.3118783 1.23726039 31.5195904 6.79347605"></polygon>
                        <path d="M36.20896,14.9158614 L31.5195904,6.79347605 C31.1148077,6.54526023 30.6489257,6.38487462 30.2288681,6.38487462 L23.8745432,6.38487462 L29.3734782,16.0767477 L23.8859993,25.7686208 L20.666831,31.4546724 C20.4758958,31.7868997 20.1474872,32.0885774 19.7732541,32.3100623 L26.1695848,32.3100623 C26.956238,32.3100623 27.9185517,31.7525314 28.3118783,31.0728019 L31.4546724,25.6311474 L36.2127787,17.3903822 C36.6022866,16.7106527 36.6022866,15.5994096 36.20896,14.9158614 Z" id="Shape" fill="#DD462F"></path>
                        <path d="M28.3118783,1.23726039 C27.9185517,0.557530918 26.956238,0 26.1695848,0 L19.9565519,0 L10.3716026,0 C9.58494935,0 8.62263571,0.557530918 8.2293091,1.23726039 L3.61631356,9.22980979 C3.58194521,9.74533495 3.67359413,10.2875911 3.90271643,10.6809177 L7.02641705,16.0232858 L12.6017262,6.38869333 L23.8745432,6.38869333 L30.2326868,6.38869333 C30.6489257,6.38869333 31.1148077,6.54526023 31.5234091,6.79729476 L28.3118783,1.23726039 Z" id="Shape" fill="#517DBF"></path>
                        <polygon id="Shape" fill="#CFCECB" points="7.02641705 16.0232858 12.7239248 25.7686208 23.8859993 25.7686208 29.3734782 16.0767477 23.8745432 6.38869333 12.6017262 6.38869333"></polygon>
                        <path d="M3.81488621,8.88230764 L3.61249485,9.23362849 C3.57812651,9.74915366 3.66977543,10.2914098 3.89889772,10.6847364 L7.02641705,16.0232858 L8.68755369,13.1516197 L3.81488621,8.88230764 Z" id="Shape" fill="#4F71A9"></path>
                        <path d="M31.7334379,7.16007172 L31.5234091,6.79729476 C31.1186264,6.54907894 30.6527444,6.38869333 30.2326868,6.38869333 L23.8783619,6.38869333 L25.5318611,9.30618389 L31.7334379,7.16007172 Z" id="Shape" fill="#C3432F"></path>
                        <path d="M19.2386354,32.3100623 L19.7847102,32.3100623 C20.162762,32.0885774 20.4873519,31.7868997 20.6782871,31.4546724 L23.8974554,25.7686208 L20.4720771,25.7686208 L19.2386354,32.3100623 Z" id="Shape" fill="#D19D2A"></path>
                        <g transform="translate(13.174532, 11.036057)" id="Shape">
                            <path d="M5.08651495,10.0928371 C2.33322871,10.0928371 0.091648918,7.85125731 0.091648918,5.09797107 C0.091648918,2.34468482 2.33322871,0.103105033 5.08651495,0.103105033 C7.8398012,0.103105033 10.081381,2.34468482 10.081381,5.09797107 C10.081381,7.85125731 7.8398012,10.0928371 5.08651495,10.0928371 Z" fill="#FFFFFF"></path>
                            <path d="M5.08651495,0.171841721 C7.80543285,0.171841721 10.0126443,2.37523446 10.0126443,5.09797107 C10.0126443,7.81688897 7.80925156,10.0241004 5.08651495,10.0241004 C2.36759705,10.0241004 0.160385607,7.82070767 0.160385607,5.09797107 C0.160385607,2.37523446 2.36759705,0.171841721 5.08651495,0.171841721 L5.08651495,0.171841721 Z M5.08651495,0.0305496393 C2.29122295,0.0305496393 0.0190935246,2.30267907 0.0190935246,5.09797107 C0.0190935246,7.89326307 2.29122295,10.1653925 5.08651495,10.1653925 C7.88180695,10.1653925 10.1539364,7.89326307 10.1539364,5.09797107 C10.1539364,2.30267907 7.88180695,0.0305496393 5.08651495,0.0305496393 L5.08651495,0.0305496393 Z" fill="#CAC8C6"></path>
                        </g>
                        <g transform="translate(9.737698, 2.100288)" id="Shape">
                            <path d="M1.04250644,2.00482008 C0.511706459,2.00482008 0.0801928033,1.57330643 0.0801928033,1.04250644 C0.0801928033,0.511706459 0.511706459,0.0801928033 1.04250644,0.0801928033 C1.57330643,0.0801928033 2.00482008,0.511706459 2.00482008,1.04250644 C2.00863879,1.57330643 1.57330643,2.00482008 1.04250644,2.00482008 Z" fill="#FFFFFF"></path>
                            <path d="M1.04250644,0.148929492 C1.53511938,0.148929492 1.93608339,0.549893508 1.93608339,1.04250644 C1.93608339,1.53511938 1.53511938,1.93608339 1.04250644,1.93608339 C0.549893508,1.93608339 0.148929492,1.53511938 0.148929492,1.04250644 C0.148929492,0.549893508 0.549893508,0.148929492 1.04250644,0.148929492 L1.04250644,0.148929492 Z M1.04250644,0.00763740984 C0.469700705,0.00763740984 0.00763740984,0.47351941 0.00763740984,1.04250644 C0.00763740984,1.61531218 0.47351941,2.07737548 1.04250644,2.07737548 C1.61531218,2.07737548 2.07737548,1.61149348 2.07737548,1.04250644 C2.07737548,0.47351941 1.61531218,0.00763740984 1.04250644,0.00763740984 L1.04250644,0.00763740984 Z" fill="#4472B8"></path>
                        </g>
                        <circle id="Oval" stroke="#4472B8" fill="#FFFFFF" cx="25.6846093" cy="3.14279415" r="1"></circle>
                        <g transform="translate(9.737698, 27.914733)" id="Shape">
                            <path d="M1.04250644,2.03155102 C0.511706459,2.03155102 0.0801928033,1.60003736 0.0801928033,1.06923738 C0.0801928033,0.538437394 0.511706459,0.106923738 1.04250644,0.106923738 C1.57330643,0.106923738 2.00482008,0.538437394 2.00482008,1.06923738 C2.00863879,1.59621866 1.57330643,2.03155102 1.04250644,2.03155102 Z" fill="#FFFFFF"></path>
                            <path d="M1.04250644,0.175660426 C1.53511938,0.175660426 1.93608339,0.576624443 1.93608339,1.06923738 C1.93608339,1.56185031 1.53511938,1.96281433 1.04250644,1.96281433 C0.549893508,1.96281433 0.148929492,1.56185031 0.148929492,1.06923738 C0.148929492,0.572805738 0.549893508,0.175660426 1.04250644,0.175660426 L1.04250644,0.175660426 Z M1.04250644,0.0305496393 C0.469700705,0.0305496393 0.00763740984,0.496431639 0.00763740984,1.06541867 C0.00763740984,1.63822441 0.47351941,2.10028771 1.04250644,2.10028771 C1.61531218,2.10028771 2.07737548,1.63440571 2.07737548,1.06541867 C2.07737548,0.496431639 1.61531218,0.0305496393 1.04250644,0.0305496393 L1.04250644,0.0305496393 Z" fill="#F3B01C"></path>
                        </g>
                        <g transform="translate(24.630647, 27.914733)" id="Shape">
                            <path d="M1.05396256,2.03155102 C0.523162574,2.03155102 0.091648918,1.60003736 0.091648918,1.06923738 C0.091648918,0.538437394 0.523162574,0.106923738 1.05396256,0.106923738 C1.58476254,0.106923738 2.0162762,0.538437394 2.0162762,1.06923738 C2.0162762,1.59621866 1.58476254,2.03155102 1.05396256,2.03155102 Z" fill="#FFFFFF"></path>
                            <path d="M1.05396256,0.175660426 C1.54657549,0.175660426 1.94753951,0.576624443 1.94753951,1.06923738 C1.94753951,1.56185031 1.54657549,1.96281433 1.05396256,1.96281433 C0.561349623,1.96281433 0.160385607,1.56185031 0.160385607,1.06923738 C0.160385607,0.572805738 0.561349623,0.175660426 1.05396256,0.175660426 L1.05396256,0.175660426 Z M1.05396256,0.0305496393 C0.48115682,0.0305496393 0.0190935246,0.496431639 0.0190935246,1.06541867 C0.0190935246,1.63822441 0.484975525,2.10028771 1.05396256,2.10028771 C1.6267683,2.10028771 2.08883159,1.63440571 2.08883159,1.06541867 C2.08883159,0.496431639 1.62294959,0.0305496393 1.05396256,0.0305496393 L1.05396256,0.0305496393 Z" fill="#DE482F"></path>
                        </g>
                        <g transform="translate(32.115308, 15.083884)" id="Shape">
                            <path d="M1.06923738,2.01245749 C0.538437394,2.01245749 0.106923738,1.58094384 0.106923738,1.04632515 C0.106923738,0.515525164 0.538437394,0.0840115082 1.06923738,0.0840115082 C1.60003736,0.0840115082 2.03155102,0.515525164 2.03155102,1.04632515 C2.03536972,1.58094384 1.60385607,2.01245749 1.06923738,2.01245749 Z" fill="#FFFFFF"></path>
                            <path d="M1.06923738,0.156566902 C1.56185031,0.156566902 1.96281433,0.557530918 1.96281433,1.05014385 C1.96281433,1.54275679 1.56185031,1.9437208 1.06923738,1.9437208 C0.576624443,1.9437208 0.175660426,1.54275679 0.175660426,1.05014385 C0.179479131,0.557530918 0.576624443,0.156566902 1.06923738,0.156566902 L1.06923738,0.156566902 Z M1.06923738,0.0152748197 C0.496431639,0.0152748197 0.0343683443,0.48115682 0.0343683443,1.05014385 C0.0343683443,1.62294959 0.500250344,2.08501289 1.06923738,2.08501289 C1.63822441,2.08501289 2.10410641,1.61913089 2.10410641,1.05014385 C2.10792512,0.477338115 1.64204311,0.0152748197 1.06923738,0.0152748197 L1.06923738,0.0152748197 Z" fill="#DE482F"></path>
                        </g>
                        <g transform="translate(2.214849, 15.083884)" id="Shape">
                            <path d="M1.05014385,2.01245749 C0.519343869,2.01245749 0.0878302131,1.58094384 0.0878302131,1.04632515 C0.0878302131,0.515525164 0.519343869,0.0840115082 1.05014385,0.0840115082 C1.58094384,0.0840115082 2.01245749,0.515525164 2.01245749,1.04632515 C2.01245749,1.58094384 1.58094384,2.01245749 1.05014385,2.01245749 Z" fill="#FFFFFF"></path>
                            <path d="M1.05014385,0.156566902 C1.54275679,0.156566902 1.9437208,0.557530918 1.9437208,1.05014385 C1.9437208,1.54275679 1.54275679,1.9437208 1.05014385,1.9437208 C0.557530918,1.9437208 0.156566902,1.54275679 0.156566902,1.05014385 C0.156566902,0.557530918 0.557530918,0.156566902 1.05014385,0.156566902 L1.05014385,0.156566902 Z M1.05014385,0.0152748197 C0.477338115,0.0152748197 0.0152748197,0.48115682 0.0152748197,1.05014385 C0.0152748197,1.62294959 0.48115682,2.08501289 1.05014385,2.08501289 C1.62294959,2.08501289 2.08501289,1.61913089 2.08501289,1.05014385 C2.08501289,0.477338115 1.62294959,0.0152748197 1.05014385,0.0152748197 L1.05014385,0.0152748197 Z" fill="#F3B01C"></path>
                        </g>
                    </g>
                </g>
            </g>
        </g>
    </g>
</svg>