<?xml version="1.0" encoding="UTF-8"?>
<svg width="146px" height="32px" viewBox="0 0 146 32" version="1.1" xmlns="http://www.w3.org/2000/svg" xmlns:xlink="http://www.w3.org/1999/xlink">
    <!-- Generator: Sketch 46.2 (44496) - http://www.bohemiancoding.com/sketch -->
    <title>kubernetes</title>
    <desc>Created with Sketch.</desc>
    <defs></defs>
    <g id="Page-4" stroke="none" stroke-width="1" fill="none" fill-rule="evenodd">
        <g id="logos" transform="translate(-909.000000, -24.000000)" fill-rule="nonzero">
            <g id="kubernetes" transform="translate(856.000000, 0.000000)">
                <g id="logo" transform="translate(53.000000, 24.000000)">
                    <path d="M45.9496491,16.4540718 C46.2325663,16.1448141 46.5223125,15.8228739 46.8188877,15.4882512 C47.1281454,15.1526529 47.4247206,14.8238836 47.7086134,14.5019434 C47.9915305,14.1663451 48.2559118,13.8502584 48.5007814,13.5546587 C48.7583336,13.2580835 48.9778383,13.0005313 49.1583199,12.7810266 L52.580642,12.7810266 C51.8977385,13.5673412 51.2265419,14.3214618 50.569979,15.0424127 C49.8813962,15.7966952 49.1722095,16.5319071 48.4432224,17.2472154 C48.8295507,17.5945206 49.229537,18.0140185 49.6412303,18.5037578 C50.0538991,18.9798391 50.4538854,19.4764075 50.8402137,19.9915119 C51.5424127,20.9263983 52.1693959,21.9154789 52.7152715,22.9494596 L49.4100186,22.9494596 C49.2031964,22.6148369 48.9651558,22.2470445 48.6939456,21.8470582 C48.4331657,21.4303378 48.155882,21.0241757 47.8627545,20.6295389 C47.5686997,20.2200061 47.252806,19.8266045 46.9164453,19.4510425 C46.6236042,19.1062552 46.2996469,18.7891558 45.9486735,18.5037578 L45.9486735,22.9494596 L43.068772,22.9494596 L43.068772,8.41141984 L45.9486735,7.94802105 L45.9486735,16.4550474 L45.9496491,16.4540718 Z M62.7363925,22.6021544 C62.2466531,22.7436129 61.6144796,22.872389 60.8418231,22.9884826 C60.0691665,23.1172587 59.2565114,23.1816468 58.4058088,23.1816468 C57.5424236,23.1816468 56.8204971,23.0655532 56.2410047,22.8343415 C55.6741948,22.6021544 55.2225029,22.2792386 54.8878802,21.8675453 C54.5433642,21.4223562 54.2994013,20.9078042 54.1727827,20.3593042 C54.0256299,19.732073 53.9542282,19.0894579 53.960107,18.4452233 L53.960107,12.7810266 L56.8400086,12.7810266 L56.8400086,18.0979181 C56.8400086,19.0247157 56.9629312,19.6959122 57.2078009,20.1076055 C57.451695,20.5202743 57.9102159,20.7270965 58.5804369,20.7270965 C58.7862836,20.7270965 59.0057883,20.7202675 59.2379754,20.707585 C59.4691871,20.6812444 59.6760093,20.6558794 59.8564909,20.6295389 L59.8564909,12.7810266 L62.7363925,12.7810266 L62.7363925,22.6021544 L62.7363925,22.6021544 Z M74.9135373,17.8657309 C74.9135373,18.6774104 74.7906146,19.4120195 74.545745,20.069558 C74.3312777,20.6982976 73.9816237,21.2723961 73.5213897,21.7514517 C73.0516239,22.2278107 72.4845897,22.5971816 71.8590075,22.8343415 C71.201469,23.0782357 70.4541775,23.2011583 69.6151818,23.2011583 C69.2678766,23.2011583 68.9010598,23.1816468 68.513756,23.1426237 C68.1389101,23.1170058 67.7650471,23.0786108 67.3928187,23.0275057 C67.0318554,22.9758001 66.6835746,22.9172655 66.3489519,22.8528775 C66.0500046,22.785242 65.7532799,22.7081326 65.4592262,22.6216659 L65.4592262,8.41141984 L68.3401034,7.94802105 L68.3401034,13.0132138 C69.0094476,12.7157675 69.7344133,12.5641233 70.46686,12.5683509 C71.1887865,12.5683509 71.8268135,12.697127 72.3809409,12.9546792 C72.9239067,13.1912996 73.4013045,13.556211 73.7721129,14.0180575 C74.1467342,14.4824319 74.4296514,15.0424127 74.6228155,15.6999512 C74.8169552,16.3438317 74.9135373,17.0657582 74.9135373,17.8657309 L74.9135373,17.8657309 Z M71.9751011,17.7876848 C71.9751011,15.9321384 71.2921976,15.0043652 69.9254151,15.0043652 C69.6288398,15.0043652 69.3322646,15.0433883 69.0356894,15.1204588 C68.7527722,15.1975294 68.520585,15.2941114 68.3401034,15.410205 L68.3401034,20.6490504 C68.481562,20.6753909 68.6620436,20.7007559 68.8815483,20.7270965 C69.1000774,20.739779 69.3390936,20.746608 69.5966458,20.746608 C70.3829604,20.746608 70.9761109,20.4753978 71.3751216,19.9339529 C71.7751079,19.392508 71.9741255,18.6774104 71.9751011,17.7876848 Z M76.6432342,17.9428014 C76.6432342,17.0403932 76.7798149,16.2550542 77.0500496,15.5838576 C77.3329668,14.9009541 77.7007591,14.3341443 78.152451,13.8824524 C78.5923636,13.4387982 79.1186515,13.0901532 79.6987396,12.8580971 C80.2769743,12.6288601 80.8932466,12.5107026 81.5152629,12.5098164 C82.959116,12.5098164 84.1005404,12.9546792 84.9375849,13.8444049 C85.7746295,14.7204725 86.1941273,16.016038 86.1941273,17.7301258 C86.1941273,17.8979249 86.1872983,18.08426 86.1746158,18.2910822 C86.1619333,18.4842463 86.1492508,18.6578989 86.1355928,18.8130156 L79.6011819,18.8130156 C79.66557,19.4051905 79.9426337,19.8763939 80.4333486,20.2236991 C80.923088,20.5719798 81.5796509,20.7456324 82.404013,20.7456324 C82.9327754,20.7456324 83.4478797,20.7007559 83.9512772,20.6110029 C84.4673571,20.5075918 84.8858794,20.3846692 85.2078196,20.2432106 L85.5951234,22.5826428 C85.4400068,22.6606889 85.2341602,22.7367839 84.9756324,22.81483 C84.6904067,22.8980974 84.4000409,22.9626231 84.1063938,23.0079942 C83.7971361,23.0723822 83.4625134,23.1240877 83.1015501,23.1621352 C82.7405868,23.2011583 82.3796236,23.2206698 82.0186603,23.2206698 C81.1035696,23.2206698 80.303597,23.0850647 79.6206935,22.81483 C78.9504725,22.5436198 78.3904916,22.176803 77.9387997,21.7124287 C77.4959203,21.2271902 77.1601915,20.6541244 76.9534675,20.0305349 C76.742256,19.3549594 76.6375897,18.6506013 76.6432342,17.9428014 L76.6432342,17.9428014 Z M83.4098323,16.8404001 C83.397412,16.5970533 83.3521247,16.3565057 83.2752027,16.1253025 C83.2127954,15.8973174 83.1004983,15.6860521 82.9464335,15.5067871 C82.7949548,15.3185304 82.6032919,15.1665333 82.385477,15.0619243 C82.1659723,14.9458307 81.8889086,14.8882717 81.5542859,14.8882717 C81.2675177,14.8810593 80.9829889,14.9405031 80.7230948,15.0619243 C80.50007,15.1582336 80.3016529,15.3036284 80.1426268,15.4872756 C79.9831943,15.6763113 79.8589555,15.8924075 79.7758101,16.1253025 C79.697764,16.3574897 79.640205,16.5955304 79.6011819,16.8404001 L83.4098323,16.8404001 L83.4098323,16.8404001 Z M94.5450614,15.3331345 C94.244337,15.2595485 93.9414429,15.1951306 93.6367998,15.1399704 C93.2682259,15.0600953 92.8920109,15.0208381 92.5148869,15.0229012 C92.3353809,15.0229012 92.1158762,15.0424127 91.858324,15.0814358 C91.6134543,15.1077763 91.4261437,15.1399704 91.2973676,15.1789934 L91.2973676,22.9494596 L88.4164904,22.9494596 L88.4164904,13.3224715 C88.9325703,13.1419899 89.5384033,12.9741907 90.2339893,12.8200497 C91.0079338,12.6452646 91.7995335,12.5608011 92.592933,12.5683509 C92.7470741,12.5683509 92.9343848,12.5810334 93.1529139,12.607374 C93.3724186,12.6200565 93.5919233,12.6463971 93.8104524,12.6844445 C94.0299571,12.7098095 94.2494618,12.7488326 94.4679909,12.8005381 C94.6874956,12.8395612 94.8738307,12.8902912 95.0289474,12.9546792 L94.5450614,15.3331345 L94.5450614,15.3331345 Z M96.5732848,13.1283318 C97.0630242,12.9868732 97.6942221,12.8580971 98.4678542,12.7420035 C99.2728296,12.6106705 100.087279,12.5460628 100.902893,12.5488394 C101.767254,12.5488394 102.482351,12.664933 103.049161,12.8971202 C103.629629,13.1156493 104.087174,13.4317361 104.421797,13.8434293 C104.757395,14.2570737 104.995436,14.7468131 105.136895,15.313623 C105.285137,15.9340482 105.356564,16.5703411 105.34957,17.2081924 L105.34957,22.9494596 L102.469669,22.9494596 L102.469669,17.5564731 C102.469669,16.6277244 102.346746,15.9711615 102.101876,15.5838576 C101.857007,15.1975294 101.399461,15.0043652 100.72924,15.0043652 C100.50951,15.0052634 100.289996,15.0182909 100.071702,15.0433883 C99.8647806,15.0534226 99.658406,15.0726278 99.4531864,15.1009473 L99.4531864,22.9494596 L96.5732848,22.9494596 L96.5732848,13.1293074 L96.5732848,13.1283318 Z M107.492912,17.9428014 C107.492912,17.0403932 107.627541,16.2550542 107.898751,15.5838576 C108.181669,14.9009541 108.549461,14.3341443 109.001153,13.8824524 C109.441065,13.4387982 109.967353,13.0901532 110.547441,12.8580971 C111.125981,12.6287396 111.742596,12.5105799 112.36494,12.5098164 C113.808793,12.5098164 114.948267,12.9546792 115.786287,13.8444049 C116.624307,14.7204725 117.042829,16.016038 117.042829,17.7301258 C117.042829,17.8979249 117.036976,18.08426 117.023318,18.2910822 C117.010635,18.4842463 116.997953,18.6578989 116.984295,18.8130156 L110.450859,18.8130156 C110.515247,19.4051905 110.792311,19.8763939 111.28205,20.2236991 C111.77179,20.5719798 112.429328,20.7456324 113.25369,20.7456324 C113.782453,20.7456324 114.297557,20.7007559 114.799979,20.6110029 C115.316059,20.5075918 115.734581,20.3846692 116.056521,20.2432106 L116.443825,22.5826428 C116.244409,22.6769621 116.037532,22.7546226 115.82531,22.81483 C115.539725,22.897986 115.249042,22.9625098 114.955096,23.0079942 C114.645838,23.0723822 114.311215,23.1240877 113.950252,23.1621352 C113.589289,23.2011583 113.228325,23.2206698 112.867362,23.2206698 C111.952271,23.2206698 111.153274,23.0850647 110.470371,22.81483 C109.80015,22.5436198 109.239193,22.176803 108.787502,21.7124287 C108.344622,21.2271902 108.008893,20.6541244 107.802169,20.0305349 C107.591288,19.3549071 107.486951,18.6505501 107.492912,17.9428014 L107.492912,17.9428014 Z M114.25951,16.8404001 C114.246447,16.5969648 114.200503,16.3564166 114.122929,16.1253025 C114.06081,15.8974025 113.94885,15.686144 113.795135,15.5067871 C113.643657,15.3185304 113.451994,15.1665333 113.234179,15.0619243 C113.01565,14.9458307 112.738586,14.8882717 112.402988,14.8882717 C112.11622,14.8810593 111.831691,14.9405031 111.571797,15.0619243 C111.34914,15.1583892 111.151073,15.3037714 110.992304,15.4872756 C110.832525,15.6762359 110.707953,15.8923367 110.624512,16.1253025 C110.546466,16.3574897 110.488907,16.5955304 110.450859,16.8404001 L114.25951,16.8404001 L114.25951,16.8404001 Z M119.169586,10.2484302 L122.049487,9.78405586 L122.049487,12.7810266 L125.509857,12.7810266 L125.509857,15.1780179 L122.049487,15.1780179 L122.049487,18.754481 C122.049487,19.3603139 122.152898,19.8441998 122.358745,20.2041875 C122.57825,20.5651508 123.01043,20.7456324 123.65431,20.7456324 C123.963568,20.7456324 124.278679,20.7202675 124.601595,20.6685619 C124.937193,20.6041739 125.239622,20.5202743 125.509857,20.4168632 L125.916672,22.6606889 C125.568391,22.801172 125.182063,22.9240946 124.755736,23.0275057 C124.331361,23.1299412 123.809427,23.1816468 123.189936,23.1816468 C122.404597,23.1816468 121.752912,23.0792112 121.237808,22.872389 C120.722703,22.6538599 120.310035,22.3572847 120.000777,21.9836389 C119.680573,21.5744003 119.455914,21.0987499 119.343238,20.5914914 C119.222375,19.9999234 119.164169,19.3972684 119.169586,18.793504 L119.169586,10.2484302 Z M126.976148,17.9428014 C126.976148,17.0403932 127.111753,16.2550542 127.381988,15.5838576 C127.664905,14.9009541 128.032697,14.3341443 128.484389,13.8824524 C128.924302,13.4387982 129.45059,13.0901532 130.030678,12.8580971 C130.609218,12.6287396 131.225832,12.5105799 131.848177,12.5098164 C133.29203,12.5098164 134.432479,12.9546792 135.269523,13.8444049 C136.108519,14.7204725 136.526066,16.016038 136.526066,17.7301258 C136.526066,17.8979249 136.520212,18.08426 136.506554,18.2910822 C136.493872,18.4842463 136.481189,18.6578989 136.468507,18.8130156 L129.934096,18.8130156 C129.998484,19.4051905 130.275548,19.8763939 130.765287,20.2236991 C131.255026,20.5719798 131.912565,20.7456324 132.736927,20.7456324 C133.265689,20.7456324 133.780794,20.7007559 134.284191,20.6110029 C134.799295,20.5075918 135.218793,20.3846692 135.540734,20.2432106 L135.927062,22.5826428 C135.772921,22.6606889 135.566099,22.7367839 135.308546,22.81483 C135.023016,22.8981958 134.732319,22.9627227 134.438332,23.0079942 C134.129074,23.0723822 133.794452,23.1240877 133.433488,23.1621352 C133.072525,23.2011583 132.711562,23.2206698 132.350599,23.2206698 C131.435508,23.2206698 130.636511,23.0850647 129.953607,22.81483 C129.283386,22.5436198 128.72243,22.176803 128.271714,21.7124287 C127.828834,21.2271902 127.493105,20.6541244 127.286381,20.0305349 C127.07517,19.3549594 126.970504,18.6506013 126.976148,17.9428014 L126.976148,17.9428014 Z M133.742746,16.8404001 C133.73001,16.5970083 133.684395,16.3564596 133.607141,16.1253025 C133.544734,15.8973174 133.432437,15.6860521 133.278372,15.5067871 C133.127173,15.3186447 132.935854,15.1666558 132.718391,15.0619243 C132.498886,14.9458307 132.221823,14.8882717 131.886224,14.8882717 C131.599456,14.8810593 131.314927,14.9405031 131.055033,15.0619243 C130.832377,15.1583892 130.63431,15.3037714 130.475541,15.4872756 C130.315761,15.6762359 130.191189,15.8923367 130.107748,16.1253025 C130.030541,16.358557 129.972464,16.5977139 129.934096,16.8404001 L133.742746,16.8404001 L133.742746,16.8404001 Z M141.668329,20.8812376 C142.197091,20.8812376 142.570737,20.829532 142.790242,20.7270965 C143.008771,20.6236854 143.119011,20.4236922 143.119011,20.127117 C143.119011,19.8949298 142.976577,19.6959122 142.69366,19.5281131 C142.409767,19.3476314 141.977587,19.1476383 141.398094,18.9291092 C140.947378,18.76131 140.534709,18.5876574 140.161063,18.4071758 C139.821552,18.2417373 139.508542,18.0267078 139.232315,17.7691488 C138.973467,17.5094899 138.769726,17.2002286 138.633311,16.8599116 C138.491852,16.5126064 138.420635,16.0931085 138.420635,15.6033692 C138.420635,14.650231 138.774769,13.8961104 139.484013,13.341983 C140.193257,12.7878556 141.165907,12.5098164 142.402938,12.5098164 C143.021453,12.5098164 143.614604,12.5683509 144.181414,12.6844445 C144.749199,12.7878556 145.199916,12.9029737 145.535514,13.0327253 L145.032116,15.2745999 C144.697494,15.1585063 144.329701,15.0560708 143.929715,14.9653422 C143.498265,14.8703048 143.057379,14.8248088 142.615614,14.8297371 C141.714181,14.8297371 141.262489,15.0814358 141.262489,15.5838576 C141.262489,15.7009268 141.282001,15.8033623 141.321024,15.8931154 C141.360047,15.983844 141.437117,16.073597 141.552235,16.1643256 C141.669305,16.2423717 141.823446,16.3321247 142.01661,16.4345603 C142.222456,16.5252889 142.480984,16.6277244 142.790242,16.743818 C143.42144,16.9760052 143.943373,17.2081924 144.356042,17.4403796 C144.768711,17.6589087 145.090651,17.9037784 145.321863,18.1749886 C145.567708,18.4325408 145.734531,18.722287 145.82526,19.0442272 C145.928671,19.3661674 145.979401,19.7407887 145.979401,20.1661401 C145.979401,21.1709838 145.598926,21.9319334 144.838952,22.4470377 C144.091661,22.9631176 143.028283,23.2206698 141.648817,23.2206698 C140.747385,23.2206698 139.993264,23.1426237 139.387431,22.9884826 C138.794281,22.8343415 138.382588,22.7055655 138.1504,22.6021544 L138.633311,20.2627221 C139.12305,20.4558863 139.625472,20.6110029 140.141552,20.7270965 C140.656656,20.829532 141.165907,20.8812376 141.668329,20.8812376 L141.668329,20.8812376 Z" id="Shape" fill="#333333"></path>
                    <path d="M15.882384,0.0487788207 C15.6002833,0.0625182833 15.3237216,0.132156124 15.0687533,0.253649868 L3.98132735,5.55590768 C3.40090464,5.8323601 2.9784333,6.35865305 2.83404948,6.98512713 L0.0985332178,18.8939884 C-0.0455808248,19.5190547 0.105091841,20.1756855 0.507299735,20.6753909 L8.18118381,30.2253085 C8.58567557,30.7265778 9.19554925,31.0175234 9.83966371,31.0165009 L22.1465602,31.0145498 C22.790511,31.0158101 23.4003558,30.725237 23.8050401,30.2243329 L31.4759974,20.6724642 C31.8784136,20.1728599 32.0294347,19.5162776 31.8857395,18.8910617 L29.1463209,6.98122482 C29.0016694,6.3551166 28.579235,5.82922883 27.9990431,5.55298095 L16.909666,0.253649868 C16.5892894,0.100895366 16.2358661,0.0304789529 15.8814084,0.0487788207 L15.882384,0.0487788207 Z" id="Shape" fill="#326CE5"></path>
                    <path d="M15.9916486,4.10132325 C15.6248318,4.10132325 15.3282566,4.43204365 15.3282566,4.83885901 L15.3282566,4.85837054 C15.3282566,4.91300282 15.3263055,4.98031759 15.3282566,5.02812084 C15.3360612,5.26225918 15.3867912,5.44274081 15.4189852,5.65931878 C15.4745931,6.12271758 15.5214207,6.50807026 15.4921535,6.86415565 C15.4546387,6.99666693 15.3801989,7.1157707 15.2775266,7.20755855 L15.2609418,7.48852456 C14.8629067,7.52169415 14.4609692,7.58217989 14.0609829,7.67388407 C12.4009998,8.04947102 10.8912036,8.91274558 9.72552127,10.1528237 C9.64477421,10.0969765 9.56476994,10.0400629 9.48552947,9.98209787 C9.36650915,9.99868267 9.24748883,10.034779 9.0913966,9.94405039 C8.7938458,9.74405722 8.52361113,9.4679691 8.19679303,9.13529754 C8.04655426,8.97627859 7.93826528,8.82506424 7.7597348,8.67092317 C7.71876059,8.63677799 7.65729927,8.58897475 7.61242276,8.553854 C7.48108047,8.44728114 7.3189751,8.38572214 7.14999954,8.37825024 C6.94649369,8.36751562 6.75007228,8.45449189 6.62123712,8.61238858 C6.39197667,8.90018363 6.4651449,9.33821744 6.78415838,9.5918673 L6.79391415,9.59967192 C6.83781509,9.63479267 6.89147179,9.68064476 6.93147042,9.70991205 C7.12073225,9.84941948 7.2924337,9.92161213 7.48169552,10.0318523 C7.87875512,10.2776975 8.20752437,10.4806174 8.46897885,10.7264627 C8.5704388,10.8347517 8.58799917,11.0269402 8.60165724,11.1098642 L8.8143329,11.299126 C7.64073262,13.0616623 7.15858587,15.1951964 7.46023284,17.2911164 L7.18219356,17.3720892 C7.10902533,17.4667201 7.00658981,17.6159833 6.89732525,17.6608598 C6.5558735,17.7681732 6.1714964,17.8071963 5.70712202,17.8559751 C5.48956848,17.8745111 5.30225781,17.8637797 5.0710462,17.9076807 C5.02031623,17.9174364 4.94909915,17.9359724 4.89349129,17.9486549 L4.88763783,17.9496304 L4.87788207,17.9525572 C4.48765151,18.0471881 4.23595279,18.4071758 4.31692563,18.7622856 C4.39789848,19.1164198 4.77934885,19.3320222 5.17348172,19.2471471 L5.18323749,19.2461715 L5.19591998,19.2412936 C5.25055226,19.2295867 5.31981819,19.2159286 5.36762143,19.2032461 C5.59395516,19.1427604 5.75882757,19.0530074 5.96272304,18.9749613 C6.40173243,18.8169179 6.76562243,18.6852151 7.11975667,18.6335095 C7.26804429,18.6227782 7.42413651,18.7252137 7.50120705,18.7691146 L7.79095324,18.7193602 C8.44008355,20.72722 9.80136999,22.4282208 11.6181395,23.5016358 L11.497168,23.791382 C11.541069,23.9035733 11.5888722,24.0557632 11.5557026,24.1669789 C11.4279021,24.5016016 11.2074218,24.8547603 10.9557231,25.2479176 C10.8337761,25.4293748 10.7098779,25.5698578 10.5996377,25.7786312 C10.5732972,25.82741 10.5411032,25.9054561 10.5147626,25.9571617 C10.3440367,26.3230028 10.4698861,26.7434762 10.7976798,26.9015196 C11.126449,27.059563 11.5361911,26.8917639 11.7127704,26.5268983 L11.7147216,26.5249471 L11.7147216,26.5239715 C11.7400866,26.4712904 11.7752073,26.4030001 11.79667,26.3542213 C11.8913009,26.1395944 11.9225194,25.9542349 11.987883,25.7454616 C12.1634867,25.304501 12.2610444,24.8411022 12.5020117,24.5523316 C12.5683509,24.4742855 12.6756643,24.4430671 12.7878556,24.4128242 L12.9380944,24.1406384 C14.9080057,24.9002264 17.0890057,24.9057848 19.0627631,24.1562476 L19.2042217,24.4118486 C19.3183642,24.4489205 19.4422624,24.4674565 19.5437223,24.6167197 C19.7242039,24.926953 19.8481021,25.2927941 19.9983409,25.7347302 C20.0646801,25.942528 20.0978497,26.1278875 20.191505,26.3434899 C20.2129677,26.3922687 20.2490641,26.4615347 20.2734535,26.5132402 C20.4510084,26.8810325 20.8607505,27.0498072 21.1904953,26.8898127 C21.5192645,26.7317693 21.6441383,26.3112959 21.4734125,25.9464303 C21.4480475,25.8937492 21.4129267,25.8166786 21.3865862,25.7669243 C21.2773216,25.5591265 21.1524478,25.419619 21.0314763,25.2381618 C20.7797776,24.844029 20.5710043,24.5172109 20.4422282,24.1835637 C20.3885715,24.0108867 20.4519839,23.9035733 20.4939337,23.791382 C20.4685687,23.7621147 20.414912,23.600169 20.382718,23.5230985 C22.2056305,22.4411847 23.5673513,20.7270553 24.2089287,18.7066777 C24.2947794,18.7203358 24.4440426,18.7457008 24.4918459,18.7554566 C24.5923302,18.6900929 24.6840344,18.6042422 24.8645161,18.6188759 C25.2186503,18.6696058 25.5825403,18.8013087 26.0215497,18.959352 C26.2254452,19.0373981 26.389342,19.1281268 26.6166513,19.1886125 C26.6654301,19.2022706 26.7337205,19.2139775 26.7883528,19.2256844 L26.8010352,19.2305623 L26.810791,19.2315379 C27.2049239,19.316413 27.5863743,19.1008106 27.6673471,18.7466764 C27.7483199,18.3915666 27.4975968,18.0315789 27.1063907,17.936948 C27.0488317,17.9242655 26.9688344,17.9028028 26.9132265,17.8920714 C26.6820149,17.8481705 26.4937287,17.8589018 26.2761751,17.8403659 C25.8127763,17.7915871 25.4274237,17.752564 25.0859719,17.6452506 C24.9474401,17.5906183 24.8489068,17.4247703 24.800128,17.35648 L24.5318445,17.2784339 C24.6743981,16.245139 24.6274539,15.1945153 24.3933127,14.178052 C24.1585026,13.1506347 23.7368803,12.1751164 23.1494527,11.3001016 L23.3855422,11.0893771 C23.395298,10.9703568 23.3865178,10.845483 23.5094404,10.7137802 C23.7708949,10.4679349 24.0996642,10.265015 24.4967238,10.0191698 C24.68501,9.90892964 24.8596382,9.83673698 25.0489,9.69722956 C25.0908498,9.66601111 25.1493844,9.61528114 25.1952365,9.58016039 C25.5132744,9.32553494 25.585467,8.88750113 25.3571822,8.60068167 C25.1288973,8.3138622 24.6859856,8.28654606 24.3679477,8.54019593 C24.3220956,8.57629226 24.2606343,8.62311992 24.2206356,8.65824068 C24.0421052,8.81140617 23.931865,8.96359609 23.7816262,9.12261505 C23.4548081,9.45431103 23.1845735,9.73235031 22.8870227,9.93234347 C22.7582466,10.0074629 22.5699603,9.98112229 22.4850852,9.97721999 L22.2314353,10.156726 C20.7787212,8.63092699 18.8214059,7.68450992 16.7233309,7.49340244 C16.7172225,7.39459375 16.7120192,7.2957312 16.7077217,7.19682721 C16.6208954,7.11390321 16.5165087,7.04366171 16.4901681,6.86513123 C16.4609008,6.50709468 16.5096797,6.12369315 16.5652875,5.65931878 C16.596506,5.44274081 16.6472359,5.26323475 16.6560161,5.02812084 C16.6579673,4.97446414 16.6560161,4.8973936 16.6550405,4.83885901 C16.6550405,4.43204365 16.3574897,4.10132325 15.9916486,4.10132325 L15.9916486,4.10132325 Z M15.1604575,9.25236671 L14.963391,12.7371257 L14.9487574,12.7439547 C14.9395925,12.9593734 14.812743,13.152312 14.6186049,13.2461182 C14.4244668,13.3399245 14.1944773,13.319408 14.0200086,13.1927198 L14.0141552,13.1956466 L11.1596186,11.1703499 C12.2429834,10.1042714 13.6507905,9.42971859 15.1604575,9.25334229 L15.1604575,9.25236671 Z M16.8238153,9.25236671 C18.3240023,9.43887838 19.721241,10.1135019 20.8002647,11.1723011 L17.9642641,13.1839397 L17.9545083,13.1800374 C17.7802904,13.3076569 17.5499563,13.3289817 17.3552699,13.2355159 C17.1605836,13.1420501 17.033177,12.9489798 17.0238084,12.7332234 L17.0208817,12.7312722 L16.8238153,9.25334229 L16.8238153,9.25236671 Z M10.124532,12.4717689 L12.7312722,14.8053477 L12.7283455,14.8190057 C12.891525,14.960565 12.963472,15.1804929 12.9155082,15.3911254 C12.8675444,15.6017579 12.7074677,15.7688509 12.499085,15.8258006 L12.4961583,15.8365319 L9.15480907,16.8023526 C8.98820101,15.2911926 9.32937783,13.7675669 10.124532,12.4717689 L10.124532,12.4717689 Z M21.8392536,12.47372 C22.633332,13.7655923 22.9844058,15.2812035 22.8392194,16.7906457 L19.4812854,15.8228739 L19.4783587,15.8082402 C19.270411,15.7510715 19.1107438,15.5841887 19.0628161,15.3739187 C19.0148884,15.1636488 19.0864651,14.9440577 19.2490982,14.8024209 L19.2471471,14.7955919 L21.8392536,12.47372 L21.8392536,12.47372 Z M15.4570327,14.9848537 L16.5243133,14.9848537 L17.1877053,15.8150692 L16.9496646,16.8511314 L15.9916486,17.312579 L15.0297302,16.8501558 L14.7916896,15.8140937 L15.4570327,14.9848537 Z M18.8803303,17.8267078 C18.9254334,17.824722 18.9706143,17.827996 19.0149599,17.8364636 L19.0208133,17.8296345 L22.476305,18.4149804 C21.9663114,19.8496115 20.9927846,21.0733855 19.7095703,21.8929103 L18.3681527,18.6500943 L18.372055,18.6442409 C18.2961573,18.468119 18.3111899,18.2660117 18.4123079,18.1030561 C18.5134259,17.9401006 18.6878462,17.8368973 18.8793548,17.8267078 L18.8803303,17.8267078 Z M13.0756507,17.8403659 C13.2709364,17.8433536 13.4518666,17.9435446 13.558025,18.107483 C13.6641835,18.2714214 13.6815828,18.4775069 13.6044131,18.6569233 L13.6141689,18.6696058 L12.2873849,21.8792522 C11.0131094,21.0628949 10.0437051,19.8489963 9.52943041,18.4257117 L12.9556548,17.8432926 L12.9615082,17.8510972 C12.9990653,17.843546 13.0373569,17.8402732 13.0756507,17.8413415 L13.0756507,17.8403659 Z M15.9701859,19.2471471 C16.1934138,19.2382941 16.4019738,19.3581213 16.5067529,19.5554292 L16.5184598,19.5554292 L18.2081582,22.6089834 C17.9864305,22.6833161 17.7611145,22.7464827 17.5330593,22.7982452 C16.2413961,23.0909181 14.9536353,23.0031163 13.7868459,22.6050811 L15.4726419,19.5564048 L15.4755687,19.5564048 C15.5736719,19.3726561 15.7620322,19.2548844 15.9701859,19.2471471 L15.9701859,19.2471471 Z" id="Shape" stroke="#FFFFFF" stroke-width="0.25" fill="#FFFFFF"></path>
                </g>
            </g>
        </g>
    </g>
</svg>