<?xml version="1.0" encoding="UTF-8"?>
<svg width="179px" height="25px" viewBox="0 0 179 25" version="1.1" xmlns="http://www.w3.org/2000/svg" xmlns:xlink="http://www.w3.org/1999/xlink">
    <!-- Generator: Sketch 47.1 (45422) - http://www.bohemiancoding.com/sketch -->
    <title>microsoft-azure</title>
    <desc>Created with Sketch.</desc>
    <defs></defs>
    <g id="Page-1" stroke="none" stroke-width="1" fill="none" fill-rule="evenodd">
        <g id="microsoft-azure" fill-rule="nonzero">
            <path d="M0.117109302,3.53084545 L10.2929708,2.13209195 L10.2929708,11.9514727 L0.118046176,11.9514727 L0.117109302,3.53084545 Z M10.2929708,13.2080555 L10.2929708,22.9164167 L0.118514614,21.5197711 L0.118280395,13.208524 L10.293205,13.208524 L10.293205,13.2080555 L10.2929708,13.2080555 Z M11.4181569,1.9777419 L24.9583344,0.116406646 L24.9583344,11.9514727 L11.4181569,11.9514727 L11.4181569,1.9777419 Z M24.9583344,13.2080555 L24.9583344,24.9304624 L11.4181569,23.0705324 L11.4181569,13.2080555 L24.9583344,13.2080555 Z" id="Shape" fill="#0DADEA"></path>
            <g id="Group" transform="translate(32.556386, 4.684372)" fill="#00ADEF">
                <path d="M15.3888649,15.1740865 L13.0366075,15.1740865 L13.0366075,6.07914388 C13.0366075,5.33362606 13.083217,4.42321834 13.1762018,3.34417324 L13.1368531,3.34417324 C12.989998,3.9582944 12.8604751,4.39909381 12.7480502,4.66797678 L8.48246096,15.1740865 L6.84784933,15.1740865 L2.5719545,4.74667423 C2.452503,4.43984786 2.32602496,3.97234753 2.19345722,3.34534433 L2.1541085,3.34534433 C2.20774456,3.90746897 2.23397704,4.82513747 2.23397704,6.09905245 L2.23397704,15.1740865 L0.0409882556,15.1740865 L0.0409882556,1.12003336 L3.37977445,1.12003336 L7.13734352,10.4798772 C7.422856,11.1984599 7.60905979,11.7348205 7.69501801,12.0870853 L7.74467236,12.0870853 C7.99060189,11.348594 8.18968771,10.7993514 8.34263246,10.4400601 L12.1702328,1.12003336 L15.3895675,1.12003336 L15.3886308,15.1740865 L15.3888649,15.1740865 Z M19.804354,3.03078874 C19.4258567,3.03078874 19.1009957,2.91040037 18.8328154,2.66845256 C18.563464,2.42673895 18.4290223,2.11920992 18.4290223,1.74703657 C18.4290223,1.37486321 18.563464,1.06428934 18.8328154,0.815549179 C19.1021666,0.567745896 19.4258567,0.443141599 19.804354,0.443141599 C20.1959675,0.443141599 20.5290264,0.567745896 20.8011883,0.815549179 C21.0733505,1.06428934 21.2101342,1.37369212 21.2101342,1.74703657 C21.2101342,2.09930135 21.0733505,2.40191178 20.8011883,2.65346257 C20.5278553,2.90548177 20.1959675,3.03078874 19.804354,3.03078874 Z M20.9499172,15.1740865 L18.6384138,15.1740865 L18.6384138,5.1378193 L20.9501515,5.1378193 L20.9501515,15.1740865 L20.9499172,15.1740865 Z M31.2859843,14.7133784 C30.469264,15.1771313 29.501707,15.4090076 28.3854211,15.4090076 C26.8704952,15.4090076 25.647874,14.9433811 24.7175578,14.0128307 C23.7877099,13.0822801 23.3220833,11.8751174 23.3220833,10.3913426 C23.3220833,8.73822768 23.82214,7.41067663 24.8220192,6.40728413 C25.8221327,5.40436007 27.1588183,4.90266382 28.8337156,4.90266382 C29.7637975,4.90266382 30.5844996,5.06286935 31.2951188,5.3835146 L31.2951188,7.50014814 C30.5835626,6.97784064 29.8265681,6.71598426 29.0231983,6.71598426 C28.0465067,6.71598426 27.2459476,7.0415481 26.6215207,7.69127052 C25.997094,8.34122716 25.6841779,9.19214333 25.6841779,10.2440191 C25.6841779,11.2830128 25.9776539,12.1030122 26.5657766,12.7040171 C27.1536654,13.3052562 27.9429822,13.6057588 28.9330241,13.6057588 C29.7637975,13.6057588 30.5470247,13.3153277 31.2848132,12.733997 L31.2859843,14.7133784 L31.2859843,14.7133784 Z M39.50776,7.30410716 C39.2283371,7.08815761 38.8266523,6.9808855 38.3015341,6.9808855 C37.6171474,6.9808855 37.0454197,7.28419859 36.587054,7.89223009 C36.128454,8.49932471 35.8989197,9.32635058 35.8989197,10.371434 L35.8989197,15.1740865 L33.5862451,15.1740865 L33.5862451,5.1378193 L35.8989197,5.1378193 L35.8989197,7.20573535 L35.9382684,7.20573535 C36.164055,6.5000347 36.511167,5.94962099 36.9796043,5.5544942 C37.4480416,5.15960162 37.97152,4.96145268 38.5493374,4.96145268 C38.9683546,4.96145268 39.287126,5.02422328 39.506823,5.14765648 L39.50776,7.30410716 L39.50776,7.30410716 Z M45.6871494,15.4090076 C44.1124976,15.4090076 42.8554464,14.9403364 41.9143561,14.0027592 C40.9742026,13.0654164 40.5036574,11.822184 40.5036574,10.2739991 C40.5036574,8.58785934 40.9934086,7.27131656 41.9740818,6.32390231 C42.954755,5.37648805 44.2743427,4.90266382 45.9361237,4.90266382 C47.5311523,4.90266382 48.7729794,5.36360603 49.6634786,6.28502202 C50.554212,7.20667223 50.9985246,8.48339783 50.9985246,10.1166042 C50.9985246,11.7179568 50.5188449,12.9998352 49.5583144,13.9629421 C48.598955,14.9274542 47.3086447,15.4090076 45.6871494,15.4090076 L45.6871494,15.4090076 Z M45.7965294,6.71598426 C44.892914,6.71598426 44.1783131,7.02655812 43.654132,7.64653477 C43.1287795,8.26744828 42.866689,9.12328307 42.866689,10.2140391 C42.866689,11.2659149 43.1327614,12.0941118 43.6642032,12.6981616 C44.195411,13.3022114 44.9069671,13.6045876 45.7974664,13.6045876 C46.7085767,13.6045876 47.4077192,13.30713 47.8955965,12.7131516 C48.3832397,12.1180021 48.6282324,11.2720045 48.6282324,10.1742219 C48.6282324,9.07058387 48.3844108,8.21779393 47.8955965,7.61655478 C47.4067823,7.01648672 46.7074056,6.71598426 45.7965294,6.71598426 L45.7965294,6.71598426 Z M52.7240131,14.860702 L52.7240131,12.7539056 C53.5882798,13.4008175 54.5415493,13.7240392 55.5838223,13.7240392 C56.9797651,13.7240392 57.6767998,13.3190752 57.6767998,12.508913 C57.6767998,12.2800814 57.6173082,12.0861484 57.4978567,11.9257087 C57.3784052,11.7655031 57.217497,11.6233324 57.013961,11.4998992 C56.8104251,11.376466 56.5717562,11.264978 56.2965493,11.1666062 C56.0201714,11.0680001 55.7133451,10.957449 55.3744307,10.8330789 C54.9867059,10.6840739 54.6088511,10.510558 54.243155,10.313582 C53.9070512,10.1304231 53.6287996,9.92360803 53.4060577,9.69173161 C53.1867194,9.4653895 53.0156387,9.19685576 52.9031903,8.90241492 C52.7898286,8.60893902 52.7340844,8.26534031 52.7340844,7.8734926 C52.7340844,7.38983117 52.8504912,6.96378754 53.0830703,6.594659 C53.3161177,6.22529628 53.6276285,5.91495664 54.0194761,5.6641085 C54.4120266,5.4123235 54.8563393,5.22330908 55.3552249,5.09589416 C55.8599837,4.96766153 56.3788715,4.90344974 56.8996624,4.90477178 C57.8428607,4.90477178 58.6867504,5.04506873 59.4308628,5.32566263 L59.4308628,7.31511545 C58.713217,6.83145403 57.8894702,6.5895062 56.959388,6.5895062 C56.666849,6.5895062 56.4026506,6.61948618 56.1670266,6.67710397 C55.9311684,6.73589284 55.7297404,6.81763512 55.5636793,6.92209663 C55.3978526,7.02655812 55.2683297,7.15186507 55.1751108,7.29918857 C55.0827024,7.4439128 55.0342153,7.61231578 55.0355165,7.78402109 C55.0355165,7.99973641 55.082126,8.18289536 55.1751108,8.3332637 C55.2683297,8.48339783 55.4058162,8.61573134 55.588975,8.73026425 C55.7711971,8.84479715 55.9908941,8.94925864 56.2468951,9.04364873 C56.502896,9.13827306 56.796372,9.24179767 57.1294307,9.35234886 C57.5318458,9.51229186 57.9259843,9.69231988 58.310361,9.89175431 C58.659581,10.074679 58.9570386,10.2817283 59.202968,10.5136047 C59.4451621,10.7400267 59.6383856,11.0136803 59.770714,11.3176772 C59.903516,11.6212245 59.9702682,11.9826238 59.9702682,12.4004698 C59.9702682,12.9101294 59.8508167,13.3537394 59.6109769,13.7331737 C59.372074,14.1123736 59.0523655,14.425758 58.6546624,14.6735614 C58.255788,14.9223014 57.7953143,15.1063973 57.2741779,15.2267857 C56.7518704,15.3483451 56.2023935,15.4080709 55.6245763,15.4080709 C54.5073535,15.4090076 53.5407334,15.2267857 52.7240131,14.860702 L52.7240131,14.860702 Z M66.6972607,15.4090076 C65.1226091,15.4090076 63.864621,14.9403364 62.9242333,14.0027592 C61.9840799,13.0654164 61.5144714,11.822184 61.5144714,10.2739991 C61.5144714,8.58785934 62.0044567,7.27131656 62.9851302,6.32390231 C63.9646324,5.37648805 65.285391,4.90266382 66.9462352,4.90266382 C68.5412639,4.90266382 69.7828567,5.36360603 70.6735901,6.28502202 C71.5640891,7.20667223 72.0093386,8.48339783 72.0093386,10.1166042 C72.0093386,11.7179568 71.529659,12.9998352 70.5693628,13.9629421 C69.6090664,14.9274542 68.317585,15.4090076 66.6972607,15.4090076 L66.6972607,15.4090076 Z M66.806641,6.71598426 C65.9027912,6.71598426 65.1881903,7.02655812 64.6630722,7.64653477 C64.1377199,8.26744828 63.8756292,9.12328307 63.8756292,10.2140391 C63.8756292,11.2659149 64.1419358,12.0941118 64.6731437,12.6981616 C65.2045855,13.3022114 65.9159076,13.6045876 66.806641,13.6045876 C67.716346,13.6045876 68.4157226,13.30713 68.904537,12.7131516 C69.3933512,12.1180021 69.6371726,11.2720045 69.6371726,10.1742219 C69.6371726,9.07058387 69.3933512,8.21779393 68.904537,7.61655478 C68.4157226,7.01648672 67.716346,6.71598426 66.806641,6.71598426 L66.806641,6.71598426 Z M80.1421114,2.16886427 C79.8306006,1.99273189 79.474354,1.90419726 79.0754798,1.90419726 C77.9521674,1.90419726 77.391448,2.52815562 77.391448,3.77607234 L77.391448,5.13852194 L79.763614,5.13852194 L79.763614,6.92209663 L77.4015194,6.92209663 L77.4015194,15.1740865 L75.0890791,15.1740865 L75.0890791,6.92209663 L73.3453217,6.92209663 L73.3453217,5.13852194 L75.0890791,5.13852194 L75.0890791,3.51140531 C75.0890791,2.45273722 75.4413439,1.61868478 76.1456393,1.00760843 C76.8499346,0.396297878 77.7305965,0.0908768183 78.7871567,0.0908768183 C79.3588843,0.0908768183 79.8102235,0.15271053 80.1421114,0.277080608 L80.1421114,2.16886427 L80.1421114,2.16886427 Z M86.8096123,15.0665801 C86.3582731,15.2886194 85.7631235,15.4001075 85.025335,15.4001075 C83.0457193,15.4001075 82.0559116,14.4655752 82.0559116,12.5976818 L82.0559116,6.9230335 L80.351737,6.9230335 L80.351737,5.13969305 L82.0559116,5.13969305 L82.0559116,2.81671294 L84.368586,2.17003537 L84.368586,5.13969305 L86.8105492,5.13969305 L86.8105492,6.9230335 L84.368586,6.9230335 L84.368586,11.9404644 C84.368586,12.534677 84.477732,12.9595495 84.697429,13.2143794 C84.917126,13.4692093 85.2822727,13.5966242 85.7935721,13.5966242 C86.1851856,13.5966242 86.524334,13.486073 86.8096123,13.2630968 L86.8096123,15.0665801 L86.8096123,15.0665801 Z M106.424015,15.1740865 L103.823017,15.1740865 L102.537626,11.5963973 L96.9168478,11.5963973 L95.6811104,15.1740865 L93.0892472,15.1740865 L98.4409082,1.12003336 L101.111703,1.12003336 L106.423781,15.1740865 L106.424015,15.1740865 Z M101.909217,9.69571333 L99.9265567,4.08969106 C99.866831,3.9065321 99.8031235,3.61305619 99.7373082,3.207858 L99.6979595,3.207858 C99.6382337,3.58026558 99.5714814,3.87467837 99.4984052,4.08969106 L97.5351848,9.69571333 L101.909217,9.69571333 Z M115.672839,6.08898104 L110.161441,13.3996463 L115.652697,13.3996463 L115.652697,15.1740865 L106.92173,15.1740865 L106.92173,14.3212966 L112.552813,6.91202524 L107.460198,6.91202524 L107.460198,5.13758508 L115.672839,5.13758508 L115.672839,6.08898104 L115.672839,6.08898104 Z M126.526061,15.1740865 L124.214557,15.1740865 L124.214557,13.5858502 L124.175209,13.5858502 C123.504173,14.8009763 122.460728,15.4090076 121.046048,15.4090076 C118.634065,15.4090076 117.427839,13.9849586 117.427839,11.1356893 L117.427839,5.13758508 L119.74028,5.13758508 L119.74028,10.9007681 C119.74028,12.7042513 120.447619,13.6057588 121.863706,13.6057588 C122.547624,13.6057588 123.110452,13.3579554 123.552655,12.861412 C123.99486,12.3648685 124.215494,11.7149119 124.215494,10.9108395 L124.215494,5.13758508 L126.528169,5.13758508 L126.526061,15.1740865 L126.526061,15.1740865 Z M135.46642,7.30410716 C135.187231,7.08815761 134.785312,6.9808855 134.260194,6.9808855 C133.57604,6.9808855 133.00408,7.28419859 132.545713,7.89223009 C132.087348,8.49932471 131.857579,9.32635058 131.857579,10.371434 L131.857579,15.1740865 L129.545842,15.1740865 L129.545842,5.1378193 L131.857579,5.1378193 L131.857579,7.20573535 L131.896928,7.20573535 C132.122714,6.5000347 132.469826,5.94962099 132.938263,5.5544942 C133.406935,5.15960162 133.93018,4.96145268 134.507996,4.96145268 C134.926078,4.96145268 135.245785,5.02422328 135.464311,5.14765648 L135.466654,7.30410716 L135.46642,7.30410716 Z M145.761966,10.7733531 L138.804971,10.7733531 C138.831204,11.7008588 139.121635,12.4163966 139.677202,12.9199667 C140.231831,13.4225998 140.993978,13.6743847 141.96458,13.6743847 C143.0544,13.6743847 144.054278,13.3539737 144.964218,12.7140884 L144.964218,14.5461464 C144.03437,15.1213873 142.804722,15.4090076 141.276446,15.4090076 C139.774402,15.4090076 138.597454,14.9532184 137.743259,14.0416396 C136.889063,13.1300608 136.46302,11.8481823 136.46302,10.1953016 C136.46302,8.63376619 136.932628,7.36078807 137.873952,6.37753837 C138.814106,5.39428867 139.98192,4.90266382 141.377628,4.90266382 C142.773103,4.90266382 143.851914,5.34369745 144.616169,6.22529628 C145.38019,7.10712932 145.762669,8.33209262 145.762669,9.9006546 L145.761732,10.7733531 L145.761966,10.7733531 Z M143.529395,9.16614506 C143.519323,8.34919058 143.32703,7.71398972 142.941506,7.26030828 C142.555748,6.80662686 142.024541,6.57966902 141.346477,6.57966902 C140.682468,6.57966902 140.118703,6.81857201 139.657292,7.29520687 C139.195883,7.77184172 138.91154,8.3960343 138.805206,9.16708195 L143.529395,9.16708195 L143.529395,9.16614506 Z" id="Shape"></path>
            </g>
        </g>
    </g>
</svg>