<?xml version="1.0" encoding="UTF-8"?>
<svg width="104px" height="34px" viewBox="0 0 104 34" version="1.1" xmlns="http://www.w3.org/2000/svg" xmlns:xlink="http://www.w3.org/1999/xlink">
    <!-- Generator: Sketch 46.2 (44496) - http://www.bohemiancoding.com/sketch -->
    <title>redhat</title>
    <desc>Created with Sketch.</desc>
    <defs></defs>
    <g id="Page-4" stroke="none" stroke-width="1" fill="none" fill-rule="evenodd">
        <g id="logos" transform="translate(-646.000000, -23.000000)" fill-rule="nonzero">
            <g id="redhat" transform="translate(571.000000, 0.000000)">
                <g id="logo" transform="translate(75.000000, 23.000000)">
                    <path d="M30.9024288,25.7803116 C30.2454126,25.6260061 29.5731933,25.5457017 28.8983175,25.5408973 C27.7237262,25.5408973 26.655916,25.7454672 25.8679844,26.0725544 C25.777839,26.1173913 25.7205017,26.2090441 25.719615,26.3097207 C25.719615,26.347937 25.7274831,26.3861534 25.7432192,26.4176257 C25.8353881,26.6873883 25.6825226,26.9785071 24.9204433,27.1482327 C23.7896885,27.3955151 23.0759416,28.5633623 22.6679257,28.948898 C22.1879731,29.4041224 20.8346641,29.6840011 21.03811,29.4108664 C21.1977196,29.2006764 21.8069334,28.5386341 22.176733,27.8237632 C22.5094402,27.1853251 22.805055,27.0032353 23.2108229,26.3928975 C23.3310921,26.2141797 23.7930605,25.5858577 23.9279418,25.0890449 C24.0785592,24.6034723 24.0279787,23.9942584 24.0864273,23.743604 C24.1696041,23.3816725 24.5101794,22.598237 24.5360316,22.1531287 C24.5506438,21.9047224 23.4895776,22.5128122 22.9860207,22.5128122 C22.4824639,22.5128122 21.9912712,22.2104533 21.5416669,22.1902211 C20.9852815,22.1632448 20.6267221,22.6184692 20.1220412,22.5375404 C19.8354185,22.49258 19.5915081,22.2396776 19.0901993,22.2216934 C18.3742045,22.1947171 17.4986,22.6184692 15.8564203,22.5667647 C14.2400928,22.5139362 12.7474064,20.5233131 12.5439605,20.2074661 C12.3045462,19.8376665 12.0123034,19.8376665 11.6953323,20.1299093 C11.3772373,20.4187801 10.9838335,20.1906059 10.8736804,19.996152 C10.6612424,19.6252285 10.0947409,18.5428061 9.21688851,18.3146319 C8.00295685,17.9999089 7.38812295,18.9867903 7.46792772,19.7702259 C7.54885649,20.5671495 8.06477745,20.7908277 8.30419175,21.2145797 C8.54135802,21.6372078 8.6638752,21.9114664 9.1112315,22.0991762 C9.43045056,22.2318095 9.5484717,22.4273874 9.45405479,22.6881579 C9.37087799,22.9152081 9.04041882,22.9680366 8.82123671,22.9781527 C8.46188128,23.0051936 8.10333756,22.9161487 7.79838689,22.7241262 C7.52412826,22.5476565 7.2993261,22.3048702 7.06103581,21.8923582 C6.78228113,21.4360099 6.34504093,21.238184 5.83586404,21.238184 C5.59307771,21.238184 5.36490352,21.3022526 5.16370559,21.4045376 C4.30643768,21.8448695 3.35562286,22.07197 2.39189497,22.0665799 L1.23641187,22.0677039 C3.44958913,28.6285549 9.65750074,33.3516483 16.969191,33.3516483 C22.808427,33.3516483 27.9440324,30.3392994 30.9024288,25.7803116" id="Shape" fill="#FFFFFF"></path>
                    <path d="M30.9024288,25.7825596 C30.2456511,25.6267734 29.5733062,25.5460769 28.8983175,25.5420213 C27.7237262,25.5420213 26.655916,25.7465912 25.8679844,26.0736784 C25.777657,26.1183144 25.7202414,26.2100924 25.719615,26.3108447 C25.719615,26.347937 25.7274831,26.3872774 25.7432192,26.4176257 C25.8353881,26.6885123 25.6825226,26.9807551 24.9204433,27.1493567 C23.7896885,27.3977631 23.0759416,28.5633623 22.6679257,28.948898 C22.1879731,29.4052464 20.8346641,29.6851251 21.03811,29.4131145 C21.1977196,29.2006764 21.8069334,28.5386341 22.176733,27.8237632 C22.5094402,27.1864491 22.805055,27.0032353 23.2108229,26.3940215 C23.3310921,26.2153038 23.7930605,25.5858577 23.9279418,25.0901689 C24.0785592,24.6034723 24.0279787,23.9953824 24.0864273,23.744728 C24.1696041,23.3827965 24.5101794,22.599361 24.5360316,22.1553768 C24.5506438,21.9047224 23.4895776,22.5128122 22.9860207,22.5128122 C22.4824639,22.5128122 21.9912712,22.2115773 21.5416669,22.1913451 C20.9852815,22.1632448 20.6267221,22.6195932 20.1220412,22.5386644 C19.8354185,22.493704 19.5915081,22.2408016 19.0901993,22.2216934 C18.3742045,22.1958412 17.4986,22.6195932 15.8564203,22.5667647 C14.2400928,22.5139362 12.7474064,20.5255611 12.5439605,20.2097141 C12.3045462,19.8376665 12.0123034,19.8376665 11.6953323,20.1299093 C11.3772373,20.4199041 10.9838335,20.1917299 10.8736804,19.997276 C10.6612424,19.6252285 10.0947409,18.5428061 9.21688851,18.3146319 C8.00295685,17.9999089 7.38812295,18.9867903 7.46792772,19.7713499 C7.54885649,20.5671495 8.06477745,20.7908277 8.30419175,21.2145797 C8.54135802,21.6372078 8.6638752,21.9125904 9.1112315,22.1003002 C9.43045056,22.2318095 9.5484717,22.4285114 9.45405479,22.6892819 C9.37087799,22.9163321 9.04041882,22.9691606 8.82123671,22.9792767 C8.46158669,23.0062138 8.10284907,22.9163323 7.79838689,22.7230022 C7.52412826,22.5499046 7.2993261,22.3059942 7.06103581,21.8923582 C6.78228113,21.4371339 6.34504093,21.238184 5.83586404,21.238184 C5.59307771,21.238184 5.36490352,21.3033766 5.16370559,21.4045376 C4.36565792,21.8215456 3.41474479,22.0677039 2.39189497,22.0677039 L1.23641187,22.0677039 C0.674406476,20.4030439 0.370923562,18.6192388 0.370923562,16.765745 C0.370923562,7.60280901 7.80175892,0.176469695 16.969191,0.176469695 C26.134375,0.176469695 33.5663343,7.60280901 33.5663343,16.765745 C33.5663343,20.0905689 32.5873209,23.1838466 30.9024288,25.7825596" id="Shape" fill="#000000"></path>
                    <path d="M20.6233501,24.260649 C20.7087749,24.3427018 20.8560203,24.6225805 20.6761786,24.9800159 C20.5750176,25.1677257 20.4659885,25.299235 20.2726587,25.4543484 C20.0377404,25.6420582 19.5825161,25.8589923 18.9575661,25.4599685 C18.6203628,25.2475305 18.5990066,25.1755938 18.1347902,25.2362903 C17.803207,25.2790028 17.6716977,24.9440475 17.7897188,24.6652929 C17.909988,24.3876622 18.3989327,24.16286 19.0092705,24.5202955 C19.2846532,24.681029 19.7117773,25.0227283 20.0849489,24.7192454 C20.2569829,24.5862091 20.4127898,24.4334202 20.5491653,24.264021 C20.5595843,24.2536304 20.5737951,24.2479461 20.5885057,24.2482849 C20.6019938,24.2482849 20.614358,24.2527809 20.6233501,24.260649" id="Shape" fill="#000000"></path>
                    <path d="M15.6765785,8.07601756 C13.7601401,8.21427088 13.5600662,8.42108887 13.2015068,8.80212853 C12.6957019,9.34277772 12.0280395,8.10411783 12.0280395,8.10411783 C11.6267677,8.01981702 11.142319,7.37463482 11.4042135,6.77328905 C11.662736,6.17756332 12.1393166,6.35515703 12.287686,6.54061881 C12.4686517,6.76654498 12.8564355,7.13634453 13.3599923,7.1228564 C13.8635491,7.10936827 14.4435387,7.00371126 15.2539505,7.00371126 C16.0744784,7.00371126 16.6252437,7.30944219 16.6555919,7.57358473 C16.6836922,7.79726288 16.5892753,8.00857691 15.6777026,8.07601756 M17.6908059,4.90967915 L17.6818138,4.90967915 C17.6525895,4.90967915 17.6289853,4.88719893 17.6289853,4.86022267 C17.6289853,4.83999048 17.6413494,4.82200631 17.6593336,4.81413823 C18.0313812,4.61856035 18.5855185,4.46119884 19.2194606,4.39825424 C19.403865,4.37800067 19.58921,4.36749529 19.7747219,4.36678194 L19.8702628,4.36678194 C20.934701,4.39151017 21.7855772,4.81413823 21.7732131,5.310951 C21.759725,5.80776377 20.8886166,6.19105145 19.8230544,6.16857124 C19.5036987,6.16228632 19.1864354,6.11545222 18.8788853,6.0291939 C18.8459812,6.02225538 18.8224949,5.99313242 18.8226848,5.95950523 C18.8226848,5.92690892 18.845165,5.89880865 18.8800093,5.88981656 C19.5431757,5.73695109 19.990532,5.48517268 19.9590597,5.2480064 C19.9163473,4.93440739 19.0497349,4.76355775 18.0201411,4.86696674 C17.90774,4.87820685 17.7975869,4.89281899 17.6908059,4.90967915 M26.3344489,12.3517546 C26.1703433,12.9025199 25.9376731,13.6072747 24.8990871,14.1400558 C24.7473457,14.2176125 24.6911451,14.0905993 24.7597098,13.9714542 C25.1531136,13.3037918 25.2216782,13.1374382 25.3363273,12.8755436 C25.4948128,12.4900079 25.5802377,11.9426147 25.2621426,10.8028677 C24.6383166,8.55821819 23.3344641,5.55598536 22.389171,4.58371602 C21.4753502,3.64404299 19.8208063,3.37877645 18.323624,3.76318814 C17.7728587,3.90368949 16.6949323,4.46344686 14.6964411,4.01384255 C11.2378599,3.23490307 10.725311,4.96587969 10.5274851,5.72009093 C10.3274112,6.47430217 9.8508306,8.61779076 9.8508306,8.61779076 C9.69346909,9.49227116 9.48440308,11.0096857 14.8560507,12.0336596 C17.3580987,12.5091161 17.4839879,13.1565463 17.596389,13.6207628 C17.7953389,14.4536548 18.1134339,14.9302354 18.4697454,15.1685257 C18.8271808,15.406816 18.4697454,15.6046419 18.0729696,15.6439822 C17.0085313,15.7552593 13.0688735,14.6256285 10.7376751,13.3026677 C8.83135281,12.1381926 8.79988051,11.0906145 9.2359967,10.200398 C6.35628104,9.88904697 4.19480828,10.4701605 3.80365253,11.8335856 C3.13037006,14.1715281 8.94712592,18.1662625 15.5720455,20.1714977 C22.5218043,22.2745219 29.6705129,20.8054398 30.4651886,16.4386579 C30.825996,14.4547788 29.154592,12.9868207 26.3344489,12.3517546" id="Shape" fill="#E93442"></path>
                    <g id="a" transform="translate(32.596313, 23.604227)" fill="#000000">
                        <path d="M0.802543707,1.2914884 L0.952037143,1.2914884 L1.1768393,1.66241196 L1.3229607,1.66241196 L1.07905036,1.28474434 C1.20606358,1.26900819 1.3016045,1.20269155 1.3016045,1.04870207 C1.3016045,0.880100452 1.20044353,0.805915739 1.00036961,0.805915739 L0.673282466,0.805915739 L0.673282466,1.66241196 L0.802543707,1.66241196 L0.802543707,1.2914884 L0.802543707,1.2914884 Z M0.802543707,1.18133534 L0.802543707,0.914944786 L0.979013402,0.914944786 C1.06781025,0.914944786 1.16447518,0.936300991 1.16447518,1.040834 C1.16447518,1.17346727 1.06781025,1.18133534 0.957657197,1.18133534 L0.802543707,1.18133534 L0.802543707,1.18133534 Z" id="Shape"></path>
                        <path d="M1.79392123,1.23641187 C1.8047365,1.54311236 1.64713821,1.83121956 1.38304404,1.9875411 C1.11894986,2.14386264 0.790555603,2.14342213 0.526881748,1.98639266 C0.263207893,1.82936318 0.106383097,1.54083422 0.118021133,1.23416385 C0.134835918,0.783322746 0.505358517,0.426601219 0.956512979,0.426903804 C1.40766744,0.427206389 1.77771121,0.784424607 1.79392123,1.23528786 M0.955409175,0.545145235 C0.708844957,0.544743657 0.480795986,0.675913031 0.357166105,0.889243121 C0.233536224,1.10257321 0.233107753,1.3656541 0.356042094,1.57938576 C0.478976435,1.79311742 0.706596936,1.92502893 0.953161153,1.92543049 C1.33431639,1.92636163 1.6440586,1.61812911 1.64498976,1.23697388 C1.64592092,0.855818646 1.33768842,0.546076419 0.956533186,0.545145235" id="Shape"></path>
                    </g>
                    <path d="M42.0267636,17.811075 C42.0329213,16.5931047 42.0018091,15.3752312 41.9334707,14.159164 L44.4220306,14.159164 L44.5299356,16.3183887 L44.6108644,16.3183887 C45.1706218,14.7177973 46.4969545,13.9017655 47.7243743,13.9017655 C48.003129,13.9017655 48.1672346,13.9130056 48.3987808,13.9647101 L48.3987808,16.6713281 C48.1132139,16.6136179 47.8223672,16.5861156 47.5310444,16.5892753 C46.1619993,16.5892753 45.2110862,17.4603837 44.9536877,18.7631122 C44.9031391,19.0491892 44.8783117,19.3392184 44.879503,19.6297245 L44.879503,25.5229131 L42.0042834,25.5229131 L42.0278876,17.8121991 L42.0267636,17.811075 Z M51.8697261,20.614358 C51.9450348,22.6735457 53.5400062,23.5750024 55.3811358,23.5750024 C56.7029725,23.5750024 57.6516376,23.3670604 58.51825,23.0489653 L58.9453741,25.0272243 C57.9719807,25.4386123 56.6220438,25.7465912 54.9719959,25.7465912 C51.2796204,25.7465912 49.1158997,23.4670974 49.1158997,19.9849119 C49.1158997,16.8489218 51.0188499,13.8815333 54.6763811,13.8815333 C58.3743766,13.8815333 59.5770681,16.9197345 59.5770681,19.4071704 C59.5770681,19.9421995 59.5298597,20.3693236 59.4759072,20.6368382 L51.8697261,20.614358 L51.8697261,20.614358 Z M56.8693261,18.6136188 C56.8828143,17.5592966 56.4242179,15.8429321 54.4987874,15.8429321 C52.7284704,15.8429321 51.9922433,17.4502676 51.8629821,18.6124947 L56.8693261,18.6124947 L56.8693261,18.6136188 Z M69.0929435,20.5963738 C69.0929435,20.8976087 69.0704633,21.1786114 69.0041467,21.4348858 C68.7152759,22.6791658 67.6969221,23.4794615 66.5212068,23.4794615 C64.7115494,23.4794615 63.6752115,21.9541788 63.6752115,19.8668908 C63.6752115,17.7582465 64.7014333,16.1239348 66.5526791,16.1239348 C67.8464155,16.1239348 68.7726004,17.0377556 69.0255029,18.1437822 C69.0760834,18.3764525 69.0929435,18.6641992 69.0929435,18.8934974 L69.0929435,20.5963738 Z M71.9647911,9.78226594 L69.0918195,8.97185416 L69.0918195,15.3832117 L69.044611,15.3832117 C68.5354342,14.5435757 67.4147954,13.9028895 65.8569164,13.9028895 C63.1221982,13.9028895 60.7426673,16.1643992 60.7595275,19.9714238 C60.7595275,23.4648493 62.9108841,25.7791876 65.6264942,25.7791876 C67.265302,25.7791876 68.6388432,24.9980001 69.3177457,23.7244958 L69.3694502,23.7244958 L69.4987114,25.5229131 L72.061456,25.5229131 C72.0075035,24.7507177 71.9647911,23.4996937 71.9647911,22.3374665 L71.9647911,9.78226594 Z M79.5687241,13.8894014 C78.7021118,13.8894014 77.9254203,14.1389318 77.2746181,14.5413276 C76.6155449,14.9346734 76.0776705,15.5021057 75.7201112,16.1812594 L75.6740267,16.1812594 L75.6740267,10.8635643 L74.5488919,10.5308571 L74.5488919,25.5240371 L75.6729027,25.5240371 L75.6729027,18.5686583 C75.6729027,18.1066899 75.708871,17.7863468 75.8280162,17.4480196 C76.3135889,16.031766 77.6477897,14.8717868 79.2607452,14.8717868 C81.5896955,14.8717868 82.3967353,16.7376447 82.3967353,18.7867164 L82.3967353,25.5240371 L83.5207461,25.5240371 L83.5207461,18.6641992 C83.5207461,14.4266785 80.6466505,13.8894014 79.5687241,13.8894014 L79.5687241,13.8894014 Z M93.6222311,22.8219152 C93.6222311,23.7222478 93.6581994,24.6518047 93.7885847,25.5229131 L92.7522467,25.5229131 L92.5858931,23.8942215 L92.5330646,23.8942215 C91.9811753,24.7709499 90.7121671,25.7825596 88.9047578,25.7825596 C86.6151478,25.7825596 85.5484615,24.1718521 85.5484615,22.6578096 C85.5484615,20.0321204 87.8684198,18.4495132 92.4982203,18.4989696 L92.4982203,18.1954867 C92.4982203,17.0692279 92.2790382,14.8257024 89.5859083,14.8425625 C88.5900347,14.8425625 87.5514488,15.1089531 86.7286729,15.6900667 L86.3712374,14.8729108 C87.4120714,14.1681561 88.6810796,13.8894014 89.7095495,13.8894014 C92.993909,13.8894014 93.6211071,16.353233 93.6211071,18.3854446 L93.6211071,22.8219152 L93.6222311,22.8219152 Z M92.4982203,19.4442627 C90.0186525,19.37345 86.746657,19.7488697 86.746657,22.4790919 C86.746657,24.1134036 87.8257074,24.8485066 89.0115388,24.8485066 C90.907745,24.8485066 91.9867954,23.6750394 92.3801991,22.5678887 C92.4611279,22.3262264 92.4982203,22.081192 92.4982203,21.8856142 L92.4982203,19.4453867 L92.4982203,19.4442627 Z M98.1036621,11.6436278 L98.1036621,14.1490479 L101.348681,14.1490479 L101.348681,15.0617446 L98.1036621,15.0617446 L98.1036621,22.4543636 C98.1036621,23.9009655 98.5532664,24.8069182 99.7761902,24.8069182 C100.3618,24.8069182 100.777684,24.7304855 101.068803,24.6270765 L101.204808,25.4993089 C100.837256,25.6544224 100.321335,25.7724435 99.6345648,25.7724435 C98.8039208,25.7724435 98.1149022,25.511673 97.6697939,24.9676518 C97.154997,24.369678 96.9785273,23.4153929 96.9785273,22.2542897 L96.9785273,15.0606206 L95.0587169,15.0606206 L95.0587169,14.1490479 L96.9785273,14.1490479 L96.9785273,12.0583878 L98.1036621,11.6425038 L98.1036621,11.6436278 Z" id="Shape" fill="#000000"></path>
                    <g id="a-link" transform="translate(101.968011, 23.626707)" fill="#000000">
                        <g id="a">
                            <path d="M0.802543707,1.2914884 L0.952037143,1.2914884 L1.1768393,1.66241196 L1.3229607,1.66241196 L1.07905036,1.28474434 C1.20606358,1.26900819 1.3016045,1.20269155 1.3016045,1.04870207 C1.3016045,0.880100452 1.20044353,0.805915739 1.00036961,0.805915739 L0.673282466,0.805915739 L0.673282466,1.66241196 L0.802543707,1.66241196 L0.802543707,1.2914884 L0.802543707,1.2914884 Z M0.802543707,1.18133534 L0.802543707,0.914944786 L0.979013402,0.914944786 C1.06781025,0.914944786 1.16447518,0.936300991 1.16447518,1.040834 C1.16447518,1.17346727 1.06781025,1.18133534 0.957657197,1.18133534 L0.802543707,1.18133534 L0.802543707,1.18133534 Z" id="Shape"></path>
                            <path d="M1.79392123,1.23641187 C1.8047365,1.54311236 1.64713821,1.83121956 1.38304404,1.9875411 C1.11894986,2.14386264 0.790555603,2.14342213 0.526881748,1.98639266 C0.263207893,1.82936318 0.106383097,1.54083422 0.118021133,1.23416385 C0.134835918,0.783322746 0.505358517,0.426601219 0.956512979,0.426903804 C1.40766744,0.427206389 1.77771121,0.784424607 1.79392123,1.23528786 M0.955409175,0.545145235 C0.708844957,0.544743657 0.480795986,0.675913031 0.357166105,0.889243121 C0.233536224,1.10257321 0.233107753,1.3656541 0.356042094,1.57938576 C0.478976435,1.79311742 0.706596936,1.92502893 0.953161153,1.92543049 C1.33431639,1.92636163 1.6440586,1.61812911 1.64498976,1.23697388 C1.64592092,0.855818646 1.33768842,0.546076419 0.956533186,0.545145235" id="Shape"></path>
                        </g>
                    </g>
                </g>
            </g>
        </g>
    </g>
</svg>