<?xml version="1.0" encoding="UTF-8"?>
<svg width="98px" height="22px" viewBox="0 0 98 22" version="1.1" xmlns="http://www.w3.org/2000/svg" xmlns:xlink="http://www.w3.org/1999/xlink">
    <!-- Generator: Sketch 46.2 (44496) - http://www.bohemiancoding.com/sketch -->
    <title>ubuntu</title>
    <desc>Created with Sketch.</desc>
    <defs></defs>
    <g id="Page-4" stroke="none" stroke-width="1" fill="none" fill-rule="evenodd">
        <g id="logos" transform="translate(-648.000000, -251.000000)" fill-rule="nonzero">
            <g id="ubuntu" transform="translate(570.000000, 222.000000)">
                <g transform="translate(78.000000, 29.000000)" id="Shape">
                    <path d="M91.609,0.117 C94.8299247,0.117 97.441,2.72807534 97.441,5.949 C97.441,9.16992466 94.8299247,11.781 91.609,11.781 C88.3880753,11.781 85.777,9.16992466 85.777,5.949 C85.777,2.72807534 88.3880753,0.117 91.609,0.117" fill="#DD4813"></path>
                    <path d="M92.974,3.465 C93.1906816,3.59004297 93.4576133,3.58998919 93.6742444,3.46485891 C93.8908756,3.33972864 94.0242949,3.10853214 94.0242444,2.8583589 C94.024194,2.60818566 93.8906816,2.37704295 93.674,2.252 C93.3390393,2.05870036 92.9107997,2.17353933 92.7175,2.50850002 C92.5242004,2.84346071 92.6390393,3.27170033 92.974,3.465 M91.54,7.995 C91.232,7.995 90.94,7.927 90.678,7.805 L90.192,8.677 C90.8628454,9.00919537 91.632674,9.08219021 92.354,8.882 C92.4015359,8.59068004 92.5773386,8.3360869 92.8329259,8.18843148 C93.0885132,8.04077605 93.3968852,8.01565642 93.673,8.12 C94.2072637,7.59545291 94.5291605,6.89219391 94.577,6.145 L93.579,6.131 C93.4846867,7.18705114 92.5992537,7.99609383 91.539,7.995 M91.539,3.902 C92.609,3.902 93.487,4.722 93.579,5.768 L94.577,5.752 C94.529291,5.00506418 94.2073546,4.30207483 93.673,3.778 C93.3966417,3.883497 93.0874516,3.85879568 92.8313481,3.71076013 C92.5752447,3.56272457 92.3995182,3.30712935 92.353,3.015 C91.6317845,2.81356378 90.8615027,2.8866016 90.191,3.22 L90.678,4.092 C90.948024,3.96651729 91.2422438,3.90166605 91.54,3.902 M89.494,5.949 C89.494,5.256 89.837,4.644 90.364,4.274 L89.852,3.416 C89.228971,3.83133243 88.7804932,4.46133697 88.592,5.186 C88.8220588,5.37243042 88.9554869,5.65288662 88.955,5.949 C88.9554869,6.24511338 88.8220588,6.52556958 88.592,6.712 C88.7807145,7.43629499 89.2291694,8.06591151 89.852,8.481 L90.363,7.623 C89.8169038,7.24066705 89.492065,6.6156323 89.493,5.949 M92.974,8.434 C92.7428018,8.5513178 92.5953805,8.78681266 92.5908627,9.04603392 C92.5863449,9.30525517 92.7254707,9.54574405 92.9524405,9.67104691 C93.1794102,9.79634977 93.4570477,9.78594282 93.674,9.644 C93.9850239,9.44051008 94.082788,9.02942383 93.8966691,8.70770385 C93.7105501,8.38598388 93.3054469,8.26581262 92.974,8.434 M87.971,5.248 C87.5844007,5.248 87.271,5.56140068 87.271,5.948 C87.271,6.33459932 87.5844007,6.648 87.971,6.648 C88.3575993,6.648 88.671,6.33459932 88.671,5.948 C88.671,5.56140068 88.3575993,5.248 87.971,5.248" fill="#FFFFFF"></path>
                    <path d="M11.664,21.25 C11.071,21.4 10.289,21.556 9.317,21.723 C8.345,21.889 7.22,21.973 5.943,21.973 C4.833,21.973 3.897,21.81 3.138,21.487 C2.378,21.163 1.768,20.705 1.305,20.112 C0.842,19.52 0.509,18.821 0.305,18.015 C0.102,17.211 0,16.317 0,15.335 L0,7.228 L2.583,7.228 L2.583,14.781 C2.583,16.541 2.86,17.799 3.416,18.558 C3.971,19.318 4.906,19.697 6.221,19.697 C6.78691618,19.6908555 7.35222059,19.6578182 7.915,19.598 C8.174,19.571 8.41,19.544 8.623,19.516 C8.77927443,19.5011898 8.93330366,19.4683034 9.082,19.418 L9.082,7.227 L11.664,7.227 L11.664,21.251 L11.664,21.25 Z M17.967,19.417 C18.227,19.492 18.592,19.562 19.064,19.625 C19.536,19.691 20.124,19.723 20.827,19.723 C22.216,19.723 23.327,19.264 24.159,18.348 C24.993,17.432 25.409,16.131 25.409,14.448 C25.4132403,13.7468831 25.3387742,13.0475053 25.187,12.363 C25.039,11.716 24.798,11.155 24.465,10.684 C24.1329318,10.2130678 23.689393,9.83171378 23.174,9.574 C22.646,9.304 22.012,9.17 21.272,9.17 C20.567,9.17 19.92,9.291 19.328,9.531 C18.734,9.772 18.281,10.022 17.967,10.281 L17.967,19.417 L17.967,19.417 Z M17.967,7.865 C18.281,7.662 18.759,7.449 19.397,7.227 C20.035,7.005 20.772,6.894 21.605,6.894 C22.641,6.894 23.563,7.079 24.368,7.449 C25.173,7.819 25.854,8.337 26.409,9.004 C26.964,9.67 27.385,10.467 27.673,11.392 C27.959,12.318 28.103,13.336 28.103,14.447 C28.103,15.613 27.931,16.664 27.59,17.599 C27.246,18.534 26.76,19.325 26.132,19.973 C25.4888488,20.6303658 24.7119914,21.1419049 23.854,21.473 C22.966,21.824 21.966,22 20.855,22 C19.651,22 18.587,21.916 17.662,21.75 C16.8956942,21.6185433 16.1358817,21.4516982 15.385,21.25 L15.385,0.563 L17.967,0.118 L17.967,7.865 L17.967,7.865 Z M42.515,21.25 C41.922,21.4 41.14,21.556 40.168,21.723 C39.196,21.889 38.071,21.973 36.794,21.973 C35.684,21.973 34.749,21.81 33.99,21.487 C33.23,21.163 32.62,20.705 32.157,20.112 C31.694,19.52 31.361,18.821 31.157,18.015 C30.953,17.211 30.852,16.317 30.852,15.335 L30.852,7.228 L33.434,7.228 L33.434,14.781 C33.434,16.541 33.712,17.799 34.267,18.558 C34.823,19.318 35.757,19.697 37.072,19.697 C37.6379102,19.6906819 38.2032063,19.6576451 38.766,19.598 C39.026,19.571 39.261,19.544 39.475,19.516 C39.6306121,19.5011263 39.7839718,19.4682395 39.932,19.418 L39.932,7.227 L42.515,7.227 L42.515,21.251 L42.515,21.25 Z M46.235,7.644 C47.0155858,7.45738083 47.8027872,7.29960698 48.595,7.171 C49.576,7.005 50.705,6.921 51.983,6.921 C53.131,6.921 54.085,7.084 54.843,7.407 C55.603,7.732 56.209,8.185 56.663,8.768 C57.115,9.351 57.435,10.05 57.62,10.865 C57.805,11.68 57.898,12.578 57.898,13.559 L57.898,21.667 L55.316,21.667 L55.316,14.114 C55.316,13.225 55.256,12.467 55.136,11.837 C55.014,11.207 54.816,10.697 54.538,10.31 C54.2620469,9.92180145 53.8750931,9.62618273 53.428,9.462 C52.965,9.286 52.39,9.198 51.706,9.198 C51.427,9.198 51.141,9.208 50.846,9.226 C50.549,9.245 50.266,9.267 49.998,9.296 C49.728,9.323 49.489,9.356 49.276,9.392 C49.063,9.43 48.91,9.457 48.818,9.475 L48.818,21.666 L46.235,21.666 L46.235,7.644 Z M63.868,7.227 L69.338,7.227 L69.338,9.393 L63.868,9.393 L63.868,16.058 C63.868,16.779 63.923,17.378 64.035,17.849 C64.146,18.321 64.313,18.692 64.535,18.959 C64.757,19.228 65.034,19.417 65.368,19.529 C65.701,19.639 66.089,19.696 66.534,19.696 C67.329,19.696 67.959,19.607 68.422,19.431 C68.884,19.255 69.2,19.131 69.367,19.056 L69.921,21.167 C69.662,21.297 69.204,21.464 68.547,21.667 C67.89,21.87 67.145,21.972 66.312,21.972 C65.33,21.972 64.52,21.848 63.882,21.598 C63.243,21.348 62.73,20.973 62.341,20.473 C61.952,19.973 61.679,19.358 61.522,18.626 C61.364,17.896 61.285,17.048 61.285,16.086 L61.285,3.2 L63.868,2.755 L63.868,7.226 L63.868,7.227 Z M83.39,21.25 C82.796,21.4 82.015,21.556 81.043,21.723 C80.071,21.889 78.946,21.973 77.67,21.973 C76.559,21.973 75.624,21.81 74.864,21.487 C74.104,21.163 73.494,20.705 73.032,20.112 C72.569,19.52 72.236,18.821 72.032,18.015 C71.828,17.211 71.726,16.317 71.726,15.335 L71.726,7.228 L74.309,7.228 L74.309,14.781 C74.309,16.541 74.587,17.799 75.143,18.558 C75.698,19.318 76.633,19.697 77.947,19.697 C78.225,19.697 78.511,19.687 78.808,19.668 C79.3230199,19.6321434 79.8368997,19.5814557 80.349,19.516 C80.561,19.488 80.715,19.456 80.808,19.418 L80.808,7.227 L83.39,7.227 L83.39,21.251 L83.39,21.25 Z" fill="#000000"></path>
                </g>
            </g>
        </g>
    </g>
</svg>